<?xml version="1.0" encoding="UTF-8"?>
<svg width="20px" height="20px" viewBox="0 0 16 16" version="1.1" xmlns="http://www.w3.org/2000/svg" xmlns:xlink="http://www.w3.org/1999/xlink">
    <title>工具栏/亮度</title>
    <g id="工具栏/亮度" stroke="none" stroke-width="1" fill="none" fill-rule="evenodd">
        <path d="M8,4.5 C6.06700338,4.5 4.5,6.06700338 4.5,8 C4.5,9.93299662 6.06700338,11.5 8,11.5 C9.93299662,11.5 11.5,9.93299662 11.5,8 C11.5,6.06700338 9.93299662,4.5 8,4.5 Z M8,5.5 C9.38071187,5.5 10.5,6.61928813 10.5,8 C10.5,9.38071187 9.38071187,10.5 8,10.5 C6.61928813,10.5 5.5,9.38071187 5.5,8 C5.5,6.61928813 6.61928813,5.5 8,5.5 Z" id="Oval" fill="#BFC7D7" fill-rule="nonzero"></path>
        <path d="M8,0.918318675 C8.27614237,0.918318675 8.5,1.1421763 8.5,1.41831868 L8.5,3 C8.5,3.27614237 8.27614237,3.5 8,3.5 C7.72385763,3.5 7.5,3.27614237 7.5,3 L7.5,1.41831868 C7.5,1.1421763 7.72385763,0.918318675 8,0.918318675 Z" id="Path-47" fill="#BFC7D7" fill-rule="nonzero"></path>
        <path d="M12.0947427,2.61441664 C12.3708851,2.61441664 12.5947427,2.83827426 12.5947427,3.11441664 L12.5947427,4.69609796 C12.5947427,4.97224034 12.3708851,5.19609796 12.0947427,5.19609796 C11.8186003,5.19609796 11.5947427,4.97224034 11.5947427,4.69609796 L11.5947427,3.11441664 C11.5947427,2.83827426 11.8186003,2.61441664 12.0947427,2.61441664 Z" id="Path-47" fill="#BFC7D7" fill-rule="nonzero" transform="translate(12.094743, 3.905257) rotate(45.000000) translate(-12.094743, -3.905257) "></path>
        <path d="M13.7908407,6.70915934 C14.066983,6.70915934 14.2908407,6.93301696 14.2908407,7.20915934 L14.2908407,8.79084066 C14.2908407,9.06698304 14.066983,9.29084066 13.7908407,9.29084066 C13.5146983,9.29084066 13.2908407,9.06698304 13.2908407,8.79084066 L13.2908407,7.20915934 C13.2908407,6.93301696 13.5146983,6.70915934 13.7908407,6.70915934 Z" id="Path-47" fill="#BFC7D7" fill-rule="nonzero" transform="translate(13.790841, 8.000000) rotate(90.000000) translate(-13.790841, -8.000000) "></path>
        <path d="M12.0947427,10.803902 C12.3708851,10.803902 12.5947427,11.0277597 12.5947427,11.303902 L12.5947427,12.8855834 C12.5947427,13.1617257 12.3708851,13.3855834 12.0947427,13.3855834 C11.8186003,13.3855834 11.5947427,13.1617257 11.5947427,12.8855834 L11.5947427,11.303902 C11.5947427,11.0277597 11.8186003,10.803902 12.0947427,10.803902 Z" id="Path-47" fill="#BFC7D7" fill-rule="nonzero" transform="translate(12.094743, 12.094743) rotate(135.000000) translate(-12.094743, -12.094743) "></path>
        <path d="M8,12.5 C8.27614237,12.5 8.5,12.7238576 8.5,13 L8.5,14.5816813 C8.5,14.8578237 8.27614237,15.0816813 8,15.0816813 C7.72385763,15.0816813 7.5,14.8578237 7.5,14.5816813 L7.5,13 C7.5,12.7238576 7.72385763,12.5 8,12.5 Z" id="Path-47" fill="#BFC7D7" fill-rule="nonzero" transform="translate(8.000000, 13.790841) rotate(180.000000) translate(-8.000000, -13.790841) "></path>
        <path d="M3.9052573,10.803902 C4.18139967,10.803902 4.4052573,11.0277597 4.4052573,11.303902 L4.4052573,12.8855834 C4.4052573,13.1617257 4.18139967,13.3855834 3.9052573,13.3855834 C3.62911492,13.3855834 3.4052573,13.1617257 3.4052573,12.8855834 L3.4052573,11.303902 C3.4052573,11.0277597 3.62911492,10.803902 3.9052573,10.803902 Z" id="Path-47" fill="#BFC7D7" fill-rule="nonzero" transform="translate(3.905257, 12.094743) rotate(225.000000) translate(-3.905257, -12.094743) "></path>
        <path d="M2.20915934,6.70915934 C2.48530171,6.70915934 2.70915934,6.93301696 2.70915934,7.20915934 L2.70915934,8.79084066 C2.70915934,9.06698304 2.48530171,9.29084066 2.20915934,9.29084066 C1.93301696,9.29084066 1.70915934,9.06698304 1.70915934,8.79084066 L1.70915934,7.20915934 C1.70915934,6.93301696 1.93301696,6.70915934 2.20915934,6.70915934 Z" id="Path-47" fill="#BFC7D7" fill-rule="nonzero" transform="translate(2.209159, 8.000000) rotate(270.000000) translate(-2.209159, -8.000000) "></path>
        <path d="M3.9052573,2.61441664 C4.18139967,2.61441664 4.4052573,2.83827426 4.4052573,3.11441664 L4.4052573,4.69609796 C4.4052573,4.97224034 4.18139967,5.19609796 3.9052573,5.19609796 C3.62911492,5.19609796 3.4052573,4.97224034 3.4052573,4.69609796 L3.4052573,3.11441664 C3.4052573,2.83827426 3.62911492,2.61441664 3.9052573,2.61441664 Z" id="Path-47" fill="#BFC7D7" fill-rule="nonzero" transform="translate(3.905257, 3.905257) rotate(315.000000) translate(-3.905257, -3.905257) "></path>
    </g>
</svg>