<?xml version="1.0" encoding="UTF-8"?>
<svg width="20px" height="20px" viewBox="0 0 16 16" version="1.1" xmlns="http://www.w3.org/2000/svg" xmlns:xlink="http://www.w3.org/1999/xlink">
    <title>1-icon/01公共/close</title>
    <defs>
        <path d="M2.98100464,2.2852903 L3.05025253,2.34314575 L7.99969914,7.29269914 L12.9497475,2.34314575 C13.1450096,2.1478836 13.4615921,2.1478836 13.6568542,2.34314575 C13.8304206,2.5167121 13.8497058,2.7861365 13.7147097,2.98100464 L13.6568542,3.05025253 L8.70669914,7.99969914 L13.6568542,12.9497475 C13.8521164,13.1450096 13.8521164,13.4615921 13.6568542,13.6568542 C13.4832879,13.8304206 13.2138635,13.8497058 13.0189954,13.7147097 L12.9497475,13.6568542 L7.99969914,8.70669914 L3.05025253,13.6568542 C2.85499039,13.8521164 2.5384079,13.8521164 2.34314575,13.6568542 C2.1695794,13.4832879 2.15029425,13.2138635 2.2852903,13.0189954 L2.34314575,12.9497475 L7.29269914,7.99969914 L2.34314575,3.05025253 C2.1478836,2.85499039 2.1478836,2.5384079 2.34314575,2.34314575 C2.5167121,2.1695794 2.7861365,2.15029425 2.98100464,2.2852903 Z" id="path-1"></path>
    </defs>
    <g id="1-icon/01公共/close" stroke="none" stroke-width="1" fill="none" fill-rule="evenodd">
        <mask id="mask-2" fill="white">
            <use xlink:href="#path-1"></use>
        </mask>
        <use id="形状结合" fill="#BFC7D7" fill-rule="nonzero" xlink:href="#path-1"></use>
<!--        <g id="0-color/Dark/3Secondary" mask="url(#mask-2)" fill="#8D98AA">-->
<!--            <rect id="矩形" x="0" y="0" width="16" height="16"></rect>-->
<!--        </g>-->
    </g>
</svg>