<?xml version="1.0" encoding="UTF-8"?>
<svg width="20px" height="20px" viewBox="0 0 16 16" version="1.1" xmlns="http://www.w3.org/2000/svg" xmlns:xlink="http://www.w3.org/1999/xlink">
    <title>工具栏/编辑矩形 copy 2</title>
    <g id="工具栏/编辑矩形-copy-2" stroke="none" stroke-width="1" fill="none" fill-rule="evenodd">
        <path d="M10.806,2.49993202 L9.799,3.49993202 L2,3.5 C1.75454011,3.5 1.55039163,3.67687516 1.50805567,3.91012437 L1.5,4 L1.5,13 C1.5,13.2761424 1.72385763,13.5 2,13.5 L14,13.5 C14.2761424,13.5 14.5,13.2761424 14.5,13 L14.5,5.03393202 L15.5,4.04093202 L15.5,13 C15.5,13.7796961 14.9051119,14.4204487 14.14446,14.4931334 L14,14.5 L2,14.5 C1.17157288,14.5 0.5,13.8284271 0.5,13 L0.5,4 C0.5,3.17157288 1.17157288,2.5 2,2.5 L10.806,2.49993202 Z" id="Combined-Shape" fill="#8D98AA" fill-rule="nonzero"></path>
        <path d="M13.0863767,1.10905897 L8.21064594,5.94845917 C8.1470663,6.01156507 8.10160816,6.09059323 8.07902455,6.17728064 L7.51614982,8.33788043 C7.41848381,8.71277229 7.76585945,9.05152096 8.13817717,8.94445993 L10.2624464,8.33362023 C10.3432243,8.31039233 10.4168431,8.26717583 10.476498,8.20796537 L15.3522288,3.36856517 C15.5492571,3.173005 15.5492571,2.85437924 15.3522288,2.65881907 L13.7908343,1.10905897 C13.595879,0.915556373 13.281332,0.915556373 13.0863767,1.10905897 Z M13.438,2.16693202 L14.289,3.01293202 L9.863,7.40693202 L8.704,7.74093202 L9.011,6.56193202 L13.438,2.16693202 Z" id="Rectangle" fill="#8D98AA" fill-rule="nonzero"></path>
    </g>
</svg>