<?xml version="1.0" encoding="UTF-8"?>
<svg width="20px" height="20px" viewBox="0 0 16 16" version="1.1" xmlns="http://www.w3.org/2000/svg" xmlns:xlink="http://www.w3.org/1999/xlink">
    <title>1-icon/01公共/03箭头/chevron-double-right</title>
    <defs>
        <path d="M8.15289322,3.35 C8.34619288,3.15670034 8.65959356,3.15670034 8.85289322,3.35 C9.04619288,3.54329966 9.04619288,3.85670034 8.85289322,4.05 L5.04431458,7.85857864 C4.96620972,7.9366835 4.96620972,8.0633165 5.04431458,8.14142136 L8.85289322,11.95 C9.04619288,12.1432997 9.04619288,12.4567003 8.85289322,12.65 C8.65959356,12.8432997 8.34619288,12.8432997 8.15289322,12.65 L3.85644661,8.35355339 C3.66118446,8.15829124 3.66118446,7.84170876 3.85644661,7.64644661 Z M11.4528932,3.35 C11.6461929,3.15670034 11.9595936,3.15670034 12.1528932,3.35 C12.3461929,3.54329966 12.3461929,3.85670034 12.1528932,4.05 L8.34431458,7.85857864 C8.26620972,7.9366835 8.26620972,8.0633165 8.34431458,8.14142136 L12.1528932,11.95 C12.3461929,12.1432997 12.3461929,12.4567003 12.1528932,12.65 C11.9595936,12.8432997 11.6461929,12.8432997 11.4528932,12.65 L7.15644661,8.35355339 C6.96118446,8.15829124 6.96118446,7.84170876 7.15644661,7.64644661 Z" id="path-1"></path>
    </defs>
    <g id="1-icon/01公共/03箭头/chevron-double-right" stroke="none" stroke-width="1" fill="none" fill-rule="evenodd">
        <mask id="mask-2" fill="white">
            <use xlink:href="#path-1"></use>
        </mask>
        <use id="形状结合" fill="#BFC7D7" transform="translate(8.003934, 8.000000) scale(-1, 1) translate(-8.003934, -8.000000) " xlink:href="#path-1"></use>
    </g>
</svg>