<?xml version="1.0" encoding="UTF-8"?>
<svg width="18px" height="16px" viewBox="0 0 18 16" version="1.1" xmlns="http://www.w3.org/2000/svg" xmlns:xlink="http://www.w3.org/1999/xlink">
    <title>1-icon/01公共/02告警/alarm</title>
    <g id="-page1" stroke="none" stroke-width="1" fill="none" fill-rule="evenodd">
        <g id="烧录镜像-选择SD卡-弹窗" transform="translate(-490.000000, -399.000000)">
            <g id="Group" transform="translate(489.000000, 390.000000)">
                <g id="1-icon/01公共/02告警/alarm" transform="translate(1.250000, 9.500000)">
                    <path d="M17.351835,13.4056687 L13.5245664,6.96855624 L9.69729783,0.531443756 C9.48695197,0.177701506 9.11756412,0 8.74988639,0 C8.38049854,0 8.01282082,0.177701506 7.80247496,0.531443756 L3.97520637,6.96855624 L0.147937792,13.4056687 C-0.272753929,14.114814 0.253965786,15 1.09534923,15 L16.4044236,15 C17.2475171,15 17.7725267,14.114814 17.351835,13.4056687 Z" id="路径" fill="#EBAF00" fill-rule="nonzero"></path>
                    <path d="M8.75,12.5 C8.23242188,12.5 7.8125,12.0800781 7.8125,11.5625 C7.8125,11.0449219 8.23242188,10.625 8.75,10.625 C9.26757812,10.625 9.6875,11.0449219 9.6875,11.5625 C9.6875,12.0800781 9.26757812,12.5 8.75,12.5 Z M8.625,3.125 L8.875,3.125 C9.15114237,3.125 9.375,3.34885763 9.375,3.625 L9.375,8.875 C9.375,9.15114237 9.15114237,9.375 8.875,9.375 L8.625,9.375 C8.34885763,9.375 8.125,9.15114237 8.125,8.875 L8.125,3.625 C8.125,3.34885763 8.34885763,3.125 8.625,3.125 Z" id="形状" fill="#FFFFFF"></path>
                </g>
            </g>
        </g>
    </g>
</svg>