<?xml version="1.0" encoding="UTF-8"?>
<svg width="68px" height="28px" viewBox="0 0 68 28" version="1.1" xmlns="http://www.w3.org/2000/svg" xmlns:xlink="http://www.w3.org/1999/xlink">
    <title>st_logo_dh_ascend</title>
    <g id="st_logo_dh_ascend" stroke="none" stroke-width="1" fill="none" fill-rule="evenodd">
        <path d="M52.441753,13.2643678 L51.6701209,13.2643678 C50.3143345,13.2674697 49.213817,14.2515228 49.2021737,15.4711432 L49.1724138,19.6781609 L50.3925703,19.6781609 L50.3925703,15.5533713 C50.3920059,15.2431602 50.528595,14.9454807 50.7722299,14.7259487 C51.0158648,14.5064168 51.3465442,14.383055 51.691378,14.3830554 L52.3290905,14.3926168 C53.0617728,14.4050916 53.6491005,14.9419443 53.651281,15.6011783 L53.651281,19.6743364 L54.8735632,19.6743364 L54.8735632,15.4462835 C54.8730001,14.8667654 54.6164077,14.3112122 54.1602935,13.9019692 C53.7041793,13.4927262 53.0859498,13.263356 52.441753,13.2643678 Z" id="路径" fill="#040000" fill-rule="nonzero"></path>
        <path d="M60.8574939,10.4137931 L60.8574939,13.2724386 C60.3200746,12.7574739 59.6156038,12.4767754 58.8876557,12.4875504 C57.0360078,12.4875504 55.5862069,14.0635233 55.5862069,16.0753157 C55.5862069,18.0871081 57.0360078,19.6775395 58.8876557,19.6775395 C59.6135032,19.693033 60.317774,19.4183219 60.8574939,18.9091752 L60.8574939,19.6197056 L62,19.6197056 L62,10.4137931 L60.8574939,10.4137931 Z M58.8876557,13.6876031 C60.2133568,13.6876031 60.8161273,14.9269003 60.8161273,16.0753157 C60.8161273,17.2237311 60.2133568,18.4630282 58.8876557,18.4630282 C57.678175,18.4630282 56.7208337,17.4137566 56.7208337,16.0753157 C56.7208337,14.7368747 57.6702957,13.6814066 58.8876557,13.6814066 L58.8876557,13.6876031 Z" id="形状" fill="#040000" fill-rule="nonzero"></path>
        <path d="M32.4449355,15.7724481 L32.0201107,15.6901218 C31.170461,15.5273838 30.8688353,15.3072088 30.8688353,14.9874764 C30.8688353,14.6179653 31.4359765,14.3499262 32.0286072,14.3499262 C32.6212378,14.3499262 33.1310276,14.6103071 33.1310276,15.0621445 L33.1310276,15.2765757 L34.5796804,15.2765757 L34.5796804,15.0621445 C34.5796804,13.9363802 33.5409836,13.2643678 32.0307313,13.2643678 C30.5990716,13.2643678 29.4223067,13.989988 29.4223067,14.9874764 C29.4223067,15.8988094 30.2485911,16.4808372 31.6696302,16.7641928 L32.0732138,16.8388609 C33.3328194,17.0781815 33.4390256,17.4132304 33.4390256,17.7214754 C33.4390256,18.2364934 32.863388,18.5964316 32.0413519,18.5964316 C31.2193158,18.5964316 30.658547,18.1656545 30.658547,17.5721393 L30.658547,17.357708 L29.2183908,17.357708 L29.2183908,17.5721393 C29.2183908,18.8089484 30.384535,19.6781609 32.0519725,19.6781609 C33.71941,19.6781609 34.9195402,18.8568125 34.9195402,17.7253045 C34.9110437,16.4406313 33.7257824,16.0270853 32.4449355,15.7724481 Z" id="路径" fill="#040000" fill-rule="nonzero"></path>
        <path d="M47.2892,18.1611669 C46.903949,18.4510758 46.2985547,18.5988358 45.4920678,18.5988358 C44.408285,18.5988358 43.5340617,17.9254991 43.3160351,16.9154941 L43.2969842,16.8275862 L42.045977,16.8275862 L42.0586776,16.9472905 C42.1242791,17.6719903 42.4862007,18.3508071 43.0768408,18.8569482 C43.7349569,19.3913572 44.5982848,19.6848599 45.4920678,19.6780448 C46.5864345,19.6780448 47.4670081,19.442377 48.1147377,18.9766525 L48.4597701,18.7297623 L47.5707295,17.9442029 L47.2892,18.1611669 Z" id="路径" fill="#040000" fill-rule="nonzero"></path>
        <path d="M47.4899164,13.6018982 C46.8613997,12.9560489 46.0444154,12.5832341 45.1885708,12.5517241 C43.5660254,12.5517241 42.287715,13.8402813 42.0633821,15.6786228 L42.045977,15.8203641 L43.1850464,15.8203641 L43.2024515,15.7194271 C43.4093792,14.579054 44.2080815,13.8145101 45.1885708,13.8145101 C46.160831,13.8181732 47.0085458,14.5495774 47.2520462,15.5948666 L46.1361837,15.5948666 L46.1361837,16.8275862 L48.4336615,16.8275862 L48.4568683,16.2391451 C48.4957334,15.2456426 48.1426626,14.2826839 47.4899164,13.6018982 L47.4899164,13.6018982 Z" id="路径" fill="#040000" fill-rule="nonzero"></path>
        <rect id="矩形" fill="#040000" fill-rule="nonzero" x="44.183908" y="16.1149425" width="1.42528736" height="1"></rect>
        <path d="M25.0607112,10.4137931 L21.3793103,19.6720256 L22.7983869,19.6720256 L23.8739181,16.6411662 L26.725735,16.6411662 L27.809074,19.6781609 L29.2183908,19.6781609 L25.6872911,10.4219736 L25.0607112,10.4137931 Z M26.2923994,15.4140976 L24.3228694,15.4140976 L25.2637153,12.988592 C25.2745487,12.9618554 25.3004947,12.9453802 25.32813,12.9476897 C25.356177,12.9457205 25.3825125,12.9619513 25.3944967,12.988592 L26.2923994,15.4140976 Z" id="形状" fill="#040000" fill-rule="nonzero"></path>
        <path d="M38.4827586,14.5048132 C39.0641469,14.5470115 39.6021586,14.8543223 39.9643208,15.3510776 L40.0011552,15.4022989 L41.3333333,15.4022989 L41.2514791,15.2130029 C40.7296243,14.0572741 39.6653412,13.308228 38.4827586,13.2643678 L38.4827586,14.5048132 Z" id="路径" fill="#040000" fill-rule="nonzero"></path>
        <path d="M36.8171851,16.1149425 C36.9266821,15.2537705 37.5960751,14.5545324 38.4827586,14.375109 L38.4827586,13.2643678 C36.9341411,13.4232276 35.7303503,14.6270184 35.6321839,16.1149425 L36.8171851,16.1149425 Z" id="路径" fill="#040000" fill-rule="nonzero"></path>
        <path d="M40.7396517,17.6648317 L40.7030827,17.7160514 C40.1889845,18.4021357 39.3006356,18.7222539 38.4492373,18.5282289 C37.5978391,18.3342038 36.9495386,17.6638987 36.8044229,16.8275862 L35.6321839,16.8275862 C35.8008075,18.4981372 37.1355754,19.6781609 38.9294871,19.6781609 C40.3414561,19.6781609 41.483221,18.9847246 41.9769023,17.8263709 L42.045977,17.6648317 L40.7396517,17.6648317 Z" id="路径" fill="#040000" fill-rule="nonzero"></path>
        <path d="M7.55269822,17.7609409 C10.8552199,13.9717613 14.2271223,11.6345293 17.1034483,10.5677512 L17.0816429,4.88499019 C17.0593112,4.50896396 16.8188535,4.18265368 16.4703158,4.05539596 C16.1217781,3.92813823 15.7322263,4.02442012 15.4799397,4.30017802 L12.9584465,7.07097775 L0.368821458,21.4916392 C0.0232151224,21.8857306 -0.0894678188,22.437454 0.0732192079,22.9389805 C0.235906234,23.4405071 0.649247199,23.815643 1.15754056,23.9230783 C1.66583392,24.0305135 2.19185783,23.853926 2.53746417,23.4598346 L7.5467513,17.7690073 L7.55269822,17.7609409 Z" id="路径" fill="#C31D20" fill-rule="nonzero"></path>
        <path d="M10.6896552,16.0927463 L15.1004089,21.5535201 C15.4511303,21.8402432 15.9409156,21.8973222 16.3502521,21.6991755 C16.7595885,21.5010287 17.0117165,21.0848129 16.993637,20.6370685 L17.1034483,14.0202479 C14.5615201,13.7586898 12.477139,14.7130773 10.6896552,16.0927463 Z" id="路径" fill="#C31D20" fill-rule="nonzero"></path>
    </g>
</svg>