<?xml version="1.0" encoding="UTF-8"?>
<svg width="110px" height="110px" viewBox="0 0 110 110" version="1.1" xmlns="http://www.w3.org/2000/svg" xmlns:xlink="http://www.w3.org/1999/xlink">
    <title>1-icon/备份SD卡</title>
    <g id="1-icon/备份SD卡" stroke="none" stroke-width="1" fill="none" fill-rule="evenodd">
        <g id="Group-2" transform="translate(4.000000, 4.000000)">
            <g id="Group">
                <path d="M11.0759939,0.859054215 L0.648423823,12.5756339 C0.230751772,13.0449367 1.6994187e-15,13.6513016 0,14.2795492 L0,34.277497 C1.7334741e-16,35.692986 1.14748058,36.8404666 2.5629696,36.8404666 L4.49813242,36.8404666 C5.91362144,36.8404666 7.06110202,37.9879471 7.06110202,39.4034362 L7.06110202,58.8351277 C7.06110202,60.2506168 5.91362144,61.3980973 4.49813242,61.3980973 L2.5629696,61.3980973 C1.14748058,61.3980973 -1.7334741e-16,62.5455779 0,63.9610669 L0,90.4370304 C-6.92580421e-15,91.8525194 1.14748058,93 2.5629696,93 L67.4370304,93 C68.8525194,93 70,91.8525194 70,90.4370304 L70,2.5629696 C70,1.14748058 68.8525194,7.72730892e-15 67.4370304,0 L12.9905397,0 C12.2590051,-1.6419761e-15 11.5623334,0.31259569 11.0759939,0.859054215 Z" id="Path-Copy" fill="#DFE5EF"></path>
                <g id="SD" transform="translate(39.942276, 32.214167)" fill="#FFFFFF" fill-rule="nonzero">
                    <path d="M10.4172377,10.0973889 C10.4172377,11.0446111 10.1797814,11.8371204 9.70486883,12.4749167 C9.22995628,13.112713 8.61318673,13.5831667 7.85456019,13.8862778 C7.09593364,14.1893889 6.28488169,14.3409444 5.42140432,14.3409444 C4.16319444,14.3409444 3.02833848,14.0409907 2.01683642,13.4410833 C1.00533436,12.8411759 0.333055556,11.9918333 0,10.8930556 L2.1833642,9.62377778 C2.47941358,10.331037 2.91115226,10.8804259 3.47858025,11.2719444 C4.04600823,11.663463 4.72445473,11.8592222 5.51391975,11.8592222 C6.15536008,11.8592222 6.66419496,11.7266111 7.04042438,11.4613889 C7.41665381,11.1961667 7.60476852,10.810963 7.60476852,10.3057778 C7.60476852,9.90162963 7.47833076,9.56694444 7.22545525,9.30172222 C6.97257973,9.0365 6.65802726,8.82811111 6.28179784,8.67655556 C5.90556842,8.525 5.39056584,8.34818519 4.73679012,8.14611111 C3.86097737,7.88088889 3.14552469,7.61882407 2.5904321,7.35991667 C2.03533951,7.10100926 1.56042695,6.71264815 1.16569444,6.19483333 C0.770961934,5.67701852 0.573595679,4.99501852 0.573595679,4.14883333 C0.573595679,3.25212963 0.804884259,2.49119444 1.26746142,1.86602778 C1.73003858,1.24086111 2.34064043,0.773564815 3.09926698,0.464138889 C3.85789352,0.154712963 4.67511317,0 5.55092593,0 C6.74745885,0 7.7712963,0.277851852 8.62243827,0.833555556 C9.47358025,1.38925926 10.0225051,2.14072222 10.269213,3.08794444 L8.08584877,4.35722222 C7.86381173,3.76362963 7.53075617,3.29949074 7.0866821,2.96480556 C6.64260802,2.63012037 6.08751543,2.46277778 5.42140432,2.46277778 C4.81697016,2.46277778 4.32663837,2.60486111 3.95040895,2.88902778 C3.57417953,3.17319444 3.38606481,3.54892593 3.38606481,4.01622222 C3.38606481,4.36985185 3.50325103,4.66349074 3.73762346,4.89713889 C3.97199588,5.13078704 4.27112912,5.32023148 4.63502315,5.46547222 C4.99891718,5.61071296 5.48924897,5.77805556 6.10601852,5.9675 C6.99416667,6.23272222 7.72812243,6.50110185 8.3078858,6.77263889 C8.88764918,7.04417593 9.38414866,7.44832407 9.79738426,7.98508333 C10.2106199,8.52184259 10.4172377,9.22594444 10.4172377,10.0973889 Z" id="Path"></path>
                    <path d="M16.7452932,0.246277778 C18.06518,0.246277778 19.2586291,0.517814815 20.3256404,1.06088889 C21.3926517,1.60396296 22.2345422,2.39647222 22.8513117,3.43841667 C23.4680813,4.48036111 23.776466,5.72122222 23.776466,7.161 C23.776466,8.60077778 23.4680813,9.8447963 22.8513117,10.8930556 C22.2345422,11.9413148 21.3957356,12.7401389 20.334892,13.2895278 C19.2740484,13.8389167 18.0775154,14.1136111 16.7452932,14.1136111 L12.2305401,14.1136111 L12.2305401,0.246277778 L16.7452932,0.246277778 Z M16.4307407,11.7645 C17.8863169,11.7645 19.0026698,11.3666667 19.7797994,10.571 C20.556929,9.77533333 20.9454938,8.63866667 20.9454938,7.161 C20.9454938,5.70859259 20.5538452,4.58139815 19.7705478,3.77941667 C18.9872505,2.97743519 17.8739815,2.57644444 16.4307407,2.57644444 L14.9134877,2.57644444 L14.9134877,11.7645 L16.4307407,11.7645 Z" id="Shape"></path>
                </g>
                <rect id="Rectangle-Copy-5" stroke="#FFFFFF" stroke-width="1.7086464" fill="#FFFFFF" x="61.0145447" y="8.6043232" width="1.65555113" height="11.2080203" rx="0.827775565"></rect>
                <rect id="Rectangle-Copy-4" stroke="#FFFFFF" stroke-width="1.7086464" fill="#FFFFFF" x="55.1282883" y="8.6043232" width="1.65555113" height="11.2080203" rx="0.827775565"></rect>
                <rect id="Rectangle-Copy-3" stroke="#FFFFFF" stroke-width="1.7086464" fill="#FFFFFF" x="49.242032" y="8.6043232" width="1.65555113" height="11.2080203" rx="0.827775565"></rect>
                <rect id="Rectangle-Copy-2" stroke="#FFFFFF" stroke-width="1.7086464" fill="#FFFFFF" x="43.3557756" y="8.6043232" width="1.65555113" height="11.2080203" rx="0.827775565"></rect>
                <rect id="Rectangle-Copy" stroke="#FFFFFF" stroke-width="1.7086464" fill="#FFFFFF" x="37.4695193" y="8.6043232" width="1.65555113" height="11.2080203" rx="0.827775565"></rect>
                <rect id="Rectangle" stroke="#FFFFFF" stroke-width="1.7086464" fill="#FFFFFF" x="31.5832629" y="8.6043232" width="1.65555113" height="11.2080203" rx="0.827775565"></rect>
            </g>
            <rect id="Rectangle" stroke="#FFFFFF" stroke-width="2.06" fill="#EBEFF6" x="17.5005882" y="67.1633333" width="47.3517647" height="20.6733333" rx="2.06"></rect>
        </g>
        <g id="Group-3" transform="translate(60.000000, 61.000000)">
            <path d="M43.8,20.6079533 C45.0150264,20.6079533 46,21.5929268 46,22.8079533 L46,42.8 C46,44.0150264 45.0150264,45 43.8,45 L2.2,45 C0.98497355,45 -2.95291385e-16,44.0150264 0,42.8 L0,22.8079533 C-5.92887035e-16,21.5929268 0.98497355,20.6079533 2.2,20.6079533 L12.1017581,20.6073272 C12.0659518,20.9721979 12.047619,21.342273 12.047619,21.7166827 C12.047619,27.8400261 16.951167,32.8039766 23,32.8039766 C29.048833,32.8039766 33.952381,27.8400261 33.952381,21.7166827 C33.952381,21.342273 33.9340482,20.9721979 33.8982419,20.6073272 L43.8,20.6079533 Z" id="Combined-Shape" fill="#C3CEDF"></path>
            <path d="M43.8086623,20.6079533 C45.0150264,20.6079533 46,21.5929268 46,22.8079533 L46,42.8 C46,44.0150264 45.0150264,45 43.8,45 L2.2,45 C1.38241597,45 0.668996747,44.5540174 0.289749484,43.8920594 L43.8095238,43.8912706 L43.8086623,20.6079533 Z" id="Combined-Shape" fill="#BAC6D8"></path>
            <path d="M36.1428571,21.7166827 C36.1428571,29.0646947 30.2585996,35.0214354 23,35.0214354 C15.7414004,35.0214354 9.85714286,29.0646947 9.85714286,21.7166827 C9.85714286,21.3431474 9.87234887,20.9732074 9.90216843,20.6074624 L12.1017581,20.6073272 C12.0659518,20.9721979 12.047619,21.342273 12.047619,21.7166827 C12.047619,27.8400261 16.951167,32.8039766 23,32.8039766 C29.048833,32.8039766 33.952381,27.8400261 33.952381,21.7166827 C33.952381,21.342273 33.9340482,20.9721979 33.8982419,20.6073272 L36.0978316,20.6074624 C36.1276511,20.9732074 36.1428571,21.3431474 36.1428571,21.7166827 Z" id="Combined-Shape" fill="#B3BFD3" fill-rule="nonzero"></path>
            <path d="M23.0047619,3.81550771 C23.2206904,3.81550771 23.4318435,3.87905878 23.611902,3.99823954 L34.757047,11.3752146 C35.2636402,11.7105289 35.4024893,12.3930297 35.0671751,12.8996229 C34.9856649,13.0227686 34.8801927,13.1282408 34.757047,13.209751 L23.611902,20.5867261 C23.1053088,20.9220403 22.422808,20.7831912 22.0874937,20.276598 C21.968313,20.0965396 21.9047619,19.8853864 21.9047619,19.6694579 L21.904381,15.6181869 L12.052381,15.618671 C11.4448677,15.618671 10.952381,15.1261842 10.952381,14.518671 L10.952381,10.0662946 C10.952381,9.4587814 11.4448677,8.96629463 12.052381,8.96629463 L21.904381,8.96618692 L21.9047619,4.91550771 C21.9047619,4.30799448 22.3972487,3.81550771 23.0047619,3.81550771 Z" id="Combined-Shape-Copy" fill="#BAC6D8" transform="translate(23.094625, 12.292546) rotate(-270.000000) translate(-23.094625, -12.292546) "></path>
            <path d="M22.9994936,0.15 L22.999679,24.4439266 C22.8224255,24.4287211 22.646345,24.3702035 22.4875487,24.2650961 C22.364403,24.1835859 22.2589308,24.0781138 22.1774206,23.954968 L14.8004455,12.809823 C14.4651313,12.3032298 14.6039804,11.620729 15.1105736,11.2854148 C15.2906321,11.166234 15.5017852,11.1026829 15.7177137,11.1026829 L19.7689847,11.102302 L19.7685006,1.25030198 C19.7685006,0.642788752 20.2609874,0.150301977 20.8685006,0.150301977 L22.9994936,0.15 Z" id="Combined-Shape" fill="#C3CEDF"></path>
        </g>
    </g>
</svg>