<?xml version="1.0" encoding="UTF-8"?>
<svg width="16px" height="16px" viewBox="0 0 16 16" version="1.1" xmlns="http://www.w3.org/2000/svg" xmlns:xlink="http://www.w3.org/1999/xlink">
    <title>文件夹</title>
    <g id="文件夹" stroke="none" stroke-width="1" fill="none" fill-rule="evenodd">
        <g id="文件夹-copy" transform="translate(0.000000, 1.000000)" fill-rule="nonzero">
            <path d="M14.9996509,1 L5.99996675,1 C5.99996675,0.44787234 5.55232317,0 4.99988363,0 L1.00008312,0 C0.447909567,0 0,0.447606383 0,1 L0,3.99973404 C0,4.55239362 0.447643587,5 1.00008312,5 L14.9999169,5 C15.5520904,5 16,4.55239362 16,3.99973404 L16,2 C15.999734,1.44760638 15.5520904,1 14.9996509,1 Z" id="Path" fill="#CCA352"></path>
            <path d="M13.0715873,2 L1.92865964,2 C1.41592097,2 1,2.44756671 1,2.99991136 L1,3.99982271 C1,4.55243329 1.41567398,5 1.92865964,5 L13.0713404,5 C13.584079,5 14,4.55243329 14,3.99982271 L14,2.99991136 C14,2.44783264 13.584326,2 13.0715873,2 Z" id="Path" fill="#FFFFFF"></path>
            <path d="M14.9996509,3 L1.00008312,3 C0.447909567,3 0,3.41032404 0,3.9167073 L0,13.0832927 C0,13.5889445 0.447643587,14 1.00008312,14 L14.9999169,14 C15.5520904,14 16,13.5891884 16,13.0832927 L16,3.9164635 C15.999734,3.41032404 15.5520904,3 14.9996509,3 Z" id="Path" fill="#FFCC66"></path>
        </g>
    </g>
</svg>