<?xml version="1.0" encoding="UTF-8"?>
<svg width="16px" height="16px" viewBox="0 0 16 16" version="1.1" xmlns="http://www.w3.org/2000/svg" xmlns:xlink="http://www.w3.org/1999/xlink">
    <title>链接</title>
    <g id="链接" stroke="none" stroke-width="1" fill="none" fill-rule="evenodd">
        <g id="Group-32" fill-rule="nonzero">
            <rect id="Rectangle" fill="#171D35" x="2" y="4" width="11" height="10"></rect>
            <g id="复制链接（面）">
                <path d="M13.12,1.6 L1.28,1.6 C0.574,1.6 0,2.174 0,2.88 L0,14.72 C0,15.426 0.574,16 1.28,16 L13.12,16 C13.826,16 14.4,15.426 14.4,14.72 L14.4,2.88 C14.4,2.172 13.826,1.6 13.12,1.6 L13.12,1.6 Z M6.186,12.736 C5.756,13.166 5.184,13.404 4.574,13.404 C3.964,13.404 3.394,13.168 2.962,12.736 C2.532,12.306 2.294,11.734 2.294,11.124 C2.294,10.516 2.53,9.944 2.962,9.512 L4.498,7.976 C4.748,7.726 5.154,7.726 5.404,7.976 C5.654,8.226 5.654,8.632 5.404,8.882 L3.868,10.418 C3.68,10.606 3.576,10.858 3.576,11.124 C3.576,11.39 3.68,11.642 3.868,11.83 C4.056,12.018 4.308,12.122 4.574,12.122 C4.84,12.122 5.092,12.018 5.28,11.83 L7.15,9.96 C7.49,9.62 7.54,9.086 7.27,8.692 C7.07,8.4 7.144,8.002 7.436,7.802 C7.728,7.602 8.126,7.676 8.326,7.968 C8.944,8.872 8.83,10.092 8.056,10.866 L6.186,12.736 Z M11.436,8.086 L9.9,9.622 C9.65,9.872 9.244,9.872 8.994,9.622 C8.744,9.372 8.744,8.966 8.994,8.716 L10.53,7.18 C10.718,6.992 10.822,6.74 10.822,6.474 C10.822,6.208 10.718,5.956 10.53,5.768 C10.14,5.378 9.508,5.378 9.118,5.768 L7.248,7.638 C6.908,7.978 6.858,8.512 7.128,8.906 C7.328,9.198 7.254,9.596 6.962,9.796 C6.852,9.872 6.726,9.908 6.602,9.908 C6.398,9.908 6.198,9.81 6.074,9.63 C5.456,8.726 5.57,7.508 6.344,6.734 L8.214,4.864 C9.102,3.976 10.548,3.976 11.436,4.864 C11.866,5.294 12.104,5.866 12.104,6.476 C12.104,7.084 11.866,7.656 11.436,8.086 L11.436,8.086 Z" id="Shape" fill="#FFCC66"></path>
                <path d="M14.72,0 L2.88,0 C2.174,0 1.6,0.574 1.6,1.28 L1.6,1.6 L13.12,1.6 C13.826,1.6 14.4,2.174 14.4,2.88 L14.4,14.4 L14.72,14.4 C15.426,14.4 16,13.826 16,13.12 L16,1.28 C16,0.572 15.426,0 14.72,0 Z" id="Path" fill="#FFFFFF"></path>
            </g>
        </g>
    </g>
</svg>