<?xml version="1.0" encoding="UTF-8"?>
<svg width="110px" height="110px" viewBox="0 0 110 110" version="1.1" xmlns="http://www.w3.org/2000/svg" xmlns:xlink="http://www.w3.org/1999/xlink">
    <title>1-icon/emptySDcard</title>
    <defs>
        <path d="M24.1223015,29.867017 L24.3152773,29.867017 C25.168472,29.867017 25.860123,30.558668 25.860123,31.4118627 C25.860123,32.2650574 25.168472,32.9567084 24.3152773,32.9567084 L24.1223015,32.9567084 C23.2691067,32.9567084 22.5774558,32.2650574 22.5774558,31.4118627 C22.5774558,30.558668 23.2691067,29.867017 24.1223015,29.867017 Z M24.841332,27.2280538 C24.77649,26.8665024 24.7440691,26.5695137 24.7440691,26.3370877 C24.7440691,25.8593233 24.8316057,25.4299809 25.0066788,25.0490607 C25.181752,24.6681404 25.3957304,24.3420984 25.6486138,24.0709348 C25.9014973,23.7997712 26.2419174,23.4769574 26.669874,23.1024934 C27.0978307,22.7280294 27.4382508,22.4052156 27.6911343,22.134052 C27.9440177,21.8628884 28.1579961,21.5400746 28.3330692,21.1656106 C28.5081424,20.7911466 28.595679,20.3714887 28.595679,19.9066368 C28.595679,19.2480966 28.4206058,18.6573474 28.0704595,18.134389 C27.7203131,17.6114307 27.2372408,17.2046853 26.6212426,16.9141528 C26.0052444,16.6236204 25.3017096,16.4783542 24.5106382,16.4783542 C23.421294,16.4783542 22.4616336,16.7527459 21.631657,17.3015294 C20.8016805,17.8503129 20.211619,18.6218379 19.8614726,19.6161044 C19.7793955,20.2746838 19.9554553,20.6813624 20.389652,20.8361404 C20.8238487,20.9909183 21.192461,20.9005972 21.495489,20.5651769 C21.7937618,19.8291615 22.1828133,19.280378 22.6626435,18.9188266 C23.1424737,18.5572751 23.69363,18.3764994 24.3161124,18.3764994 C24.9256265,18.3764994 25.418425,18.5346781 25.7945082,18.8510357 C26.1705913,19.1673932 26.3586328,19.5902793 26.3586328,20.1196939 C26.3586328,20.5587207 26.2386753,20.939641 25.9987602,21.2624548 C25.7588451,21.5852686 25.3860041,21.9661888 24.8802371,22.4052156 C24.4652488,22.7538545 24.131313,23.0669839 23.8784295,23.3446038 C23.625546,23.6222237 23.4115677,23.95795 23.2364945,24.3517828 C23.0614213,24.7456157 22.9738847,25.2007831 22.9738847,25.7172852 C22.9738847,26.2208748 23.051695,26.7244643 23.2073156,27.2280538 C23.3125937,27.6141664 23.6096282,27.8072227 24.0984192,27.8072227 C24.5872102,27.8072227 24.8348478,27.6141664 24.841332,27.2280538 Z" id="path-1"></path>
    </defs>
    <g id="1-icon/emptySDcard" stroke="none" stroke-width="1" fill="none" fill-rule="evenodd">
        <g id="Group-2" transform="translate(4.000000, 46.000000)">
            <rect id="Rectangle" fill="#DFE5EF" x="0" y="0" width="69" height="46.4516129" rx="1.944"></rect>
            <path d="M47.6197183,49.3548387 L47.6188028,56.1288387 L54.4307133,56.1290323 C55.4996515,56.1290323 56.3661972,56.9955779 56.3661972,58.0645161 C56.3661972,59.1334544 55.4996515,60 54.4307133,60 L14.5692867,60 C13.5003485,60 12.6338028,59.1334544 12.6338028,58.0645161 C12.6338028,56.9955779 13.5003485,56.1290323 14.5692867,56.1290323 L22.3518028,56.1288387 L22.3521127,49.3548387 L47.6197183,49.3548387 Z" id="Combined-Shape" fill="#DFE5EF"></path>
            <path d="M34.985,0 L34.985,46.451 L1.944,46.4516129 C0.870358446,46.4516129 1.01966159e-15,45.5812545 0,44.5076129 L0,1.944 C-1.31483169e-16,0.870358446 0.870358446,6.41313964e-16 1.944,0 L34.985,0 Z" id="Combined-Shape" fill="#EBEFF6"></path>
            <rect id="Rectangle" fill="#DFE5EF" x="22.3521127" y="41.6129032" width="25.2676056" height="1.93548387" rx="0.967741935"></rect>
            <path d="M34.9858028,49.3548387 L34.9858028,59.9998387 L14.5692867,60 C13.5003485,60 12.6338028,59.1334544 12.6338028,58.0645161 C12.6338028,56.9955779 13.5003485,56.1290323 14.5692867,56.1290323 L22.3518028,56.1288387 L22.3521127,49.3548387 L34.9858028,49.3548387 Z" id="Combined-Shape" fill="#EBEFF6"></path>
            <path d="M46.6519764,41.6129032 C47.1864455,41.6129032 47.6197183,42.046176 47.6197183,42.5806452 C47.6197183,43.1151143 47.1864455,43.5483871 46.6519764,43.5483871 L34.9859155,43.5479032 L34.9859155,41.6129032 L46.6519764,41.6129032 Z" id="Combined-Shape" fill="#C3CEDF"></path>
            <rect id="Rectangle" fill="#F4F6FA" x="2.91549296" y="2.90322581" width="63.1690141" height="35.8064516"></rect>
            <polygon id="Rectangle" fill="#EBEFF6" points="34.9951542 2.90322581 66.084507 2.90322581 66.084507 38.7096774 35.0879572 38.7096774"></polygon>
        </g>
        <g id="Group-3" transform="translate(84.969519, 75.361264)" stroke="#B3BFD3" stroke-linecap="round" stroke-width="2">
            <polyline id="Path-24" points="9.47922439 -1.18256465e-13 9.47922439 10.9314193 1.04344536 10.9314193"></polyline>
            <polyline id="Path-25" transform="translate(2.696985, 10.490422) rotate(-345.000000) translate(-2.696985, -10.490422) " points="3.580272 8.1157968 0.541139493 11.4052321 4.85282962 12.8650465"></polyline>
        </g>
        <g id="Group" transform="translate(56.000000, 4.000000)">
            <path d="M7.11564408,1.42373126 L1.11468763,8.06501413 C0.397214363,8.8590447 1.64529946e-15,9.89111818 0,10.9612829 L0,23.2434167 C1.69446666e-16,24.6270537 1.12165944,25.7487132 2.50529647,25.7487132 C3.8889335,25.7487132 5.01059294,26.8703726 5.01059294,28.2540097 L5.01059294,40.4073522 C5.01059294,41.7909892 3.8889335,42.9126487 2.50529647,42.9126487 C1.12165944,42.9126487 -1.69446666e-16,44.0343081 0,45.4179452 L0,60.68 C-2.88643271e-15,63.0658701 1.93412988,65 4.32,65 L45.3523464,65 C47.7382165,65 49.6723464,63.0658701 49.6723464,60.68 L49.6723464,4.32 C49.6723464,1.93412988 47.7382165,1.33807961e-15 45.3523464,0 L10.3209564,0 C9.09926932,2.88895554e-15 7.93470293,0.517275506 7.11564408,1.42373126 Z" id="Path-Copy" fill="#F4F6FA"></path>
            <path d="M7.50872929,0.988702265 L0.774088631,8.44195642 C0.275843308,8.99336654 1.11819469e-13,9.71008424 1.13686838e-13,10.4532542 L1.13686838e-13,23.2434167 C1.13856284e-13,24.6270537 1.12165944,25.7487132 2.50529647,25.7487132 C3.8889335,25.7487132 5.01059294,26.8703726 5.01059294,28.2540097 L5.01059294,40.4073522 C5.01059294,41.7909892 3.8889335,42.9126487 2.50529647,42.9126487 C1.12165944,42.9126487 1.13517391e-13,44.0343081 1.13686838e-13,45.4179452 L1.13686838e-13,62 C1.06975922e-13,63.6568542 1.34314575,65 3,65 L46.6723464,65 C48.3292007,65 49.6723464,63.6568542 49.6723464,62 L49.6723464,3 C49.6723464,1.34314575 48.3292007,-3.04359188e-16 46.6723464,0 L9.73464065,0 C8.88624682,5.9993663e-16 8.07752016,0.359219101 7.50872929,0.988702265 Z" id="Path-Copy" fill="#F4F6FA"></path>
            <path d="M44.856,65 L39.856,65 L39.8567488,67 L44.8567488,67 L44.856,65 Z M34.856,65 L29.856,65 L29.8567488,67 L34.8567488,67 L34.856,65 Z M24.856,65 L19.856,65 L19.8567488,67 L24.8567488,67 L24.856,65 Z M14.856,65 L9.856,65 L9.8567488,67 L14.8567488,67 L14.856,65 Z M3,65 C1.83947745,65 0.832864198,64.341036 0.333919405,63.3768671 L-1.44201893,64.2966733 C-0.58988409,65.9427915 1.11179685,67 3,67 L4.8567488,67 L4.856,65 L3,65 Z M51.6723464,58.4077988 L49.672,58.407 L49.6723464,62 C49.6723464,62.4931114 49.5533745,62.9584354 49.3425688,63.3688337 L51.1217456,64.2823598 C51.4817371,63.5814122 51.6723464,62.8022279 51.6723464,62 L51.6723464,58.4077988 Z M1.13686838e-13,53.448 L-2,53.44895 L-2,58.44895 L1.13686838e-13,58.448 L1.13686838e-13,53.448 Z M51.6723464,48.4077988 L49.672,48.407 L49.672,53.407 L51.6723464,53.4077988 L51.6723464,48.4077988 Z M-0.608632709,42.1620004 C-1.4901138,43.0051641 -2,44.1733428 -2,45.4179452 L-2,48.44895 L1.13686838e-13,48.448 L1.13686838e-13,45.4179452 C1.13686838e-13,44.7060702 0.296909455,44.0635423 0.773648484,43.6074411 L-0.608632709,42.1620004 Z M51.6723464,38.4077988 L49.672,38.407 L49.672,43.407 L51.6723464,43.4077988 L51.6723464,38.4077988 Z M5.01,36.12 L3.01059294,36.1201339 L3.01026279,40.4482896 L2.99998179,40.5139818 C2.99677363,40.5282752 2.99283625,40.5434626 2.98819682,40.5583764 L4.89780561,41.1528462 C4.97110423,40.9173571 5.01059294,40.6669662 5.01059294,40.4073522 L5.01,36.12 Z M51.6723464,28.4077988 L49.672,28.407 L49.672,33.407 L51.6723464,33.4077988 L51.6723464,28.4077988 Z M5.01059294,28.2540097 C5.01059294,27.4769047 4.65677808,26.7824375 4.10145203,26.322912 L2.82653317,27.8638799 C2.94379784,27.9609776 3.01059294,28.0998958 3.01059294,28.2540097 L3.01059294,31.1202864 L5.01,31.12 L5.01059294,28.2540097 Z M3.53281759e-09,18.779 L-2,18.779696 L-1.99973248,23.2805252 C-1.99483836,23.6330401 -1.95566842,23.9531797 -1.88316549,24.2652461 L0.0650987179,23.8132867 C0.0225144991,23.6302184 3.53281759e-09,23.4394468 3.53281759e-09,23.2434167 L3.53281759e-09,18.779 Z M51.6723464,18.4077988 L49.672,18.407 L49.672,23.407 L51.6723464,23.4077988 L51.6723464,18.4077988 Z M-1.22186738,7.77446333 C-1.72932905,8.57424572 -2,9.5031047 -2,10.4532542 L-2,13.7795771 L1.13686838e-13,13.779 L1.13686838e-13,10.4532542 C1.13686838e-13,9.88045989 0.16386399,9.32337951 0.4671234,8.84558914 L-1.22186738,7.77446333 Z M51.6723464,8.40779881 L49.672,8.407 L49.672,13.407 L51.6723464,13.4077988 L51.6723464,8.40779881 Z M5.67170007,0.0386013663 L2.31953718,3.74845365 L3.803,5.089 L7.155,1.379 L5.67170007,0.0386013663 Z M46.6723464,-2 L41.7723696,-2 L41.772,0 L46.6723464,0 C48.3292007,0 49.6723464,1.34314575 49.6723464,3 L49.672,3.407 L51.6723464,3.40779881 L51.6723464,3 C51.6723464,0.311245297 49.5500397,-1.88181811 46.889236,-1.99538049 L46.6723464,-2 Z M16.7723696,-2 L11.7723696,-2 L11.772,0 L16.772,0 L16.7723696,-2 Z M26.7723696,-2 L21.7723696,-2 L21.772,0 L26.772,0 L26.7723696,-2 Z M36.7723696,-2 L31.7723696,-2 L31.772,0 L36.772,0 L36.7723696,-2 Z" id="Path-Copy" fill="#C3CEDF" fill-rule="nonzero"></path>
            <g id="Please-insert-SD-car" transform="translate(5.573239, 44.508623)" fill="#B3BFD3" fill-rule="nonzero">
                <path d="M1.61769841,0.187735535 C1.99002583,0.187735535 2.31527736,0.252471927 2.59345301,0.38194471 C2.87162866,0.511417493 3.08667984,0.693758329 3.23860654,0.928967218 C3.39053325,1.16417611 3.4664966,1.43930577 3.4664966,1.75435621 C3.4664966,2.06509089 3.39053325,2.33806267 3.23860654,2.57327156 C3.08667984,2.80848045 2.87162866,2.98974235 2.59345301,3.11705725 C2.31527736,3.24437215 1.99002583,3.30802961 1.61769841,3.30802961 L0.930818531,3.30802961 L0.930818531,4.92643939 L0,4.92643939 L0,0.187735535 L1.61769841,0.187735535 Z M1.5149874,2.51177199 C1.80600193,2.51177199 2.03924152,2.44811454 2.21470616,2.32079964 C2.3901708,2.19348473 2.47790312,2.00467026 2.47790312,1.75435621 C2.47790312,1.50404216 2.3901708,1.31306981 2.21470616,1.18143915 C2.03924152,1.04980848 1.80600193,0.983993151 1.5149874,0.983993151 L0.930818531,0.983993151 L0.930818531,2.51177199 L1.5149874,2.51177199 Z" id="Shape"></path>
                <polygon id="Path" points="4.90445074 4.92643939 4.01214884 4.92643939 4.01214884 0 4.90445074 0"></polygon>
                <path d="M7.20902904,1.488937 C7.50432319,1.488937 7.76645025,1.55475234 7.99541021,1.686383 C8.22437017,1.81801366 8.40197463,2.00359132 8.52822358,2.24311597 C8.65447253,2.48264061 8.717597,2.75777028 8.717597,3.06850496 C8.717597,3.20660926 8.70475813,3.34687144 8.67908037,3.4892915 L6.47079365,3.4892915 C6.50931028,3.73960555 6.59918241,3.92842003 6.74041005,4.05573493 C6.88163769,4.18304983 7.05710233,4.24670728 7.26680398,4.24670728 C7.41659087,4.24670728 7.55032917,4.21326015 7.66801886,4.14636588 C7.78570856,4.07947161 7.8766506,3.9791302 7.94084499,3.84534166 L8.59562768,4.23376001 C8.50575554,4.47975829 8.33350062,4.66965171 8.07886291,4.80344025 C7.82422519,4.93722879 7.54070001,5.00412306 7.22828735,5.00412306 C6.92871357,5.00412306 6.65053792,4.93722879 6.39376039,4.80344025 C6.13698287,4.66965171 5.93049094,4.46896889 5.77428461,4.20139181 C5.61807828,3.93381472 5.53997512,3.61229065 5.53997512,3.23681958 C5.53997512,2.86566426 5.61807828,2.54845595 5.77428461,2.28519462 C5.93049094,2.0219333 6.13484305,1.82340836 6.38734095,1.68961982 C6.63983886,1.55583128 6.91373488,1.488937 7.20902904,1.488937 Z M7.18335128,2.22045823 C7.00788664,2.22045823 6.85809975,2.2765631 6.73399061,2.38877285 C6.60988148,2.50098259 6.52642878,2.65850781 6.48363253,2.86134851 L7.80603679,2.86134851 C7.78891828,2.65419205 7.723654,2.49558789 7.61024392,2.38553603 C7.49683385,2.27548416 7.3545363,2.22045823 7.18335128,2.22045823 Z" id="Shape"></path>
                <path d="M10.7140423,1.488937 C11.1634029,1.488937 11.5143322,1.61733085 11.7668301,1.87411853 C12.019328,2.13090622 12.145577,2.49666683 12.145577,2.97140037 L12.145577,4.92643939 L11.3945027,4.92643939 C11.3902231,4.89191332 11.3848736,4.83472951 11.3784541,4.75488796 C11.3720347,4.67504641 11.3624055,4.60491532 11.3495666,4.54449468 C11.2511353,4.69986202 11.1238164,4.81530859 10.9676101,4.89083438 C10.8114037,4.96636017 10.6220303,5.00412306 10.3994898,5.00412306 C10.16839,5.00412306 9.95761847,4.96312335 9.76717514,4.88112392 C9.57673181,4.79912449 9.42587501,4.67936217 9.31460475,4.52183695 C9.20333449,4.36431173 9.14769936,4.17765513 9.14769936,3.96186716 C9.14769936,3.73744767 9.21082383,3.54215956 9.33707278,3.37600282 C9.46332173,3.20984608 9.63343684,3.08145224 9.84741812,2.99082129 C10.0613994,2.90019034 10.2967788,2.85487487 10.5535563,2.85487487 C10.7846561,2.85487487 11.0221753,2.8937167 11.2661139,2.97140037 C11.2532751,2.47508804 11.0435734,2.22693187 10.637009,2.22693187 C10.3117575,2.22693187 10.0742383,2.37366769 9.92445137,2.66713933 L9.288927,2.2981419 C9.40875651,2.04782785 9.5927804,1.85038186 9.84099868,1.70580392 C10.089217,1.56122598 10.3802315,1.488937 10.7140423,1.488937 Z M11.2661139,3.56697517 C11.0521327,3.51518606 10.865969,3.4892915 10.7076228,3.4892915 C10.4979212,3.4892915 10.3352954,3.5270544 10.2197455,3.60258019 C10.1041956,3.67810598 10.0464207,3.78492102 10.0464207,3.92302533 C10.0464207,4.04818235 10.0924267,4.14528694 10.1844386,4.21433909 C10.2764506,4.28339124 10.3952102,4.31791731 10.5407174,4.31791731 C10.7333006,4.31791731 10.9023458,4.26289138 11.047853,4.15283952 C11.1933603,4.04278765 11.2661139,3.89065713 11.2661139,3.69644796 L11.2661139,3.56697517 Z" id="Shape"></path>
                <path d="M15.3938127,3.92949897 C15.3938127,4.26181244 15.2664938,4.52399483 15.0118561,4.71604612 C14.7572184,4.90809742 14.4266173,5.00412306 14.0200529,5.00412306 C13.6691236,5.00412306 13.3663401,4.92859727 13.1117024,4.77754569 C12.8570647,4.62649411 12.6848098,4.41717978 12.5949376,4.1496027 L13.2433009,3.76765799 C13.3074953,3.92734109 13.4080665,4.05141917 13.5450145,4.13989224 C13.6819625,4.22836531 13.8424485,4.27260184 14.0264723,4.27260184 C14.1634204,4.27260184 14.2725508,4.24670728 14.3538637,4.19491817 C14.4351766,4.14312906 14.475833,4.06976115 14.475833,3.97481444 C14.475833,3.86692045 14.4223377,3.78384208 14.3153471,3.72557933 C14.2083564,3.66731658 14.041451,3.60581701 13.8146309,3.54108062 C13.5878107,3.47202847 13.4027169,3.40513419 13.2593495,3.3403978 C13.115982,3.27566141 12.9918729,3.18179364 12.8870221,3.0587945 C12.7821713,2.93579536 12.7297458,2.77503332 12.7297458,2.57650838 C12.7297458,2.35208889 12.7907305,2.15787972 12.9126998,1.99388086 C13.0346692,1.829882 13.1983648,1.70472498 13.4037868,1.61840979 C13.6092089,1.5320946 13.8338892,1.488937 14.0778279,1.488937 C14.4116386,1.488937 14.6940939,1.56122598 14.9251937,1.70580392 C15.1562935,1.85038186 15.3018007,2.04135421 15.3617155,2.27872098 L14.7133522,2.64771841 C14.5849635,2.36719405 14.3688424,2.22693187 14.064989,2.22693187 C13.9366002,2.22693187 13.8338892,2.25174748 13.7568559,2.30137872 C13.6798227,2.35100995 13.6413061,2.42114104 13.6413061,2.51177199 C13.6413061,2.61535022 13.6926616,2.69411283 13.7953726,2.74805982 C13.8980836,2.80200681 14.0585695,2.85919063 14.2768304,2.91961126 C14.5079302,2.98434765 14.6983735,3.04908404 14.8481604,3.11382043 C14.9979473,3.17855682 15.1263361,3.27674035 15.2333267,3.40837101 C15.3403174,3.54000168 15.3938127,3.71371099 15.3938127,3.92949897 Z" id="Path"></path>
                <path d="M17.4095163,1.488937 C17.7048104,1.488937 17.9669375,1.55475234 18.1958974,1.686383 C18.4248574,1.81801366 18.6024618,2.00359132 18.7287108,2.24311597 C18.8549597,2.48264061 18.9180842,2.75777028 18.9180842,3.06850496 C18.9180842,3.20660926 18.9052453,3.34687144 18.8795676,3.4892915 L16.6712809,3.4892915 C16.7097975,3.73960555 16.7996696,3.92842003 16.9408973,4.05573493 C17.0821249,4.18304983 17.2575895,4.24670728 17.4672912,4.24670728 C17.6170781,4.24670728 17.7508164,4.21326015 17.8685061,4.14636588 C17.9861958,4.07947161 18.0771378,3.9791302 18.1413322,3.84534166 L18.7961149,4.23376001 C18.7062428,4.47975829 18.5339878,4.66965171 18.2793501,4.80344025 C18.0247124,4.93722879 17.7411872,5.00412306 17.4287746,5.00412306 C17.1292008,5.00412306 16.8510251,4.93722879 16.5942476,4.80344025 C16.3374701,4.66965171 16.1309782,4.46896889 15.9747718,4.20139181 C15.8185655,3.93381472 15.7404623,3.61229065 15.7404623,3.23681958 C15.7404623,2.86566426 15.8185655,2.54845595 15.9747718,2.28519462 C16.1309782,2.0219333 16.3353303,1.82340836 16.5878282,1.68961982 C16.8403261,1.55583128 17.1142221,1.488937 17.4095163,1.488937 Z M17.3838385,2.22045823 C17.2083739,2.22045823 17.058587,2.2765631 16.9344778,2.38877285 C16.8103687,2.50098259 16.726916,2.65850781 16.6841197,2.86134851 L18.006524,2.86134851 C17.9894055,2.65419205 17.9241412,2.49558789 17.8107311,2.38553603 C17.6973211,2.27548416 17.5550235,2.22045823 17.3838385,2.22045823 Z" id="Shape"></path>
                <path d="M21.8577286,1.14583413 C21.6683998,1.14583413 21.5034543,1.0908082 21.3628921,0.980756332 C21.2223298,0.870704466 21.1520487,0.742310623 21.1520487,0.595574802 C21.1520487,0.444523222 21.2208955,0.315050439 21.3585891,0.207156453 C21.4962828,0.099262467 21.6626626,0.0453154741 21.8577286,0.0453154741 C22.0527945,0.0453154741 22.222043,0.100341407 22.3654738,0.210393272 C22.5089047,0.320445138 22.5806201,0.448838981 22.5806201,0.595574802 C22.5806201,0.742310623 22.5089047,0.870704466 22.3654738,0.980756332 C22.222043,1.0908082 22.0527945,1.14583413 21.8577286,1.14583413 Z M22.468744,4.92643939 L21.2725306,4.92643939 L21.2725306,1.57309431 L22.468744,1.57309431 L22.468744,4.92643939 Z" id="Shape"></path>
                <path d="M24.8689034,1.488937 C25.2369512,1.488937 25.5279657,1.61085721 25.741947,1.85469762 C25.9559282,2.09853803 26.0629189,2.45350924 26.0629189,2.91961126 L26.0629189,4.92643939 L25.170617,4.92643939 L25.170617,3.21092502 C25.170617,2.59808718 24.9694746,2.29166826 24.5671898,2.29166826 C24.3532085,2.29166826 24.1809536,2.37474663 24.050425,2.54090337 C23.9198964,2.70706011 23.8546321,2.94119005 23.8546321,3.24329322 L23.8546321,4.92643939 L22.9623302,4.92643939 L22.9623302,1.57309431 L23.7455017,1.57309431 C23.7668998,1.83635564 23.7861581,2.01545966 23.8032766,2.11040636 C24.0172579,1.69609346 24.3724668,1.488937 24.8689034,1.488937 Z" id="Path"></path>
                <path d="M29.3047351,3.92949897 C29.3047351,4.26181244 29.1774163,4.52399483 28.9227786,4.71604612 C28.6681409,4.90809742 28.3375398,5.00412306 27.9309754,5.00412306 C27.5800461,5.00412306 27.2772626,4.92859727 27.0226249,4.77754569 C26.7679872,4.62649411 26.5957322,4.41717978 26.5058601,4.1496027 L27.1542234,3.76765799 C27.2184177,3.92734109 27.3189889,4.05141917 27.4559369,4.13989224 C27.592885,4.22836531 27.7533709,4.27260184 27.9373948,4.27260184 C28.0743428,4.27260184 28.1834733,4.24670728 28.2647862,4.19491817 C28.346099,4.14312906 28.3867555,4.06976115 28.3867555,3.97481444 C28.3867555,3.86692045 28.3332602,3.78384208 28.2262695,3.72557933 C28.1192789,3.66731658 27.9523735,3.60581701 27.7255534,3.54108062 C27.4987332,3.47202847 27.3136394,3.40513419 27.170272,3.3403978 C27.0269045,3.27566141 26.9027954,3.18179364 26.7979445,3.0587945 C26.6930937,2.93579536 26.6406683,2.77503332 26.6406683,2.57650838 C26.6406683,2.35208889 26.701653,2.15787972 26.8236223,1.99388086 C26.9455916,1.829882 27.1092873,1.70472498 27.3147093,1.61840979 C27.5201313,1.5320946 27.7448117,1.488937 27.9887503,1.488937 C28.3225611,1.488937 28.6050164,1.56122598 28.8361162,1.70580392 C29.0672159,1.85038186 29.2127232,2.04135421 29.2726379,2.27872098 L28.6242747,2.64771841 C28.4958859,2.36719405 28.2797648,2.22693187 27.9759114,2.22693187 C27.8475227,2.22693187 27.7448117,2.25174748 27.6677784,2.30137872 C27.5907451,2.35100995 27.5522285,2.42114104 27.5522285,2.51177199 C27.5522285,2.61535022 27.603584,2.69411283 27.706295,2.74805982 C27.809006,2.80200681 27.969492,2.85919063 28.1877529,2.91961126 C28.4188527,2.98434765 28.609296,3.04908404 28.7590829,3.11382043 C28.9088698,3.17855682 29.0372585,3.27674035 29.1442492,3.40837101 C29.2512398,3.54000168 29.3047351,3.71371099 29.3047351,3.92949897 Z" id="Path"></path>
                <path d="M31.3204387,1.488937 C31.6157329,1.488937 31.8778599,1.55475234 32.1068199,1.686383 C32.3357798,1.81801366 32.5133843,2.00359132 32.6396333,2.24311597 C32.7658822,2.48264061 32.8290067,2.75777028 32.8290067,3.06850496 C32.8290067,3.20660926 32.8161678,3.34687144 32.79049,3.4892915 L30.5822033,3.4892915 C30.62072,3.73960555 30.7105921,3.92842003 30.8518197,4.05573493 C30.9930474,4.18304983 31.168512,4.24670728 31.3782137,4.24670728 C31.5280005,4.24670728 31.6617388,4.21326015 31.7794285,4.14636588 C31.8971182,4.07947161 31.9880603,3.9791302 32.0522547,3.84534166 L32.7070374,4.23376001 C32.6171652,4.47975829 32.4449103,4.66965171 32.1902726,4.80344025 C31.9356349,4.93722879 31.6521097,5.00412306 31.339697,5.00412306 C31.0401232,5.00412306 30.7619476,4.93722879 30.5051701,4.80344025 C30.2483925,4.66965171 30.0419006,4.46896889 29.8856943,4.20139181 C29.729488,3.93381472 29.6513848,3.61229065 29.6513848,3.23681958 C29.6513848,2.86566426 29.729488,2.54845595 29.8856943,2.28519462 C30.0419006,2.0219333 30.2462527,1.82340836 30.4987506,1.68961982 C30.7512485,1.55583128 31.0251446,1.488937 31.3204387,1.488937 Z M31.294761,2.22045823 C31.1192963,2.22045823 30.9695094,2.2765631 30.8454003,2.38877285 C30.7212912,2.50098259 30.6378385,2.65850781 30.5950422,2.86134851 L31.9174465,2.86134851 C31.900328,2.65419205 31.8350637,2.49558789 31.7216536,2.38553603 C31.6082435,2.27548416 31.465946,2.22045823 31.294761,2.22045823 Z" id="Shape"></path>
                <path d="M38.3818207,4.73223022 C38.1635598,4.91349212 37.8618462,5.00412306 37.4766799,5.00412306 C37.1171914,5.00412306 36.8272467,4.90809742 36.606846,4.71604612 C36.3864453,4.52399483 36.276245,4.17981301 36.276245,3.68350068 L36.276245,2.33051009 L35.7113344,2.33051009 L35.7113344,1.57309431 L36.276245,1.57309431 L36.276245,0.543785689 L37.1685469,0.543785689 L37.1685469,1.57309431 L38.1635598,1.57309431 L38.1635598,2.33051009 L37.1685469,2.33051009 L37.1685469,3.53460698 C37.1685469,3.76334223 37.2070635,3.93489366 37.2840967,4.04926129 C37.36113,4.16362891 37.4830993,4.22081273 37.6500047,4.22081273 C37.7997916,4.22081273 37.9410193,4.17549725 38.0736876,4.0848663 L38.3818207,4.73223022 Z M34.2541219,2.08451181 C34.4338662,1.68746194 34.7184613,1.488937 35.1079072,1.488937 C35.2405756,1.488937 35.3561255,1.51483156 35.4545569,1.56662067 L35.4545569,2.36935193 C35.3475662,2.30461554 35.2234571,2.27224734 35.0822295,2.27224734 C34.5686744,2.27224734 34.3118969,2.63692901 34.3118969,3.36629236 L34.3118969,4.92643939 L33.419595,4.92643939 L33.419595,1.57309431 L34.2027664,1.57309431 C34.2241646,1.83635564 34.2412831,2.00682814 34.2541219,2.08451181 Z" id="Shape"></path>
                <path d="M10.7365103,12.9702303 C10.7365103,13.2939123 10.6541275,13.5647262 10.4893619,13.782672 C10.3245964,14.0006179 10.1106151,14.1613799 9.84741812,14.2649581 C9.58422115,14.3685364 9.30283578,14.4203255 9.003262,14.4203255 C8.56674021,14.4203255 8.17301467,14.3178262 7.82208538,14.1128276 C7.4711561,13.907829 7.23791651,13.6175942 7.12236662,13.2421231 L7.87986032,12.8083893 C7.98257133,13.0500718 8.13235822,13.2378074 8.32922099,13.3715959 C8.52608376,13.5053845 8.76146316,13.5722787 9.03535919,13.5722787 C9.25789971,13.5722787 9.43443426,13.5269633 9.56496284,13.4363323 C9.69549141,13.3457014 9.7607557,13.2140707 9.7607557,13.0414403 C9.7607557,12.903336 9.71688954,12.7889684 9.62915722,12.6983375 C9.5414249,12.6077065 9.43229445,12.5364965 9.30176587,12.4847074 C9.1712373,12.4329182 8.99256294,12.3724976 8.76574279,12.3034455 C8.46188938,12.2128145 8.21367111,12.1232625 8.02108796,12.0347894 C7.82850482,11.9463164 7.66373924,11.8136068 7.52679123,11.6366606 C7.38984321,11.4597145 7.32136921,11.2266635 7.32136921,10.9375076 C7.32136921,10.6310887 7.40161218,10.3710642 7.56209814,10.1574341 C7.72258409,9.94380399 7.93442555,9.78412089 8.19762251,9.67838479 C8.46081948,9.57264868 8.74434466,9.51978063 9.04819807,9.51978063 C9.46332173,9.51978063 9.81853064,9.61472734 10.1138248,9.80462075 C10.409119,9.99451417 10.5995623,10.2513019 10.6851548,10.5749838 L9.92766109,11.0087176 C9.85062783,10.8058769 9.73507795,10.6472728 9.58101143,10.5329052 C9.42694492,10.4185375 9.23436177,10.3613537 9.003262,10.3613537 C8.79356035,10.3613537 8.62344524,10.409906 8.49291667,10.5070106 C8.36238809,10.6041152 8.2971238,10.732509 8.2971238,10.8921921 C8.2971238,11.0130334 8.33778024,11.1133748 8.41909313,11.1932163 C8.50040601,11.2730579 8.60418693,11.3377943 8.73043588,11.3874255 C8.85668483,11.4370568 9.02679994,11.4942406 9.24078121,11.558977 C9.54891424,11.6496079 9.80355195,11.7413178 10.0046943,11.8341066 C10.2058367,11.9268955 10.3780917,12.0649998 10.5214591,12.2484195 C10.6648266,12.4318393 10.7365103,12.6724429 10.7365103,12.9702303 Z" id="Path"></path>
                <path d="M12.9319581,9.60393794 C13.3898781,9.60393794 13.8039318,9.69672677 14.1741194,9.88230442 C14.544307,10.0678821 14.8363915,10.338696 15.0503727,10.6947461 C15.264354,11.0507963 15.3713446,11.4748197 15.3713446,11.9668162 C15.3713446,12.4588128 15.264354,12.8839151 15.0503727,13.2421231 C14.8363915,13.6003312 14.5453769,13.873303 14.1773291,14.0610385 C13.8092814,14.248774 13.3941577,14.3426418 12.9319581,14.3426418 L11.3656152,14.3426418 L11.3656152,9.60393794 L12.9319581,9.60393794 Z M12.8228277,13.5399105 C13.3278235,13.5399105 13.7151296,13.4039641 13.984746,13.1320713 C14.2543624,12.8601784 14.3891706,12.4717601 14.3891706,11.9668162 C14.3891706,11.4705039 14.2532925,11.0853224 13.9815363,10.8112716 C13.7097801,10.5372209 13.3235439,10.4001956 12.8228277,10.4001956 L12.2964338,10.4001956 L12.2964338,13.5399105 L12.8228277,13.5399105 Z" id="Shape"></path>
                <path d="M19.2872019,13.6370151 C19.5439794,13.6370151 19.7494015,13.5097002 19.903468,13.2550704 L20.5839284,13.656436 C20.4769378,13.9067501 20.3078926,14.0966435 20.0767928,14.2261163 C19.845693,14.3555891 19.5824961,14.4203255 19.2872019,14.4203255 C18.9919078,14.4203255 18.7158719,14.3523523 18.4590944,14.2164058 C18.2023169,14.0804594 17.994755,13.8797766 17.8364089,13.6143574 C17.6780627,13.3489382 17.5988897,13.0328088 17.5988897,12.6659693 C17.5988897,12.2948139 17.6780627,11.9765267 17.8364089,11.7111075 C17.994755,11.4456883 18.2023169,11.2450055 18.4590944,11.109059 C18.7158719,10.9731126 18.9919078,10.9051394 19.2872019,10.9051394 C19.5824961,10.9051394 19.845693,10.9698758 20.0767928,11.0993486 C20.3078926,11.2288214 20.4769378,11.4187148 20.5839284,11.6690288 L19.903468,12.0703945 C19.7536811,11.8200804 19.5482591,11.6949234 19.2872019,11.6949234 C19.0561021,11.6949234 18.8710083,11.7823175 18.7319205,11.9571058 C18.5928327,12.131894 18.5232888,12.3681819 18.5232888,12.6659693 C18.5232888,12.9594409 18.5939026,13.1946498 18.7351302,13.3715959 C18.8763579,13.5485421 19.0603818,13.6370151 19.2872019,13.6370151 Z" id="Path"></path>
                <path d="M22.4263072,10.9051394 C22.8756678,10.9051394 23.2265971,11.0335333 23.479095,11.2903209 C23.7315929,11.5471086 23.8578419,11.9128692 23.8578419,12.3876028 L23.8578419,14.3426418 L23.1067676,14.3426418 C23.102488,14.3081157 23.0971384,14.2509319 23.090719,14.1710904 C23.0842996,14.0912488 23.0746704,14.0211177 23.0618315,13.9606971 C22.9634002,14.1160644 22.8360813,14.231511 22.679875,14.3070368 C22.5236686,14.3825626 22.3342952,14.4203255 22.1117547,14.4203255 C21.8806549,14.4203255 21.6698834,14.3793258 21.47944,14.2973263 C21.2889967,14.2153269 21.1381399,14.0955646 21.0268696,13.9380394 C20.9155994,13.7805141 20.8599643,13.5938575 20.8599643,13.3780696 C20.8599643,13.1536501 20.9230887,12.958362 21.0493377,12.7922052 C21.1755866,12.6260485 21.3457017,12.4976546 21.559683,12.4070237 C21.7736643,12.3163927 22.0090437,12.2710773 22.2658212,12.2710773 C22.496921,12.2710773 22.7344402,12.3099191 22.9783788,12.3876028 C22.96554,11.8912904 22.7558383,11.6431343 22.3492739,11.6431343 C22.0240224,11.6431343 21.7865032,11.7898701 21.6367163,12.0833417 L21.0011919,11.7143443 C21.1210214,11.4640303 21.3050453,11.2665843 21.5532636,11.1220063 C21.8014818,10.9774284 22.0924964,10.9051394 22.4263072,10.9051394 Z M22.9783788,12.9831776 C22.7643976,12.9313885 22.5782339,12.9054939 22.4198877,12.9054939 C22.2101861,12.9054939 22.0475603,12.9432568 21.9320104,13.0187826 C21.8164605,13.0943084 21.7586856,13.2011234 21.7586856,13.3392277 C21.7586856,13.4643848 21.8046916,13.5614893 21.8967035,13.6305415 C21.9887155,13.6995936 22.1074751,13.7341197 22.2529823,13.7341197 C22.4455655,13.7341197 22.6146107,13.6790938 22.7601179,13.5690419 C22.9056252,13.4589901 22.9783788,13.3068595 22.9783788,13.1126504 L22.9783788,12.9831776 Z" id="Shape"></path>
                <path d="M26.4063588,10.9051394 C26.5347476,10.9051394 26.6545771,10.9245603 26.7658473,10.9634022 C26.8771176,11.002244 26.9627101,11.0518752 27.0226249,11.1122959 L26.6759752,11.8049752 C26.564705,11.7272916 26.438456,11.6884497 26.2972284,11.6884497 C26.0661286,11.6884497 25.8810348,11.7855543 25.741947,11.9797635 C25.6028591,12.1739727 25.5333152,12.4415498 25.5333152,12.7824948 L25.5333152,14.3426418 L24.6410133,14.3426418 L24.6410133,10.9892967 L25.4241848,10.9892967 C25.4455829,11.2482423 25.4648412,11.4251884 25.4819597,11.5201351 C25.5803911,11.3172944 25.7087799,11.164085 25.867126,11.0605067 C26.0254721,10.9569285 26.2052164,10.9051394 26.4063588,10.9051394 Z" id="Path"></path>
                <path d="M29.4941086,9.4162024 L30.3864105,9.4162024 L30.3864105,14.3426418 L29.603239,14.3426418 C29.5818409,14.0923278 29.5647224,13.9240131 29.5518835,13.8376979 C29.4363336,14.0319071 29.2854768,14.177564 29.0993131,14.2746686 C28.9131494,14.3717732 28.7109371,14.4203255 28.4926762,14.4203255 C28.2187802,14.4203255 27.9684221,14.3512733 27.7416019,14.213169 C27.5147818,14.0750647 27.3328977,13.873303 27.1959497,13.6078838 C27.0590017,13.3424645 26.9905277,13.028493 26.9905277,12.6659693 C26.9905277,12.2991297 27.0590017,11.9830003 27.1959497,11.7175811 C27.3328977,11.4521619 27.5147818,11.2504002 27.7416019,11.1122959 C27.9684221,10.9741916 28.2187802,10.9051394 28.4926762,10.9051394 C28.6938186,10.9051394 28.8810522,10.9461391 29.054377,11.0281386 C29.2277019,11.110138 29.374279,11.235295 29.4941086,11.4036096 L29.4941086,9.4162024 Z M28.6980982,13.6499624 C28.9206388,13.6499624 29.1089423,13.567963 29.2630088,13.4039641 C29.4170753,13.2399653 29.4941086,12.993967 29.4941086,12.6659693 C29.4941086,12.3422873 29.4170753,12.1016837 29.2630088,11.9441585 C29.1089423,11.7866333 28.9206388,11.7078707 28.6980982,11.7078707 C28.4627188,11.7078707 28.2733454,11.792028 28.129978,11.9603426 C27.9866105,12.1286572 27.9149268,12.3638661 27.9149268,12.6659693 C27.9149268,12.9680724 27.9866105,13.2075971 28.129978,13.3845432 C28.2733454,13.5614893 28.4627188,13.6499624 28.6980982,13.6499624 Z" id="Shape"></path>
            </g>
            <mask id="mask-2" fill="white">
                <use xlink:href="#path-1"></use>
            </mask>
            <use id="形状结合" fill="#B3BFD3" fill-rule="nonzero" xlink:href="#path-1"></use>
        </g>
    </g>
</svg>