<?xml version="1.0" encoding="UTF-8"?>
<svg width="16px" height="16px" viewBox="0 0 16 16" version="1.1" xmlns="http://www.w3.org/2000/svg" xmlns:xlink="http://www.w3.org/1999/xlink">
    <title>擦除</title>
    <g id="擦除" stroke="none" stroke-width="1" fill="none" fill-rule="evenodd">
        <g id="工具栏/删除-copy-3">
            <g id="删除-copy-2" transform="translate(1.000000, 0.000000)">
                <path d="M14.8,3.00922859 L0.200000003,3.00922859 C0.0895430514,3.00922859 1.80060529e-16,2.91968554 0,2.80922859 C0,2.67179824 0,2.5343679 0,2.39693755 C0,2.25950721 0,2.12207686 0,1.98464652 C-1.24054306e-14,1.87418957 0.0895430514,1.78464652 0.200000003,1.78464652 L4.19669619,1.78464652 C4.30715315,1.78464652 4.3966962,1.69510347 4.3966962,1.58464651 L4.3966962,0.200000003 C4.3966962,0.0895430514 4.48623925,7.58017641e-17 4.5966962,0 L10.3895448,0 C10.5000017,9.8851977e-16 10.5895448,0.0895430514 10.5895448,0.200000003 L10.5895448,1.58466248 C10.5895448,1.69511943 10.6790878,1.78466248 10.7895448,1.78466248 L14.8,1.78466248 C14.9104569,1.78466248 15,1.87420553 15,1.98466249 L15,2.80922859 C15,2.91968554 14.9104569,3.00922859 14.8,3.00922859 Z M5.75581142,1.78466247 L9.2441886,1.78466247 L9.2441886,1.01930267 L5.75581142,1.01930267 L5.75581142,1.78466247 Z" id="Shape" fill="#FFFFFF" fill-rule="nonzero"></path>
                <path d="M11.8500056,4.56561344 L11.8500056,15.0461429 L2.79941494,15.0461429 L2.79941494,4.56561344 L11.8500056,4.56561344 Z M6.11734239,6.76005639 L5.22282252,6.7839425 C5.10869512,6.78911856 5.02333029,6.88265338 5.02836939,6.99299533 L5.32919903,13.5803082 C5.33417078,13.6891753 5.42538774,13.7740219 5.53432944,13.7711128 L6.42884931,13.7472267 C6.54297672,13.7420507 6.62834154,13.6485158 6.62330244,13.5381739 L6.3224728,6.95086103 C6.31750106,6.84199397 6.22628409,6.75714736 6.11734239,6.76005639 Z M8.58194849,6.76005639 C8.47300679,6.75714736 8.38178983,6.84199397 8.37681808,6.95086103 L8.07598844,13.5381739 C8.07094934,13.6485158 8.15631416,13.7420507 8.26665611,13.7470898 L9.16496144,13.7711128 C9.27390314,13.7740219 9.3651201,13.6891753 9.37009185,13.5803082 L9.67092149,6.99299533 C9.67596059,6.88265338 9.59059577,6.78911856 9.48025382,6.78407946 L8.58194849,6.76005639 Z" id="Combined-Shape" fill="#FFCC66"></path>
                <path d="M7.1984619,10.0461429 L7.8015381,10.0461429 C7.91199505,10.0461429 8.0015381,10.135686 8.0015381,10.2461429 L8.0015381,19.8461429 C8.0015381,19.9565999 7.91199505,20.0461429 7.8015381,20.0461429 L7.1984619,20.0461429 C7.08800495,20.0461429 6.9984619,19.9565999 6.9984619,19.8461429 L6.9984619,10.2461429 C6.9984619,10.135686 7.08800495,10.0461429 7.1984619,10.0461429 Z" id="Rectangle-Copy-99" fill="#FFCC66" transform="translate(7.500000, 15.046143) rotate(-90.000000) translate(-7.500000, -15.046143) "></path>
                <path d="M2.08950586,4.58462785 L3.06094599,4.58447167 C3.17140293,4.58438971 3.26096037,4.67391837 3.26097813,4.78437532 C3.26097814,4.78439672 3.26097814,4.78441812 3.26091393,4.78443952 L3.25915287,15.771647 C3.25907094,15.8820788 3.16955267,15.9715971 3.05912081,15.9716791 L2.08768068,15.9718353 C1.97722374,15.9719173 1.8876663,15.8823886 1.88764854,15.7719317 C1.88764853,15.7719103 1.88764853,15.7718889 1.88771274,15.7718675 L1.88947381,4.78466001 C1.88955573,4.67422814 1.979074,4.58470983 2.08950586,4.58462785 Z" id="Rectangle-Copy-97" fill="#FFCC66" transform="translate(2.574313, 10.278153) rotate(-3.000000) translate(-2.574313, -10.278153) "></path>
                <path d="M11.5734404,4.58462785 L12.5448805,4.58447167 C12.6553374,4.58438971 12.7448949,4.67391837 12.7449126,4.78437532 C12.7449126,4.78439672 12.7449126,4.78441812 12.7448484,4.78443952 L12.7430874,15.771647 C12.7430055,15.8820788 12.6534872,15.9715971 12.5430553,15.9716791 L11.5716152,15.9718353 C11.4611583,15.9719173 11.3716008,15.8823886 11.371583,15.7719317 C11.371583,15.7719103 11.371583,15.7718889 11.3716472,15.7718675 L11.3734083,4.78466001 C11.3734902,4.67422814 11.4630085,4.58470983 11.5734404,4.58462785 Z" id="Rectangle-Copy-98" fill="#FFCC66" transform="translate(12.058248, 10.278153) scale(-1, 1) rotate(-3.000000) translate(-12.058248, -10.278153) "></path>
            </g>
            <rect id="Rectangle" x="0" y="0" width="16" height="16"></rect>
        </g>
    </g>
</svg>