<?xml version="1.0" encoding="UTF-8"?>
<svg width="88px" height="88px" viewBox="0 0 88 88" version="1.1" xmlns="http://www.w3.org/2000/svg" xmlns:xlink="http://www.w3.org/1999/xlink">
    <title>1-icon/file-img-disabled</title>
    <defs>
        <path d="M8.53333333,0 L60.2383366,0 C62.4786679,0 64.6291387,0.877003666 66.2254906,2.44167733 L85.4538207,21.2884382 C87.0827479,22.8850408 88,25.0654834 88,27.3410791 L88,56.5056818 C88,61.1969642 84.1794965,65 79.4666667,65 L8.53333333,65 C3.82050347,65 0,61.1969642 0,56.5056818 L0,8.49431818 C0,3.80303579 3.82050347,0 8.53333333,0 Z" id="path-1"></path>
    </defs>
    <g id="1-icon/file-img-disabled" stroke="none" stroke-width="1" fill="none" fill-rule="evenodd">
        <g id="矩形备份-12-copy" transform="translate(0.000000, 11.000000)">
            <mask id="mask-2" fill="white">
                <use xlink:href="#path-1"></use>
            </mask>
            <use id="蒙版" fill="#DFE5EF" opacity="0.900000036" xlink:href="#path-1"></use>
            <path d="M64,-2 L89,-2 L89,23 L72.3333333,23 C67.7309604,23 64,19.2690396 64,14.6666667 L64,-2 Z" id="矩形备份-10" fill="#FFFFFF" opacity="0.400000006" mask="url(#mask-2)"></path>
        </g>
        <g id="IMG" transform="translate(34.036000, 51.060000)" fill="#8D98AA" fill-rule="nonzero">
            <polygon id="Path" points="1.74 8.94 0 8.94 0 0.156 1.74 0.156"></polygon>
            <polygon id="Path" points="10.944 0.156 12.264 0.156 12.264 8.94 10.608 8.94 10.608 3.276 8.376 6.6 7.464 6.6 5.22 3.252 5.22 8.94 3.576 8.94 3.576 0.156 4.956 0.156 7.956 4.704"></polygon>
            <path d="M17.988,5.568 L17.988,4.068 L21.348,4.068 L21.348,7.644 C21.076,8.084 20.642,8.434 20.046,8.694 C19.45,8.954 18.792,9.084 18.072,9.084 C17.216,9.084 16.456,8.892 15.792,8.508 C15.128,8.124 14.612,7.588 14.244,6.9 C13.876,6.212 13.692,5.424 13.692,4.536 C13.692,3.64 13.882,2.848 14.262,2.16 C14.642,1.472 15.164,0.94 15.828,0.564 C16.492,0.188 17.228,0 18.036,0 C18.844,0 19.546,0.182 20.142,0.546 C20.738,0.91 21.14,1.376 21.348,1.944 L19.908,2.772 C19.732,2.404 19.48,2.114 19.152,1.902 C18.824,1.69 18.436,1.584 17.988,1.584 C17.516,1.584 17.092,1.704 16.716,1.944 C16.34,2.184 16.044,2.528 15.828,2.976 C15.612,3.424 15.504,3.944 15.504,4.536 C15.504,5.144 15.614,5.672 15.834,6.12 C16.054,6.568 16.366,6.912 16.77,7.152 C17.174,7.392 17.644,7.512 18.18,7.512 C18.804,7.512 19.292,7.34 19.644,6.996 L19.644,5.568 L17.988,5.568 Z" id="Path"></path>
        </g>
    </g>
</svg>