<?xml version="1.0" encoding="UTF-8"?>
<svg width="88px" height="88px" viewBox="0 0 88 88" version="1.1" xmlns="http://www.w3.org/2000/svg" xmlns:xlink="http://www.w3.org/1999/xlink">
    <title>1-icon/file-gz</title>
    <defs>
        <path d="M8.53333333,0 L60.2383366,0 C62.4786679,0 64.6291387,0.877003666 66.2254906,2.44167733 L85.4538207,21.2884382 C87.0827479,22.8850408 88,25.0654834 88,27.3410791 L88,56.5056818 C88,61.1969642 84.1794965,65 79.4666667,65 L8.53333333,65 C3.82050347,65 0,61.1969642 0,56.5056818 L0,8.49431818 C0,3.80303579 3.82050347,0 8.53333333,0 Z" id="path-1"></path>
    </defs>
    <g id="1-icon/file-gz" stroke="none" stroke-width="1" fill="none" fill-rule="evenodd">
        <g id="矩形备份-12-copy" transform="translate(0.000000, 11.000000)">
            <mask id="mask-2" fill="white">
                <use xlink:href="#path-1"></use>
            </mask>
            <use id="蒙版" fill="#D4D7DB" opacity="0.900000036" xlink:href="#path-1"></use>
            <path d="M64,-2 L89,-2 L89,23 L72.3333333,23 C67.7309604,23 64,19.2690396 64,14.6666667 L64,-2 Z" id="矩形备份-10" fill="#FFFFFF" opacity="0.400000006" mask="url(#mask-2)"></path>
        </g>
        <g id="GZ" transform="translate(37.126000, 51.060000)" fill="#181B20" fill-rule="nonzero">
            <path d="M4.296,5.568 L4.296,4.068 L7.656,4.068 L7.656,7.644 C7.384,8.084 6.95,8.434 6.354,8.694 C5.758,8.954 5.1,9.084 4.38,9.084 C3.524,9.084 2.764,8.892 2.1,8.508 C1.436,8.124 0.92,7.588 0.552,6.9 C0.184,6.212 0,5.424 0,4.536 C0,3.64 0.19,2.848 0.57,2.16 C0.95,1.472 1.472,0.94 2.136,0.564 C2.8,0.188 3.536,0 4.344,0 C5.152,0 5.854,0.182 6.45,0.546 C7.046,0.91 7.448,1.376 7.656,1.944 L6.216,2.772 C6.04,2.404 5.788,2.114 5.46,1.902 C5.132,1.69 4.744,1.584 4.296,1.584 C3.824,1.584 3.4,1.704 3.024,1.944 C2.648,2.184 2.352,2.528 2.136,2.976 C1.92,3.424 1.812,3.944 1.812,4.536 C1.812,5.144 1.922,5.672 2.142,6.12 C2.362,6.568 2.674,6.912 3.078,7.152 C3.482,7.392 3.952,7.512 4.488,7.512 C5.112,7.512 5.6,7.34 5.952,6.996 L5.952,5.568 L4.296,5.568 Z" id="Path"></path>
            <polygon id="Path" points="14.868 0.156 14.868 1.116 10.788 7.38 15.036 7.38 15.036 8.94 8.364 8.94 8.364 7.968 12.456 1.704 8.736 1.704 8.736 0.156"></polygon>
        </g>
    </g>
</svg>