<?xml version="1.0" encoding="UTF-8"?>
<svg width="88px" height="88px" viewBox="0 0 88 88" version="1.1" xmlns="http://www.w3.org/2000/svg" xmlns:xlink="http://www.w3.org/1999/xlink">
    <title>1-icon/file-iso</title>
    <defs>
        <path d="M8.53333333,0 L60.2383366,0 C62.4786679,0 64.6291387,0.877003666 66.2254906,2.44167733 L85.4538207,21.2884382 C87.0827479,22.8850408 88,25.0654834 88,27.3410791 L88,56.5056818 C88,61.1969642 84.1794965,65 79.4666667,65 L8.53333333,65 C3.82050347,65 0,61.1969642 0,56.5056818 L0,8.49431818 C0,3.80303579 3.82050347,0 8.53333333,0 Z" id="path-1"></path>
    </defs>
    <g id="1-icon/file-iso" stroke="none" stroke-width="1" fill="none" fill-rule="evenodd">
        <g id="矩形备份-12-copy" transform="translate(0.000000, 11.000000)">
            <mask id="mask-2" fill="white">
                <use xlink:href="#path-1"></use>
            </mask>
            <use id="蒙版" fill="#D4D7DB" opacity="0.900000036" xlink:href="#path-1"></use>
            <path d="M64,-2 L89,-2 L89,23 L72.3333333,23 C67.7309604,23 64,19.2690396 64,14.6666667 L64,-2 Z" id="矩形备份-10" fill="#FFFFFF" opacity="0.400000006" mask="url(#mask-2)"></path>
        </g>
        <g id="ISO" transform="translate(35.386000, 51.060000)" fill="#181B20" fill-rule="nonzero">
            <polygon id="Path" points="1.74 8.94 0 8.94 0 0.156 1.74 0.156"></polygon>
            <path d="M9.504,6.396 C9.504,6.996 9.35,7.498 9.042,7.902 C8.734,8.306 8.334,8.604 7.842,8.796 C7.35,8.988 6.824,9.084 6.264,9.084 C5.448,9.084 4.712,8.894 4.056,8.514 C3.4,8.134 2.964,7.596 2.748,6.9 L4.164,6.096 C4.356,6.544 4.636,6.892 5.004,7.14 C5.372,7.388 5.812,7.512 6.324,7.512 C6.74,7.512 7.07,7.428 7.314,7.26 C7.558,7.092 7.68,6.848 7.68,6.528 C7.68,6.272 7.598,6.06 7.434,5.892 C7.27,5.724 7.066,5.592 6.822,5.496 C6.578,5.4 6.244,5.288 5.82,5.16 C5.252,4.992 4.788,4.826 4.428,4.662 C4.068,4.498 3.76,4.252 3.504,3.924 C3.248,3.596 3.12,3.164 3.12,2.628 C3.12,2.06 3.27,1.578 3.57,1.182 C3.87,0.786 4.266,0.49 4.758,0.294 C5.25,0.098 5.78,0 6.348,0 C7.124,0 7.788,0.176 8.34,0.528 C8.892,0.88 9.248,1.356 9.408,1.956 L7.992,2.76 C7.848,2.384 7.632,2.09 7.344,1.878 C7.056,1.666 6.696,1.56 6.264,1.56 C5.872,1.56 5.554,1.65 5.31,1.83 C5.066,2.01 4.944,2.248 4.944,2.544 C4.944,2.768 5.02,2.954 5.172,3.102 C5.324,3.25 5.518,3.37 5.754,3.462 C5.99,3.554 6.308,3.66 6.708,3.78 C7.284,3.948 7.76,4.118 8.136,4.29 C8.512,4.462 8.834,4.718 9.102,5.058 C9.37,5.398 9.504,5.844 9.504,6.396 Z" id="Path"></path>
            <path d="M10.26,4.536 C10.26,3.616 10.444,2.812 10.812,2.124 C11.18,1.436 11.682,0.91 12.318,0.546 C12.954,0.182 13.664,0 14.448,0 C15.232,0 15.942,0.182 16.578,0.546 C17.214,0.91 17.718,1.436 18.09,2.124 C18.462,2.812 18.648,3.616 18.648,4.536 C18.648,5.464 18.462,6.272 18.09,6.96 C17.718,7.648 17.214,8.174 16.578,8.538 C15.942,8.902 15.232,9.084 14.448,9.084 C13.664,9.084 12.954,8.902 12.318,8.538 C11.682,8.174 11.18,7.648 10.812,6.96 C10.444,6.272 10.26,5.464 10.26,4.536 Z M12.096,4.536 C12.096,5.12 12.194,5.636 12.39,6.084 C12.586,6.532 12.862,6.878 13.218,7.122 C13.574,7.366 13.984,7.488 14.448,7.488 C14.912,7.488 15.322,7.366 15.678,7.122 C16.034,6.878 16.31,6.532 16.506,6.084 C16.702,5.636 16.8,5.12 16.8,4.536 C16.8,3.952 16.702,3.438 16.506,2.994 C16.31,2.55 16.034,2.206 15.678,1.962 C15.322,1.718 14.912,1.596 14.448,1.596 C13.984,1.596 13.574,1.718 13.218,1.962 C12.862,2.206 12.586,2.55 12.39,2.994 C12.194,3.438 12.096,3.952 12.096,4.536 Z" id="Shape"></path>
        </g>
    </g>
</svg>