<?xml version="1.0" encoding="UTF-8"?>
<svg width="88px" height="88px" viewBox="0 0 88 88" version="1.1" xmlns="http://www.w3.org/2000/svg" xmlns:xlink="http://www.w3.org/1999/xlink">
    <title>1-icon/file-zst</title>
    <defs>
        <path d="M8.53333333,0 L60.2383366,0 C62.4786679,0 64.6291387,0.877003666 66.2254906,2.44167733 L85.4538207,21.2884382 C87.0827479,22.8850408 88,25.0654834 88,27.3410791 L88,56.5056818 C88,61.1969642 84.1794965,65 79.4666667,65 L8.53333333,65 C3.82050347,65 0,61.1969642 0,56.5056818 L0,8.49431818 C0,3.80303579 3.82050347,0 8.53333333,0 Z" id="path-1"></path>
    </defs>
    <g id="1-icon/file-zst" stroke="none" stroke-width="1" fill="none" fill-rule="evenodd">
        <g id="矩形备份-12-copy" transform="translate(0.000000, 11.000000)">
            <mask id="mask-2" fill="white">
                <use xlink:href="#path-1"></use>
            </mask>
            <use id="蒙版" fill="#D4D7DB" opacity="0.900000036" xlink:href="#path-1"></use>
            <path d="M64,-2 L89,-2 L89,23 L72.3333333,23 C67.7309604,23 64,19.2690396 64,14.6666667 L64,-2 Z" id="矩形备份-10" fill="#FFFFFF" opacity="0.400000006" mask="url(#mask-2)"></path>
        </g>
        <g id="ZST" transform="translate(33.964000, 51.060000)" fill="#181B20" fill-rule="nonzero">
            <polygon id="Path" points="6.504 0.156 6.504 1.116 2.424 7.38 6.672 7.38 6.672 8.94 0 8.94 0 7.968 4.092 1.704 0.372 1.704 0.372 0.156"></polygon>
            <path d="M13.74,6.396 C13.74,6.996 13.586,7.498 13.278,7.902 C12.97,8.306 12.57,8.604 12.078,8.796 C11.586,8.988 11.06,9.084 10.5,9.084 C9.684,9.084 8.948,8.894 8.292,8.514 C7.636,8.134 7.2,7.596 6.984,6.9 L8.4,6.096 C8.592,6.544 8.872,6.892 9.24,7.14 C9.608,7.388 10.048,7.512 10.56,7.512 C10.976,7.512 11.306,7.428 11.55,7.26 C11.794,7.092 11.916,6.848 11.916,6.528 C11.916,6.272 11.834,6.06 11.67,5.892 C11.506,5.724 11.302,5.592 11.058,5.496 C10.814,5.4 10.48,5.288 10.056,5.16 C9.488,4.992 9.024,4.826 8.664,4.662 C8.304,4.498 7.996,4.252 7.74,3.924 C7.484,3.596 7.356,3.164 7.356,2.628 C7.356,2.06 7.506,1.578 7.806,1.182 C8.106,0.786 8.502,0.49 8.994,0.294 C9.486,0.098 10.016,0 10.584,0 C11.36,0 12.024,0.176 12.576,0.528 C13.128,0.88 13.484,1.356 13.644,1.956 L12.228,2.76 C12.084,2.384 11.868,2.09 11.58,1.878 C11.292,1.666 10.932,1.56 10.5,1.56 C10.108,1.56 9.79,1.65 9.546,1.83 C9.302,2.01 9.18,2.248 9.18,2.544 C9.18,2.768 9.256,2.954 9.408,3.102 C9.56,3.25 9.754,3.37 9.99,3.462 C10.226,3.554 10.544,3.66 10.944,3.78 C11.52,3.948 11.996,4.118 12.372,4.29 C12.748,4.462 13.07,4.718 13.338,5.058 C13.606,5.398 13.74,5.844 13.74,6.396 Z" id="Path"></path>
            <polygon id="Path" points="14.088 0.156 21.168 0.156 21.168 1.704 18.504 1.704 18.504 8.94 16.752 8.94 16.752 1.704 14.088 1.704"></polygon>
        </g>
    </g>
</svg>