<?xml version="1.0" encoding="UTF-8"?>
<svg width="88px" height="88px" viewBox="0 0 88 88" version="1.1" xmlns="http://www.w3.org/2000/svg" xmlns:xlink="http://www.w3.org/1999/xlink">
    <title>1-icon/file-zip</title>
    <defs>
        <path d="M8.53333333,0 L60.2383366,0 C62.4786679,0 64.6291387,0.877003666 66.2254906,2.44167733 L85.4538207,21.2884382 C87.0827479,22.8850408 88,25.0654834 88,27.3410791 L88,56.5056818 C88,61.1969642 84.1794965,65 79.4666667,65 L8.53333333,65 C3.82050347,65 0,61.1969642 0,56.5056818 L0,8.49431818 C0,3.80303579 3.82050347,0 8.53333333,0 Z" id="path-1"></path>
    </defs>
    <g id="1-icon/file-zip" stroke="none" stroke-width="1" fill="none" fill-rule="evenodd">
        <g id="矩形备份-12" transform="translate(0.000000, 11.000000)">
            <mask id="mask-2" fill="white">
                <use xlink:href="#path-1"></use>
            </mask>
            <use id="蒙版" fill="#D4D7DB" opacity="0.900000036" xlink:href="#path-1"></use>
            <path d="M64,-2 L89,-2 L89,23 L72.3333333,23 C67.7309604,23 64,19.2690396 64,14.6666667 L64,-2 Z" id="矩形备份-10" fill="#FFFFFF" opacity="0.400000006" mask="url(#mask-2)"></path>
        </g>
        <g id="ZIP" transform="translate(35.548000, 51.216000)" fill="#181B20" fill-rule="nonzero">
            <polygon id="Path" points="6.504 0 6.504 0.96 2.424 7.224 6.672 7.224 6.672 8.784 0 8.784 0 7.812 4.092 1.548 0.372 1.548 0.372 0"></polygon>
            <polygon id="Path" points="9.552 8.784 7.812 8.784 7.812 0 9.552 0"></polygon>
            <path d="M14.412,0 C15.108,0 15.716,0.12 16.236,0.36 C16.756,0.6 17.158,0.938 17.442,1.374 C17.726,1.81 17.868,2.32 17.868,2.904 C17.868,3.48 17.726,3.986 17.442,4.422 C17.158,4.858 16.756,5.194 16.236,5.43 C15.716,5.666 15.108,5.784 14.412,5.784 L13.128,5.784 L13.128,8.784 L11.388,8.784 L11.388,0 L14.412,0 Z M14.22,4.308 C14.764,4.308 15.2,4.19 15.528,3.954 C15.856,3.718 16.02,3.368 16.02,2.904 C16.02,2.44 15.856,2.086 15.528,1.842 C15.2,1.598 14.764,1.476 14.22,1.476 L13.128,1.476 L13.128,4.308 L14.22,4.308 Z" id="Shape"></path>
        </g>
    </g>
</svg>