<?xml version="1.0" encoding="UTF-8"?>
<svg width="110px" height="110px" viewBox="0 0 110 110" version="1.1" xmlns="http://www.w3.org/2000/svg" xmlns:xlink="http://www.w3.org/1999/xlink">
    <title>1-icon/SDcard</title>
    <g id="1-icon/SDcard" stroke="none" stroke-width="1" fill="none" fill-rule="evenodd">
        <g id="Group-2" transform="translate(4.000000, 46.000000)">
            <rect id="Rectangle" fill="#DFE5EF" x="0" y="0" width="69" height="46.4516129" rx="1.944"></rect>
            <path d="M47.6197183,49.3548387 L47.6188028,56.1288387 L54.4307133,56.1290323 C55.4996515,56.1290323 56.3661972,56.9955779 56.3661972,58.0645161 C56.3661972,59.1334544 55.4996515,60 54.4307133,60 L14.5692867,60 C13.5003485,60 12.6338028,59.1334544 12.6338028,58.0645161 C12.6338028,56.9955779 13.5003485,56.1290323 14.5692867,56.1290323 L22.3518028,56.1288387 L22.3521127,49.3548387 L47.6197183,49.3548387 Z" id="Combined-Shape" fill="#DFE5EF"></path>
            <path d="M34.985,0 L34.985,46.451 L1.944,46.4516129 C0.870358446,46.4516129 7.97616984e-16,45.5812545 0,44.5076129 L0,1.944 C-1.31483169e-16,0.870358446 0.870358446,4.19269359e-16 1.944,0 L34.985,0 Z" id="Combined-Shape" fill="#EBEFF6"></path>
            <rect id="Rectangle" fill="#DFE5EF" x="22.3521127" y="41.6129032" width="25.2676056" height="1.93548387" rx="0.967741935"></rect>
            <path d="M34.9858028,49.3548387 L34.9858028,59.9998387 L14.5692867,60 C13.5003485,60 12.6338028,59.1334544 12.6338028,58.0645161 C12.6338028,56.9955779 13.5003485,56.1290323 14.5692867,56.1290323 L22.3518028,56.1288387 L22.3521127,49.3548387 L34.9858028,49.3548387 Z" id="Combined-Shape" fill="#EBEFF6"></path>
            <path d="M46.6519764,41.6129032 C47.1864455,41.6129032 47.6197183,42.046176 47.6197183,42.5806452 C47.6197183,43.1151143 47.1864455,43.5483871 46.6519764,43.5483871 L34.9859155,43.5479032 L34.9859155,41.6129032 L46.6519764,41.6129032 Z" id="Combined-Shape" fill="#C3CEDF"></path>
            <rect id="Rectangle" fill="#F4F6FA" x="2.91549296" y="2.90322581" width="63.1690141" height="35.8064516"></rect>
            <polygon id="Rectangle" fill="#EBEFF6" points="34.9951542 2.90322581 66.084507 2.90322581 66.084507 38.7096774 35.0879572 38.7096774"></polygon>
        </g>
        <g id="Group" transform="translate(56.000000, 4.000000)">
            <path d="M48.1513812,-1 C48.9380056,-1 49.6501603,-0.681157482 50.1656589,-0.165658876 C50.6811575,0.349839731 51,1.06199443 51,1.84861878 L51,65.1513812 C51,65.9380056 50.6811575,66.6501603 50.1656589,67.1656589 C49.6501603,67.6811575 48.9380056,68 48.1513812,68 L1.84861878,68 C1.06199443,68 0.349839731,67.6811575 -0.165658876,67.1656589 C-0.681157482,66.6501603 -1,65.9380056 -1,65.1513812 L-1,46.0816567 C-1,45.2950323 -0.681157482,44.5828776 -0.165658876,44.067379 C0.349839731,43.5518804 1.06199443,43.2330379 1.84861878,43.2330379 L3.19502552,43.2330379 C3.42936512,43.2330379 3.64151982,43.138053 3.79508961,42.9844832 C3.94865941,42.8309134 4.0436443,42.6187587 4.0436443,42.3844191 L4.0436443,28.3896001 C4.0436443,28.1552605 3.94865941,27.9431058 3.79508961,27.789536 C3.64151982,27.6359662 3.42936512,27.5409813 3.19502552,27.5409813 L1.84861878,27.5409813 C1.06199443,27.5409813 0.349839731,27.2221388 -0.165658876,26.7066402 C-0.681157482,26.1911416 -1,25.4789869 -1,24.6923625 L-1,10.2837509 C-1,9.58965625 -0.746580216,8.9194421 -0.287340266,8.39899417 L7.15576684,-0.036137942 C7.69651695,-0.648959783 8.4744369,-1 9.29172589,-1 Z" id="Path-Copy" stroke="#FFFFFF" stroke-width="2" fill="#C3CEDF"></path>
            <path d="M48.1513812,0 C49.1723452,2.56541173e-16 50,0.827654821 50,1.84861878 L50,65.1513812 C50,66.1723452 49.1723452,67 48.1513812,67 L25.5813953,67 L25.5813953,0 Z" id="Combined-Shape" fill="#BFC7D7"></path>
            <g id="SD" transform="translate(28.530197, 20.230278)" fill="#EBEFF6" fill-rule="nonzero">
                <path d="M7.44088404,7.27446296 C7.44088404,7.95687037 7.27127241,8.5278179 6.93204916,8.98730556 C6.59282591,9.44679321 6.15227623,9.78572222 5.61040013,10.0040926 C5.06852403,10.222463 4.48920121,10.3316481 3.87243166,10.3316481 C2.97371032,10.3316481 2.16309891,10.1155525 1.44059744,9.68336111 C0.718095973,9.25116975 0.237896825,8.63927778 0,7.84768519 L1.55954586,6.93325926 C1.7710097,7.44279012 2.07939447,7.83858642 2.48470018,8.12064815 C2.89000588,8.40270988 3.37461052,8.54374074 3.93851411,8.54374074 C4.39668577,8.54374074 4.76013926,8.4482037 5.02887456,8.25712963 C5.29760986,8.06605556 5.43197751,7.78854321 5.43197751,7.42459259 C5.43197751,7.1334321 5.34166483,6.89231481 5.16103946,6.70124074 C4.98041409,6.51016667 4.75573376,6.36003704 4.48699846,6.25085185 C4.21826315,6.14166667 3.85040417,6.01428395 3.38342152,5.8687037 C2.75784098,5.67762963 2.24680335,5.48883025 1.85030864,5.30230556 C1.45381393,5.11578086 1.11459068,4.83599383 0.832638889,4.46294444 C0.550687096,4.08989506 0.409711199,3.59856173 0.409711199,2.98894444 C0.409711199,2.3429321 0.574917328,1.79473148 0.905329586,1.34434259 C1.23574184,0.893953704 1.67188602,0.557299383 2.21376213,0.33437963 C2.75563823,0.111459877 3.33936655,0 3.96494709,0 C4.81961346,0 5.55092593,0.20017284 6.15888448,0.600518519 C6.76684303,1.0008642 7.15893225,1.54224074 7.33515212,2.22464815 L5.77560626,3.13907407 C5.61700838,2.7114321 5.37911155,2.37705247 5.06191578,2.13593519 C4.74472002,1.8948179 4.34822531,1.77425926 3.87243166,1.77425926 C3.44069297,1.77425926 3.09045598,1.87662037 2.82172068,2.08134259 C2.55298538,2.28606481 2.41861772,2.55675309 2.41861772,2.89340741 C2.41861772,3.14817284 2.50232216,3.35971914 2.66973104,3.5280463 C2.83713992,3.69637346 3.05080651,3.83285494 3.31073082,3.93749074 C3.57065513,4.04212654 3.92089212,4.16268519 4.3614418,4.29916667 C4.99583333,4.49024074 5.52008745,4.68358951 5.93420414,4.87921296 C6.34832084,5.07483642 6.70296333,5.36599691 6.99813161,5.75269444 C7.2932999,6.13939198 7.44088404,6.64664815 7.44088404,7.27446296 Z" id="Path"></path>
                <path d="M11.9609237,0.177425926 C12.9037,0.177425926 13.7561637,0.373049383 14.5183146,0.764296296 C15.2804655,1.15554321 15.8818158,1.72649074 16.3223655,2.47713889 C16.7629152,3.22778704 16.98319,4.12174074 16.98319,5.159 C16.98319,6.19625926 16.7629152,7.09248765 16.3223655,7.84768519 C15.8818158,8.60288272 15.2826683,9.17837963 14.5249228,9.57417593 C13.7671774,9.96997222 12.912511,10.1678704 11.9609237,10.1678704 L8.73610009,10.1678704 L8.73610009,0.177425926 L11.9609237,0.177425926 Z M11.7362434,8.4755 C12.7759406,8.4755 13.5733355,8.18888889 14.1284281,7.61566667 C14.6835207,7.04244444 14.961067,6.22355556 14.961067,5.159 C14.961067,4.11264198 14.681318,3.30057716 14.1218199,2.72280556 C13.5623218,2.14503395 12.7671296,1.85614815 11.7362434,1.85614815 L10.6524912,1.85614815 L10.6524912,8.4755 L11.7362434,8.4755 Z" id="Shape"></path>
            </g>
            <line x1="8.21204094" y1="59.7877806" x2="40.655318" y2="59.7877806" id="Path-20" stroke="#EBEFF6" stroke-width="2.46482504" stroke-linecap="round" stroke-linejoin="round"></line>
            <path d="M25.5804595,58.5472321 L25.5804595,61.0282321 L8.21204094,61.0282377 C7.54621672,61.0282377 7.00645954,60.4728661 7.00645954,59.7877806 C7.00645954,59.102695 7.54621672,58.5473234 8.21204094,58.5473234 L25.5804595,58.5472321 Z" id="Combined-Shape" fill="#FFFFFF" fill-rule="nonzero"></path>
            <rect id="Rectangle" stroke="#EBEFF6" stroke-width="1.23241252" x="30.6536842" y="6.19953959" width="1.17058571" height="8.07314303" rx="0.585292857"></rect>
            <rect id="Rectangle-Copy" stroke="#EBEFF6" stroke-width="1.23241252" x="34.8589311" y="6.19953959" width="1.17058571" height="8.07314303" rx="0.585292857"></rect>
            <rect id="Rectangle-Copy-2" stroke="#EBEFF6" stroke-width="1.23241252" x="39.064178" y="6.19953959" width="1.17058571" height="8.07314303" rx="0.585292857"></rect>
            <rect id="Rectangle-Copy-3" stroke="#EBEFF6" stroke-width="1.23241252" x="43.269425" y="6.19953959" width="1.17058571" height="8.07314303" rx="0.585292857"></rect>
        </g>
        <g id="Group-3" transform="translate(84.969519, 75.361264)" stroke="#B3BFD3" stroke-linecap="round" stroke-width="2">
            <polyline id="Path-24" points="9.47922439 -1.18256465e-13 9.47922439 10.9314193 1.04344536 10.9314193"></polyline>
            <polyline id="Path-25" transform="translate(2.696985, 10.490422) rotate(-345.000000) translate(-2.696985, -10.490422) " points="3.580272 8.1157968 0.541139493 11.4052321 4.85282962 12.8650465"></polyline>
        </g>
    </g>
</svg>