<?xml version="1.0" encoding="utf-8"?>
<!-- Generator: Adobe Illustrator 26.3.1, SVG Export Plug-In . SVG Version: 6.00 Build 0)  -->
<svg version="1.1" id="Layer_1" xmlns="http://www.w3.org/2000/svg" xmlns:xlink="http://www.w3.org/1999/xlink" x="0px" y="0px"
	 viewBox="0 0 16 16" style="enable-background:new 0 0 16 16;" xml:space="preserve">
<g id="_x31_-icon_x2F_01公共_x2F_help">
	<g id="形状结合">
		<path fill="#8D98AA" id="path-1_00000176039929826502286950000000663544495623524509_" d="M8,1c3.9,0,7,3.1,7,7s-3.1,7-7,7s-7-3.1-7-7S4.1,1,8,1z
			 M8,2C4.7,2,2,4.7,2,8s2.7,6,6,6s6-2.7,6-6S11.3,2,8,2z M8,10.5c0.4,0,0.8,0.3,0.8,0.8S8.4,12,8,12c-0.4,0-0.8-0.3-0.8-0.8
			S7.6,10.5,8,10.5z M8.1,4c0.4,0,0.7,0.1,1,0.2c0.3,0.1,0.5,0.3,0.7,0.6S10,5.3,10,5.7c0,0.2,0,0.4-0.1,0.6
			C9.8,6.5,9.7,6.6,9.6,6.7C9.5,6.9,9.3,7,9.1,7.2C8.9,7.4,8.8,7.6,8.7,7.7C8.5,7.8,8.4,8,8.4,8.2C8.3,8.3,8.2,8.6,8.2,8.8
			c0,0.1,0,0.3,0,0.4c0,0.2-0.1,0.3-0.3,0.3c-0.2,0-0.4-0.1-0.4-0.3C7.5,9,7.4,8.7,7.4,8.5c0-0.3,0-0.5,0.1-0.7
			c0.1-0.2,0.2-0.4,0.3-0.5C8,7.2,8.1,7,8.3,6.9c0.2-0.2,0.4-0.4,0.5-0.6S9,6,9,5.8c0-0.3-0.1-0.5-0.3-0.6S8.3,4.9,8,4.9
			C7.8,4.9,7.5,5,7.3,5.2C7.1,5.4,6.9,5.6,6.8,6C6.6,6.1,6.4,6.2,6.3,6.1S6,5.8,6,5.5C6.2,5,6.4,4.7,6.8,4.4C7.2,4.1,7.6,4,8.1,4z"
			/>
	</g>
</g>
</svg>
