<?xml version="1.0" encoding="UTF-8"?>
<svg width="16px" height="16px" viewBox="0 0 16 16" version="1.1" xmlns="http://www.w3.org/2000/svg" xmlns:xlink="http://www.w3.org/1999/xlink">
    <title>1-icon/01公共/02告警/remind</title>
    <g id="1-icon/01公共/02告警/remind" stroke="none" stroke-width="1" fill="none" fill-rule="evenodd">
        <path d="M8,1 C4.134375,1 1,4.134375 1,8 C1,11.865625 4.134375,15 8,15 C11.865625,15 15,11.865625 15,8 C15,4.134375 11.865625,1 8,1 Z" id="路径" fill="#0077FF"></path>
        <path d="M8,6 C7.5859375,6 7.25,5.6640625 7.25,5.25 C7.25,4.8359375 7.5859375,4.5 8,4.5 C8.4140625,4.5 8.75,4.8359375 8.75,5.25 C8.75,5.6640625 8.4140625,6 8,6 Z M8,7 C8.27614237,7 8.5,7.22385763 8.5,7.5 L8.5,11.5 C8.5,11.7761424 8.27614237,12 8,12 C7.72385763,12 7.5,11.7761424 7.5,11.5 L7.5,7.5 C7.5,7.22385763 7.72385763,7 8,7 Z" id="形状" fill="#FFFFFF"></path>
    </g>
</svg>