<?xml version="1.0" encoding="UTF-8"?>
<svg width="110px" height="110px" viewBox="0 0 110 110" version="1.1" xmlns="http://www.w3.org/2000/svg" xmlns:xlink="http://www.w3.org/1999/xlink">
    <title>1-icon/SDcard2</title>
    <g id="1-icon/SDcard2" stroke="none" stroke-width="1" fill="none" fill-rule="evenodd">
        <g id="Group-2" transform="translate(17.000000, 4.000000)">
            <g id="Group">
                <path d="M74.1807334,-1 C75.2353948,-1 76.1902114,-0.572514029 76.8813627,0.118637276 C77.572514,0.809788582 78,1.76460522 78,2.81926656 L78,99.1807334 C78,100.235395 77.572514,101.190211 76.8813627,101.881363 C76.1902114,102.572514 75.2353948,103 74.1807334,103 L2.81926656,103 C1.76460522,103 0.809788582,102.572514 0.118637276,101.881363 C-0.572514029,101.190211 -1,100.235395 -1,99.1807334 L-1,70.1591153 C-1,69.1044539 -0.572514029,68.1496373 0.118637276,67.458486 C0.809788582,66.7673347 1.76460522,66.3398487 2.81926656,66.3398487 L4.94794566,66.3398487 C5.45032225,66.3398487 5.90513889,66.1362204 6.23436138,65.8069979 C6.56358387,65.4777754 6.76721222,65.0229587 6.76721222,64.5205821 L6.76721222,43.2249396 C6.76721222,42.722563 6.56358387,42.2677463 6.23436138,41.9385238 C5.90513889,41.6093013 5.45032225,41.405673 4.94794566,41.405673 L2.81926656,41.405673 C1.76460522,41.405673 0.809788582,40.978187 0.118637276,40.2870357 C-0.572514029,39.5958844 -1,38.6410678 -1,37.5864064 L-1,15.6669421 C-1,14.7288248 -0.654731142,13.8235211 -0.0300297068,13.1236553 L11.4378279,0.275979742 C12.1624514,-0.535830744 13.1989535,-1 14.2871242,-1 Z" id="Path-Copy" stroke="#FFFFFF" stroke-width="2" fill="#DFE5EF"></path>
                <g id="SD" transform="translate(43.936504, 35.331667)" fill="#FFFFFF" fill-rule="nonzero">
                    <path d="M11.4589614,11.0745556 C11.4589614,12.1134444 11.1977595,12.9826481 10.6753557,13.6821667 C10.1529519,14.3816852 9.4745054,14.8976667 8.6400162,15.2301111 C7.80552701,15.5625556 6.91336986,15.7287778 5.96354475,15.7287778 C4.57951389,15.7287778 3.33117233,15.3997963 2.21852006,14.7418333 C1.1058678,14.0838704 0.366361111,13.1523333 0,11.9472222 L2.40170062,10.5551111 C2.72735494,11.3308148 3.20226749,11.9333704 3.82643827,12.3627778 C4.45060905,12.7921852 5.19690021,13.0068889 6.06531173,13.0068889 C6.77089609,13.0068889 7.33061445,12.8614444 7.74446682,12.5705556 C8.15831919,12.2796667 8.36524537,11.8571852 8.36524537,11.3031111 C8.36524537,10.8598519 8.22616384,10.4927778 7.94800077,10.2018889 C7.66983771,9.911 7.32382999,9.68244444 6.90997762,9.51622222 C6.49612526,9.35 5.92962243,9.15607407 5.21046914,8.93444444 C4.2470751,8.64355556 3.46007716,8.35612963 2.84947531,8.07216667 C2.23887346,7.7882037 1.71646965,7.36225926 1.28226389,6.79433333 C0.848058128,6.22640741 0.630955247,5.47840741 0.630955247,4.55033333 C0.630955247,3.56685185 0.885372685,2.73227778 1.39420756,2.04661111 C1.90304244,1.36094444 2.57470448,0.848425926 3.40919367,0.509055556 C4.24368287,0.169685185 5.14262449,0 6.10601852,0 C7.42220473,0 8.54842593,0.304740741 9.4846821,0.914222222 C10.4209383,1.5237037 11.0247557,2.34788889 11.2961343,3.38677778 L8.89443364,4.77888889 C8.6501929,4.12785185 8.28383179,3.6187963 7.79535031,3.25172222 C7.30686883,2.88464815 6.69626698,2.70111111 5.96354475,2.70111111 C5.29866718,2.70111111 4.75930221,2.85694444 4.34544985,3.16861111 C3.93159748,3.48027778 3.7246713,3.89237037 3.7246713,4.40488889 C3.7246713,4.79274074 3.85357613,5.1147963 4.1113858,5.37105556 C4.36919547,5.62731481 4.69824203,5.83509259 5.09852546,5.99438889 C5.4988089,6.15368519 6.03817387,6.33722222 6.71662037,6.545 C7.69358333,6.83588889 8.50093467,7.13024074 9.13867438,7.42805556 C9.77641409,7.72587037 10.3225635,8.16912963 10.7771227,8.75783333 C11.2316818,9.34653704 11.4589614,10.1187778 11.4589614,11.0745556 Z" id="Path"></path>
                    <path d="M18.4198225,0.270111111 C19.871698,0.270111111 21.184492,0.567925926 22.3582045,1.16355556 C23.5319169,1.75918519 24.4579964,2.62838889 25.1364429,3.77116667 C25.8148894,4.91394444 26.1541127,6.27488889 26.1541127,7.854 C26.1541127,9.43311111 25.8148894,10.7975185 25.1364429,11.9472222 C24.4579964,13.0969259 23.5353092,13.9730556 22.3683812,14.5756111 C21.2014532,15.1781667 19.885267,15.4794444 18.4198225,15.4794444 L13.4535941,15.4794444 L13.4535941,0.270111111 L18.4198225,0.270111111 Z M18.0738148,12.903 C19.6749486,12.903 20.9029367,12.4666667 21.7577793,11.594 C22.6126219,10.7213333 23.0400432,9.47466667 23.0400432,7.854 C23.0400432,6.26103704 22.6092297,5.02475926 21.7476026,4.14516667 C20.8859756,3.26557407 19.6613796,2.82577778 18.0738148,2.82577778 L16.4048364,2.82577778 L16.4048364,12.903 L18.0738148,12.903 Z" id="Shape"></path>
                </g>
                <rect id="Rectangle-Copy-5" stroke="#FFFFFF" stroke-width="1.87951104" fill="#FFFFFF" x="67.1159992" y="9.43975552" width="1.82110624" height="12.2871556" rx="0.910553122"></rect>
                <rect id="Rectangle-Copy-4" stroke="#FFFFFF" stroke-width="1.87951104" fill="#FFFFFF" x="60.6411172" y="9.43975552" width="1.82110624" height="12.2871556" rx="0.910553122"></rect>
                <rect id="Rectangle-Copy-3" stroke="#FFFFFF" stroke-width="1.87951104" fill="#FFFFFF" x="54.1662352" y="9.43975552" width="1.82110624" height="12.2871556" rx="0.910553122"></rect>
                <rect id="Rectangle-Copy-2" stroke="#FFFFFF" stroke-width="1.87951104" fill="#FFFFFF" x="47.6913532" y="9.43975552" width="1.82110624" height="12.2871556" rx="0.910553122"></rect>
                <rect id="Rectangle-Copy" stroke="#FFFFFF" stroke-width="1.87951104" fill="#FFFFFF" x="41.2164712" y="9.43975552" width="1.82110624" height="12.2871556" rx="0.910553122"></rect>
                <rect id="Rectangle" stroke="#FFFFFF" stroke-width="1.87951104" fill="#FFFFFF" x="34.7415892" y="9.43975552" width="1.82110624" height="12.2871556" rx="0.910553122"></rect>
            </g>
            <path d="M40,0 L40,102 L2.81926656,102 C1.26222863,102 1.90682151e-16,100.737771 0,99.1807334 L0,70.1591153 C-1.90682151e-16,68.6020773 1.26222863,67.3398487 2.81926656,67.3398487 L4.94794566,67.3398487 C6.50498359,67.3398487 7.76721222,66.0776201 7.76721222,64.5205821 L7.76721222,43.2249396 C7.76721222,41.6679016 6.50498359,40.405673 4.94794566,40.405673 L2.81926656,40.405673 C1.26222863,40.405673 -2.53407059e-16,39.1434444 0,37.5864064 L0,15.6669421 C2.22721667e-16,14.9744524 0.254866983,14.3061847 0.716002606,13.789565 L12.1838602,0.941889486 C12.7187552,0.342635645 13.4838696,-2.961069e-15 14.2871242,0 L40,0 Z" id="Combined-Shape" fill="#E6EAF2"></path>
            <rect id="Rectangle" stroke="#FFFFFF" stroke-width="2" x="21.2941176" y="73.4492063" width="48" height="23.1015873" rx="2.26600003"></rect>
        </g>
    </g>
</svg>