<?xml version="1.0" encoding="UTF-8"?>
<svg width="48px" height="64px" viewBox="0 0 48 64" version="1.1" xmlns="http://www.w3.org/2000/svg" xmlns:xlink="http://www.w3.org/1999/xlink">
    <title>3备份</title>
    <g id="交互" stroke="none" stroke-width="1" fill="none" fill-rule="evenodd">
        <g id="Artboard-Copy-77" transform="translate(-946.000000, -108.000000)" fill="#EBEFF6" fill-rule="nonzero">
            <g id="Group-8" transform="translate(48.000000, 108.000000)">
                <path d="M917.934426,64 C920.965392,64 923.894353,63.6211293 926.721311,62.863388 C929.54827,62.1056466 932.083789,60.9544627 934.327869,59.4098361 C936.571949,57.8652095 938.437158,55.9271403 939.923497,53.5956284 C941.409836,51.2641166 942.386157,48.5537341 942.852459,45.4644809 C943.08561,43.6575592 943.056466,41.9380692 942.765027,40.3060109 C942.473588,38.6739526 941.919854,37.2167577 941.103825,35.9344262 C940.287796,34.6520947 939.224044,33.5737705 937.912568,32.6994536 C936.601093,31.8251366 935.041894,31.2714026 933.234973,31.0382514 L933.234973,31.0382514 L933.234973,30.7759563 C936.73224,30.0765027 939.57377,28.5027322 941.759563,26.0546448 C943.945355,23.6065574 945.271403,20.6630237 945.737705,17.2240437 C946.145719,14.2513661 945.92714,11.6867031 945.081967,9.53005464 C944.236794,7.37340619 942.954463,5.58105647 941.234973,4.15300546 C939.515483,2.72495446 937.446266,1.67577413 935.027322,1.00546448 C932.608379,0.335154827 930.029144,0 927.289617,0 C924.666667,0 922.131148,0.276867031 919.68306,0.830601093 C917.234973,1.38433515 914.961749,2.24408015 912.863388,3.40983607 C910.765027,4.57559199 908.885246,6.10564663 907.224044,8 C905.562842,9.89435337 904.20765,12.1821494 903.15847,14.863388 L903.15847,14.863388 L917.147541,17.8360656 C917.788707,16.2040073 918.852459,14.8342441 920.338798,13.726776 C921.825137,12.6193078 923.588342,12.0655738 925.628415,12.0655738 C927.785064,12.0655738 929.519126,12.6775956 930.830601,13.9016393 C932.142077,15.1256831 932.681239,16.6703097 932.448087,18.5355191 C932.214936,19.992714 931.748634,21.1730419 931.04918,22.0765027 C930.349727,22.9799636 929.489982,23.6794171 928.469945,24.1748634 C927.449909,24.6703097 926.342441,25.0054645 925.147541,25.1803279 C923.952641,25.3551913 922.743169,25.442623 921.519126,25.442623 L921.519126,25.442623 L917.234973,25.442623 L915.661202,36.8087432 L918.721311,36.8087432 C920.178506,36.8087432 921.621129,36.852459 923.04918,36.9398907 C924.477231,37.0273224 925.744991,37.3041894 926.852459,37.7704918 C927.959927,38.2367942 928.8051,38.9508197 929.387978,39.9125683 C929.970856,40.8743169 930.145719,42.2295082 929.912568,43.9781421 C929.621129,46.3096539 928.673953,48.2185792 927.071038,49.704918 C925.468124,51.1912568 923.238616,51.9344262 920.382514,51.9344262 C917.584699,51.9344262 915.559199,51.2932605 914.306011,50.010929 C913.052823,48.7285974 912.367942,46.9799636 912.251366,44.7650273 L912.251366,44.7650273 L898,48 C898.233151,50.7978142 898.888889,53.2021858 899.967213,55.2131148 C901.045537,57.2240437 902.459016,58.8852459 904.20765,60.1967213 C905.956284,61.5081967 907.996357,62.4699454 910.327869,63.0819672 C912.659381,63.6939891 915.1949,64 917.934426,64 Z" id="3备份"></path>
            </g>
        </g>
    </g>
</svg>