<?xml version="1.0" encoding="UTF-8"?>
<svg width="36px" height="36px" viewBox="0 0 36 36" version="1.1" xmlns="http://www.w3.org/2000/svg" xmlns:xlink="http://www.w3.org/1999/xlink">
    <title>1-icon/01公共/tick copy 2</title>
    <defs>
        <path d="M12.4338165,0.148009003 L14.1824656,2.07212604 C14.2567542,2.15386915 14.2507112,2.28035788 14.1689681,2.35464651 L4.3054455,11.3186749 C4.22370239,11.3929635 4.09721366,11.3869205 4.02292503,11.3051774 C4.01276627,11.2939992 4.00390652,11.2817063 3.99651522,11.2685336 L0.097867664,4.32040148 C0.0438168457,4.22407263 0.0780899599,4.10216583 0.174418807,4.04811501 L2.4418633,2.77583538 C2.5381957,2.7218099 2.66009203,2.75607223 2.71417056,2.85237485 L4.76817888,6.5119867 C4.82224118,6.60830911 4.94415207,6.64256769 5.04047447,6.5885054 C5.05363279,6.5811201 5.06591307,6.57226943 5.0770809,6.56212233 L12.151281,0.134494875 C12.233041,0.0602378902 12.3595172,0.0662874481 12.4338165,0.148009003 Z" id="path-1"></path>
    </defs>
    <g id="1-icon/01公共/tick-copy-2" stroke="none" stroke-width="1" fill="none" fill-rule="evenodd">
        <path d="M0,0 L32,0 C34.209139,-4.05812251e-16 36,1.790861 36,4 L36,36 L36,36 L0,0 Z" id="Rectangle" fill="#0077FF"></path>
        <g id="1-icon/01公共/tick" transform="translate(19.000000, 5.000000)">
            <mask id="mask-2" fill="white">
                <use xlink:href="#path-1"></use>
            </mask>
            <use id="路径" fill="#FFFFFF" fill-rule="nonzero" xlink:href="#path-1"></use>
            <g id="color/2Regular" mask="url(#mask-2)" fill="#FFFFFF">
                <g transform="translate(-1.000000, -3.000000)" id="矩形">
                    <rect x="0" y="0" width="16" height="16"></rect>
                </g>
            </g>
        </g>
    </g>
</svg>