<?xml version="1.0" encoding="UTF-8"?>
<svg width="50px" height="64px" viewBox="0 0 50 64" version="1.1" xmlns="http://www.w3.org/2000/svg" xmlns:xlink="http://www.w3.org/1999/xlink">
    <title>2备份</title>
    <g id="交互" stroke="none" stroke-width="1" fill="none" fill-rule="evenodd">
        <g id="Artboard-Copy-77" transform="translate(-497.000000, -108.000000)" fill="#8D98AA" fill-rule="nonzero">
            <g id="Group-8" transform="translate(48.000000, 108.000000)">
                <path d="M492.911111,64 L494.511111,52.2666667 L466.6,52.2666667 L488.022222,35.8222222 C490.748148,33.7481481 493.059259,31.4222222 494.955556,28.8444444 C496.851852,26.2666667 498.096296,22.962963 498.688889,18.9333333 C499.103704,15.7925926 498.955556,13.037037 498.244444,10.6666667 C497.533333,8.2962963 496.377778,6.32592593 494.777778,4.75555556 C493.177778,3.18518519 491.192593,2 488.822222,1.2 C486.451852,0.4 483.844444,0 481,0 C477.918519,0 475,0.4 472.244444,1.2 C469.488889,2 467.02963,3.2 464.866667,4.8 C462.703704,6.4 460.851852,8.4 459.311111,10.8 C457.77037,13.2 456.674074,16.0296296 456.022222,19.2888889 L456.022222,19.2888889 L469.266667,20.2666667 C469.740741,18.0148148 470.777778,16.1185185 472.377778,14.5777778 C473.977778,13.037037 476.022222,12.2666667 478.511111,12.2666667 C480.585185,12.2666667 482.303704,12.8740741 483.666667,14.0888889 C485.02963,15.3037037 485.562963,16.9777778 485.266667,19.1111111 C485.148148,20.0592593 484.851852,20.9481481 484.377778,21.7777778 C483.903704,22.6074074 483.355556,23.3777778 482.733333,24.0888889 C482.111111,24.8 481.42963,25.4666667 480.688889,26.0888889 C479.948148,26.7111111 479.222222,27.3185185 478.511111,27.9111111 L478.511111,27.9111111 L450.955556,49.8666667 L449,64 L492.911111,64 Z" id="2备份"></path>
            </g>
        </g>
    </g>
</svg>