<?xml version="1.0" encoding="UTF-8"?>
<svg width="64px" height="64px" viewBox="0 0 64 64" version="1.1" xmlns="http://www.w3.org/2000/svg" xmlns:xlink="http://www.w3.org/1999/xlink">
    <title>上传</title>
    <g id="交互" stroke="none" stroke-width="1" fill="none" fill-rule="evenodd">
        <g id="Artboard-Copy-73" transform="translate(-207.000000, -429.000000)">
            <g id="上传" transform="translate(207.000000, 429.000000)">
                <rect id="矩形" x="0" y="0" width="64" height="64"></rect>
                <g id="编组" transform="translate(2.000000, 11.402845)" fill="#8D98AA" fill-rule="nonzero">
                    <path d="M21.9671802,10.605798 C21.9671802,10.605798 18.3376679,6.92736867 13.4132606,9.93147963 C9.00737414,12.7994939 9.78649569,18.0483621 9.78649569,18.0483621 C9.78649569,18.0483621 0,20.0530237 0,30.5698579 C0.218183517,41.0696716 10.6280032,41.1773562 10.6280032,41.1773562 L26.2540575,41.1943096 L26.2540575,29.9528328 L18.7612361,29.9528328 L30.002646,18.712093 L41.2426486,29.9528328 L33.7483531,29.9528328 L33.7483531,41.1943096 L48.9210868,41.1772892 C48.9210868,41.1772892 58.6084752,41.1857994 59.9699108,31.1966664 C60.6172243,20.2704701 50.6055761,18.1170471 50.6055761,18.1170471 C50.6055761,18.1170471 51.7445397,1.94338972 37.6853728,0.0995513732 C25.6336819,-1.19735397 21.9671802,10.605798 21.9671802,10.605798 Z" id="路径"></path>
                </g>
            </g>
        </g>
    </g>
</svg>