<?xml version="1.0" encoding="UTF-8"?>
<svg width="110px" height="110px" viewBox="0 0 110 110" version="1.1" xmlns="http://www.w3.org/2000/svg" xmlns:xlink="http://www.w3.org/1999/xlink">
    <title>1-icon/烧录镜像</title>
    <g id="1-icon/烧录镜像" stroke="none" stroke-width="1" fill="none" fill-rule="evenodd">
        <rect id="Rectangle-Copy" fill="#DFE5EF" x="34" y="15" width="72" height="91" rx="2"></rect>
        <g id="Group" transform="translate(4.000000, 4.000000)">
            <rect id="Rectangle-Copy-2" fill="#F4F6FA" x="10.4035309" y="53.2417582" width="54.0983607" height="5.21978022"></rect>
            <path d="M14.5642371,0 L45.7466831,0 C46.2956659,-9.89024931e-16 46.8223872,0.217033881 47.212011,0.603783809 L74.3853278,27.5766748 C74.7787385,27.9671838 74.9999999,28.4985722 74.9999999,29.052891 L74.9999999,92.92 C74.9999999,94.0687523 74.0687522,95 72.9199999,95 L14.5642371,95 C13.4154848,95 12.4842371,94.0687523 12.4842371,92.92 L12.4842371,2.08 C12.4842371,0.93124772 13.4154848,-1.56533447e-15 14.5642371,0 Z" id="Rectangle-Copy" fill="#C3CEDF"></path>
            <path d="M45.9100213,1 L45.9104666,21.9468132 C45.9104666,23.946084 46.7208312,25.756084 48.0310135,27.0662663 C49.3411958,28.3764486 51.1511958,29.1868132 53.1505038,29.1868132 L74,29.1860372 L74,92.92 C74,93.2182338 73.8791169,93.4882338 73.6836753,93.6836753 C73.4882338,93.8791169 73.2182338,94 72.92,94 L2.08,94 C1.78176624,94 1.51176624,93.8791169 1.31632468,93.6836753 C1.12088312,93.4882338 1,93.2182338 1,92.92 L1,2.08 C1,1.78176624 1.12088312,1.51176624 1.31632468,1.31632468 C1.51176624,1.12088312 1.78176624,1 2.08,1 L45.9100213,1 Z" id="Combined-Shape" stroke="#FFFFFF" stroke-width="2" fill="#EBEFF6"></path>
            <rect id="Rectangle-Copy-4" fill="#F4F6FA" x="10.4035309" y="53.2417582" width="54.0983607" height="5.21978022"></rect>
            <rect id="Rectangle-Copy-2" fill="#FFFFFF" x="10.4035309" y="53.2417582" width="53.0580076" height="4.17582418"></rect>
            <rect id="Rectangle" fill="#F4F6FA" x="10.4035309" y="36.5384615" width="54.0983607" height="5.21978022"></rect>
            <rect id="Rectangle-Copy-3" fill="#F4F6FA" x="37.4527112" y="69.9450549" width="27.0491803" height="5.21978022"></rect>
            <rect id="Rectangle" fill="#FFFFFF" x="10.4035309" y="36.5384615" width="53.0580076" height="4.17582418"></rect>
            <rect id="Rectangle-Copy-3" fill="#FFFFFF" x="37.4527112" y="69.9450549" width="26.0088272" height="4.17582418"></rect>
        </g>
        <path d="M82.4597996,52.0160942 C82.7165073,52.0160942 82.9676447,52.0909467 83.1824637,52.2314872 L96.4252985,60.895311 C97.0353561,61.2944274 97.2063578,62.1125245 96.8072415,62.7225821 C96.7076154,62.8748626 96.577579,63.004899 96.4252985,63.1045251 L83.1824637,71.7683489 C82.5724061,72.1674653 81.754309,71.9964636 81.3551926,71.386406 C81.2146522,71.171587 81.1397996,70.9204496 81.1397996,70.6637419 L81.139,67.878 L73.32,67.8789285 C72.5909841,67.8789285 72,67.2879443 72,66.5589285 L72,57.4409076 C72,56.7118918 72.5909841,56.1209076 73.32,56.1209076 L81.139,56.12 L81.1397996,53.3360942 C81.1397996,52.6070783 81.7307838,52.0160942 82.4597996,52.0160942 Z" id="Combined-Shape" fill="#B3BFD3"></path>
        <path d="M96.8072415,62.7225821 C96.7076154,62.8748626 96.577579,63.004899 96.4252985,63.1045251 L83.1824637,71.7683489 C82.5724061,72.1674653 81.754309,71.9964636 81.3551926,71.386406 C81.2146522,71.171587 81.1397996,70.9204496 81.1397996,70.6637419 L81.139,67.878 L73.32,67.8789285 C72.5909841,67.8789285 72,67.2879443 72,66.5589285 L72,61.9997305 L97.0227844,61.9995875 C97.0230779,62.2479573 96.9533746,62.4992146 96.8072415,62.7225821 Z" id="Combined-Shape" fill="#C3CEDF"></path>
    </g>
</svg>