<?xml version="1.0" encoding="UTF-8"?>
<svg width="182px" height="58px" viewBox="0 0 182 58" version="1.1" xmlns="http://www.w3.org/2000/svg" xmlns:xlink="http://www.w3.org/1999/xlink">
    <title>编组</title>
    <g id="-page1" stroke="none" stroke-width="1" fill="none" fill-rule="evenodd">
        <g id="首页选择功能-copy-2" transform="translate(-598.000000, -110.000000)" fill="#000000" fill-rule="nonzero">
            <g id="Group" transform="translate(0.000000, -0.257599)">
                <g id="编组" transform="translate(598.000000, 110.257599)">
                    <g transform="translate(63.000000, 15.000000)">
                        <path d="M91.3319872,7.00640459 L89.2045802,7.00640459 C85.4772224,7.00640459 82.4238365,10.0951855 82.400394,13.8875883 L82.3183452,26.9940371 L85.6882049,26.9940371 L85.6764836,14.1499558 C85.6764836,13.1720406 86.045703,12.2597173 86.7255356,11.5680212 C87.3995075,10.8763251 88.3020438,10.5006625 89.2573258,10.5006625 L91.0037922,10.530477 C93.0139867,10.5602915 94.6491012,12.2537544 94.6491012,14.2990283 L94.6491012,27 L98.0131002,27 L98.0131002,13.8160336 C98.0131002,10.0594081 95.0183206,7.00640459 91.3319872,7.00640459 Z" id="路径"></path>
                        <path d="M115.594977,0.250441696 L115.594977,8.50309187 C114.000886,7.01833039 111.990692,6.23719081 109.734351,6.23719081 C104.231224,6.23719081 99.9178035,10.7868816 99.9178035,16.5947438 C99.9178035,22.4264576 104.231224,26.9940371 109.734351,26.9940371 C112.014134,26.9940371 114.024329,26.2307862 115.594977,24.7818021 L115.594977,26.8330389 L119,26.8330389 L119,0.256404594 L115.594977,0.256404594 L115.594977,0.250441696 Z M109.734351,9.70163428 C113.678552,9.70163428 115.477764,13.2734099 115.477764,16.5947438 C115.477764,19.9160777 113.678552,23.4878534 109.734351,23.4878534 C106.135927,23.4878534 103.316966,20.4587014 103.316966,16.5947438 C103.316966,12.7307862 106.135927,9.70163428 109.734351,9.70163428 Z" id="形状"></path>
                        <path d="M32.5088894,14.8416519 L31.3484856,14.5852473 C29.0159567,14.0784011 28.1720266,13.3747792 28.1720266,12.396864 C28.1720266,11.2460247 29.7368136,10.4052562 31.3719281,10.4052562 C33.0656489,10.4052562 34.4135927,11.2162102 34.4135927,12.6234541 L34.4135927,13.2912986 L38.4105393,13.2912986 L38.4105393,12.6234541 C38.4105393,9.11727032 35.5388328,7.02429329 31.3719281,7.02429329 C27.4218665,7.02429329 24.17508,9.28423145 24.17508,12.3909011 C24.17508,15.2292403 26.4548633,17.0419611 30.3756218,17.92447 L31.4891406,18.1510601 C34.9644915,18.9023852 35.2516622,19.9220406 35.2516622,20.8999558 C35.2516622,22.5099382 33.6692933,23.6309629 31.4012312,23.6309629 C29.1859148,23.6309629 27.5801034,22.289311 27.5801034,20.4408127 L27.5801034,19.7729682 L23.5831569,19.7729682 L23.5831569,20.4408127 C23.5831569,24.2928445 26.8006402,26.9821113 31.4012312,26.9821113 C35.9842403,26.9821113 39.3130756,24.4240283 39.3130756,20.8999558 C39.3130756,16.9227032 36.0428466,15.6347173 32.5088894,14.8416519 Z" id="路径"></path>
                        <g transform="translate(61.026693, 6.726148)">
                            <path d="M14.5167693,15.4081272 C13.4501354,16.3323763 11.7739966,16.8034452 9.54109825,16.8034452 C6.54045802,16.8034452 4.1200197,14.6568021 3.51637528,11.460689 L3.46362965,11.1804329 L0,11.1804329 L0.0410243782,11.5680212 C0.293031273,14.0366608 1.2424526,16.0819346 2.8541246,17.6561396 C4.57714849,19.319788 7.01516868,20.2738516 9.54695888,20.2738516 C12.5710416,20.2738516 15.0149224,19.5225265 16.8082738,18.037765 L17.7576951,17.2506625 L15.2962325,14.7462456 L14.5167693,15.4081272 Z" id="路径"></path>
                            <path d="M16.5152426,2.91585689 C15.0266437,1.50265018 12.4069441,0 9.54109825,0 C4.62403349,0 0.726717557,3.57177562 0.0644668801,8.6819788 L0.0117212509,9.07553004 L3.46362965,9.07553004 L3.5222359,8.79527385 C4.14932283,5.62897527 6.56390052,3.50022085 9.54109825,3.50022085 C12.4655504,3.50022085 14.9738981,5.50375442 15.7768037,8.41961131 L12.3717803,8.41961131 L12.3659197,11.8423145 L19.3283428,11.8423145 L19.4396947,10.2323322 C19.621374,7.63847173 18.4726915,4.76435512 16.5152426,2.91585689 Z" id="路径"></path>
                            <rect id="矩形" x="5.96025609" y="8.56272085" width="3.8680128" height="3.06492933"></rect>
                        </g>
                        <path d="M11.0531396,0 L0,26.9940371 L4.24309283,26.9940371 L7.48987934,18.1391343 L16.0522531,18.1391343 L19.3049003,26.9940371 L23.5421325,26.9940371 L12.940261,0.0298144876 L11.0531396,0 Z M14.7570549,14.5554329 L8.84368382,14.5554329 L11.6685053,7.4774735 C11.7153903,7.36417845 11.8267422,7.35821555 11.8677666,7.35821555 C11.9029303,7.35821555 12.0201428,7.37014134 12.0670278,7.4834364 L14.7570549,14.5554329 Z" id="形状"></path>
                        <g transform="translate(41.077124, 7.560954)" id="路径">
                            <path d="M10.1857671,3.31537102 C11.9322334,3.47636926 13.4208323,4.26347173 14.4288599,5.58127208 L14.5284905,5.71841873 L18.3496183,5.71841873 L18.1093327,5.21753534 C16.6441763,2.12875442 13.708003,0.214664311 10.1799064,0 L10.1799064,3.31537102 L10.1857671,3.31537102 Z"></path>
                            <path d="M3.37572027,8.71179329 C3.74493967,6.0284894 5.60275794,3.98321555 8.12868752,3.43462898 L8.12868752,0.0655918728 C3.63358779,0.64995583 0.398522531,4.06073322 0,8.71179329 L3.37572027,8.71179329 Z"></path>
                            <path d="M14.739473,13.3390018 L14.6339818,13.4940371 C13.5146023,15.1696113 11.6450628,16.1296378 9.51179512,16.1296378 C6.33533612,16.1296378 3.86215218,13.905477 3.38744152,10.8107332 L0.00586062546,10.8107332 C0.492292539,15.8732332 4.34272347,19.4390459 9.51765575,19.4390459 C13.5907904,19.4390459 16.8903226,17.340106 18.3378971,13.8339223 L18.5371583,13.3449647 L14.739473,13.3449647 L14.739473,13.3390018 Z"></path>
                        </g>
                    </g>
                    <g id="路径" fill="#d5000d">
                        <path d="M22.0854886,40.0097235 C31.7399573,28.9891534 41.5972511,22.2009512 50,19.0940884 L49.936255,2.58081932 C49.80297,0.177397132 46.8764954,-0.889487841 45.2596906,0.880837774 L37.8884515,8.93523312 L1.08441124,50.8485714 C-1.44800344,53.726816 0.759891281,58.2581461 4.5614108,57.9884939 C5.66246066,57.9064258 6.69397052,57.4022933 7.42993543,56.5698886 L22.0738986,40.0273095 C22.0738986,40.0214475 22.0796936,40.0155855 22.0854886,40.0097235 Z"></path>
                        <path d="M31.7283673,35.7656316 L44.2977207,51.7982162 C46.4882304,53.6447479 49.808765,51.9916624 49.68707,49.1075558 L50,29.68087 C42.7620459,28.9129473 36.8221717,31.7149859 31.7283673,35.7656316 Z"></path>
                    </g>
                </g>
            </g>
        </g>
    </g>
</svg>