<?xml version="1.0" encoding="UTF-8"?>
<svg width="101px" height="116px" viewBox="0 0 101 116" version="1.1" xmlns="http://www.w3.org/2000/svg" xmlns:xlink="http://www.w3.org/1999/xlink">
    <title>全红</title>
    <g id="页面-1" stroke="none" stroke-width="1" fill="none" fill-rule="evenodd">
        <g id="全红" fill="#C21E20">
            <path d="M44.5694,79.4424 C63.9604,57.5644 83.7594,44.0774 100.6404,37.9164 L100.5154,5.1264 C100.2434,0.3484 94.3684,-1.7626 91.1164,1.7474 L76.3104,17.7404 L2.3794,100.9644 C-2.7026,106.6824 1.7264,115.6814 9.3584,115.1464 C11.5714,114.9894 13.6374,113.9774 15.1164,112.3254 L44.5284,79.4784 C44.5434,79.4664 44.5574,79.4564 44.5694,79.4424" id="Fill-17"></path>
            <path d="M63.937,71.0088 L89.183,102.8448 C93.583,106.5138 100.249,103.2238 100.011,97.4988 L100.64,58.9298 C86.091,57.4068 74.166,62.9708 63.937,71.0088" id="Fill-18"></path>
        </g>
    </g>
</svg>