<?xml version="1.0" encoding="UTF-8"?>
<svg width="16px" height="16px" viewBox="0 0 16 16" version="1.1" xmlns="http://www.w3.org/2000/svg" xmlns:xlink="http://www.w3.org/1999/xlink">
    <title>工具栏/删除多边形 copy 2</title>
    <g id="工具栏/删除多边形-copy-2" stroke="none" stroke-width="1" fill="none" fill-rule="evenodd">
        <path d="M12.45,9 L13.8,9 C13.9104569,9 14,9.08954305 14,9.2 L14,12.3700254 C14,12.4490631 13.9534533,12.5206874 13.8812277,12.5527877 L6.25052099,15.9442129 C6.17489911,15.9778226 6.08638811,15.9613881 6.02787194,15.9028719 L0.09712806,9.97212806 C0.0386118985,9.91361189 0.022177382,9.82510089 0.0557871065,9.74947901 L3.44721231,2.11877231 C3.47931258,2.0465467 3.55093687,2 3.62997462,2 L6.8,2 C6.91045695,2 7,2.08954305 7,2.2 L7,3.55000001 C7,3.66045696 6.91045695,3.75000001 6.8,3.75000001 L4.76807642,3.75000001 C4.68873215,3.75000001 4.61689064,3.79690405 4.58497253,3.86954527 L2.15500645,9.3998129 C2.12184074,9.47529349 2.13839112,9.56339113 2.19668899,9.621689 L6.378311,13.803311 C6.43660887,13.8616089 6.52470651,13.8781593 6.6001871,13.8449935 L12.1304547,11.4150275 C12.203096,11.3831094 12.25,11.3112679 12.25,11.2319236 L12.25,9.2 C12.25,9.08954305 12.339543,9 12.45,9 Z" id="Path" fill="#FFFFFF" fill-rule="nonzero"></path>
        <path d="M16.4999629,2.30991854 L16.4999629,3.64983949 C16.4999629,3.76029644 16.4104198,3.84983949 16.2999629,3.84983949 L14.0900815,3.84983949 C13.9796245,3.84983949 13.8900815,3.93938254 13.8900815,4.04983949 L13.8900815,6.2597209 C13.8900815,6.37017786 13.8005384,6.45972091 13.6900815,6.45972091 L12.3501605,6.45972091 C12.2397036,6.45972091 12.1501605,6.37017786 12.1501605,6.2597209 L12.1501605,4.04983949 C12.1501605,3.93938254 12.0606175,3.84983949 11.9501605,3.84983949 L9.7402791,3.84983949 C9.62982214,3.84983949 9.54027909,3.76029644 9.54027909,3.64983949 L9.54027909,2.30991854 C9.54027909,2.19946158 9.62982214,2.10991853 9.7402791,2.10991853 L11.9501605,2.10991853 C12.0606175,2.10991853 12.1501605,2.02037548 12.1501605,1.90991853 L12.1501605,-0.299962882 C12.1501605,-0.410419833 12.2397036,-0.499962885 12.3501605,-0.499962885 L13.6900815,-0.499962885 C13.8005384,-0.499962885 13.8900815,-0.410419833 13.8900815,-0.299962882 L13.8900815,1.90991853 C13.8900815,2.02037548 13.9796245,2.10991853 14.0900815,2.10991853 L16.2999629,2.10991853 C16.4104198,2.10991853 16.4999629,2.19946158 16.4999629,2.30991854 Z" id="Path" fill="#64E6DA" fill-rule="nonzero" transform="translate(13.020121, 2.979879) rotate(-45.000000) translate(-13.020121, -2.979879) "></path>
    </g>
</svg>