<?xml version="1.0" standalone="no"?><!DOCTYPE svg PUBLIC "-//W3C//DTD SVG 1.1//EN" "http://www.w3.org/Graphics/SVG/1.1/DTD/svg11.dtd"><svg t="1661971864678" class="icon" viewBox="0 0 1024 1024" version="1.1" xmlns="http://www.w3.org/2000/svg" p-id="14060" xmlns:xlink="http://www.w3.org/1999/xlink" width="48" height="48"><path d="M860.224 480A304 304 0 1 0 256 432c0 140.192 94.912 258.24 224 293.376V758.4c-146.944-35.904-256-168.448-256-326.432C224 246.432 374.432 96 560 96S896 246.432 896 432c0 16.32-1.152 32.32-3.392 48h-32.384z m-203.392-232.128a208 208 0 0 0-290.4 260.448l-25.184 22.56a240 240 0 0 1 340.736-305.6l-25.152 22.592zM308.224 673.92a32 32 0 0 1 0 45.248l-181.024 181.024a32 32 0 1 1-45.248-45.248l181.024-181.024a32 32 0 0 1 45.248 0zM544 832h96v96h-96v-96z m0-128h96v96h-96v-96z m0-128h96v96h-96v-96z m128 256h96v96h-96v-96z m0-128h96v96h-96v-96z m128 128h96v96h-96v-96z m64-288h96v96h-96v-96z m3.872 128l67.904 67.872-67.904 67.904L800 739.84 867.872 672z m-128-128l67.904 67.872-67.904 67.904L672 611.84 739.872 544z" p-id="14061" fill="#ffffff"></path></svg>