<?xml version="1.0" encoding="UTF-8"?>
<svg width="16px" height="16px" viewBox="0 0 16 16" version="1.1" xmlns="http://www.w3.org/2000/svg" xmlns:xlink="http://www.w3.org/1999/xlink">
    <title>工具栏/复制矩形</title>
    <g id="工具栏/复制矩形" stroke="none" stroke-width="1" fill="none" fill-rule="evenodd">
        <path d="M13.6666667,1.5 L4,1.5 C3.17157288,1.5 2.5,2.17157288 2.5,3 L2.5,4.5 L11.6666667,4.5 L11.7544913,4.5058978 C11.9754798,4.53241185 12.1666667,4.74566675 12.1666667,5 L12.1659524,12.5 L13.6666667,12.5 C14.4950938,12.5 15.1666667,11.8284271 15.1666667,11 L15.1666667,3 C15.1666667,2.17157288 14.4950938,1.5 13.6666667,1.5 Z M13.6666667,2.5 C13.942809,2.5 14.1666667,2.72385763 14.1666667,3 L14.1666667,11 L14.158611,11.0898756 C14.116275,11.3231248 13.9121266,11.5 13.6666667,11.5 L13.165,11.5 L13.1666667,5.00004762 C13.1666667,4.23658968 12.593707,3.59749534 11.8409742,3.5100666 L11.6954632,3.50082993 L3.5,3.5 L3.5,3 C3.5,2.72385763 3.72385763,2.5 4,2.5 L13.6666667,2.5 Z" id="Combined-Shape" fill="#8D98AA" fill-rule="nonzero"></path>
        <path d="M11.6666667,3.5 L2,3.5 C1.17157288,3.5 0.5,4.17157288 0.5,5 L0.5,13 C0.5,13.8284271 1.17157288,14.5 2,14.5 L11.6666667,14.5 C12.4950938,14.5 13.1666667,13.8284271 13.1666667,13 L13.1666667,5 C13.1666667,4.17157288 12.4950938,3.5 11.6666667,3.5 Z M11.6666667,4.5 C11.942809,4.5 12.1666667,4.72385763 12.1666667,5 L12.1666667,13 C12.1666667,13.2761424 11.942809,13.5 11.6666667,13.5 L2,13.5 C1.72385763,13.5 1.5,13.2761424 1.5,13 L1.5,5 C1.5,4.72385763 1.72385763,4.5 2,4.5 L11.6666667,4.5 Z" id="Rectangle" fill="#8D98AA" fill-rule="nonzero"></path>
    </g>
</svg>