<?xml version="1.0" standalone="no"?><!DOCTYPE svg PUBLIC "-//W3C//DTD SVG 1.1//EN" "http://www.w3.org/Graphics/SVG/1.1/DTD/svg11.dtd"><svg t="1661971686288" class="icon" viewBox="0 0 1024 1024" version="1.1" xmlns="http://www.w3.org/2000/svg" p-id="13555" xmlns:xlink="http://www.w3.org/1999/xlink" width="48" height="48"><path d="M512 512m-64 0a64 64 0 1 0 128 0 64 64 0 1 0-128 0Z" p-id="13556" fill="#ffffff"></path><path d="M895.68 528h-64.064c-6.624 134.4-96.128 246.976-218.496 287.68v-33.92a288.096 288.096 0 0 0 0-539.52V208.32c122.368 40.704 211.84 153.28 218.496 287.68h64.064C887.296 291.328 718.72 128 512 128 299.936 128 128 299.936 128 512c0 108.416 44.928 206.336 117.184 276.16l45.28-45.248A319.072 319.072 0 0 1 192 512c0-61.728 17.472-119.36 47.744-168.224l-0.96-0.864 5.76-6.624a319.84 319.84 0 0 1 240.576-143.168v32.128a287.68 287.68 0 0 0-202.88 113.056L330.688 380.48a224.96 224.96 0 0 1 9.344-12l23.488 21.824a192 192 0 0 0 280.544 261.12l23.456 21.792A224 224 0 0 1 313.6 407.936l-49.312-42.88a288.032 288.032 0 0 0 220.864 433.696v32.128a318.432 318.432 0 0 1-170.432-66.944L269.12 809.472A382.4 382.4 0 0 0 512 896c206.72 0 375.296-163.328 383.68-368zM512 928C282.24 928 96 741.76 96 512S282.24 96 512 96s416 186.24 416 416-186.24 416-416 416z m204.224-323.872l-24.96-23.264a192 192 0 0 0-260.704-242.816l-24.96-23.232a224 224 0 0 1 310.624 289.28v0.032zM512 592a80 80 0 1 1 0-160 80 80 0 0 1 0 160z m0-32a48 48 0 1 0 0-96 48 48 0 0 0 0 96zM544 256a32 32 0 1 1 0-64 32 32 0 0 1 0 64z m96 352a32 32 0 1 1 0-64 32 32 0 0 1 0 64z" p-id="13557" fill="#ffffff"></path></svg>