<?xml version="1.0" encoding="UTF-8"?>
<svg width="16px" height="16px" viewBox="0 0 16 16" version="1.1" xmlns="http://www.w3.org/2000/svg" xmlns:xlink="http://www.w3.org/1999/xlink">
    <title>工具栏/模型推理 copy 2</title>
    <g id="工具栏/模型推理-copy-2" stroke="none" stroke-width="1" fill="none" fill-rule="evenodd">
        <path d="M8,0 C8.19363636,0 8.42068181,0.0575880812 8.6825,0.172764228 L15.1004546,3.07181572 C15.3437249,3.18175707 15.5,3.42278808 15.5,3.68834689 L15.5,12.300813 C15.5,12.5663718 15.3437249,12.8074028 15.1004546,12.9173442 L8.67636363,15.8191057 C8.3790909,15.9397019 8.15340909,16 8,16 C7.84659091,16 7.62090909,15.9397019 7.325,15.8197832 L0.899545444,12.9173442 C0.656275088,12.8074028 0.5,12.5663718 0.5,12.300813 L0.5,3.68834689 C0.5,3.42278808 0.656275088,3.18175707 0.899545444,3.07181572 L7.31681818,0.172764228 C7.57931819,0.0575880812 7.80636364,0 8,0 Z M8,1.35772358 L7.88136364,1.40650407 L1.86363636,4.12398374 L1.86363636,11.8644987 L7.83977272,14.5650407 L7.97272727,14.6158537 L8,14.6246613 L8.11181818,14.5860434 L14.1363636,11.8631436 L14.1363636,4.12466125 L8.08386364,1.39159893 L8,1.35772358 Z" id="Shape" fill="#FFFFFF" fill-rule="nonzero"></path>
        <path d="M12.1484954,6.36490396 L8.98264907,7.68644046 L8.98264907,7.68644046 L8.98264907,11.1997199 C8.98264907,11.3101768 8.89310602,11.3997199 8.78264907,11.3997199 L7.16231438,11.3997199 C7.05185743,11.3997199 6.96231438,11.3101768 6.96231438,11.1997199 L6.96231438,7.68644046 L6.96231438,7.68644046 L3.89165544,6.36792441 C3.79015966,6.32434295 3.74321083,6.2067346 3.7867923,6.10523882 C3.78838854,6.10152137 3.79009721,6.09785322 3.79191595,6.09423942 L4.49852569,4.69021917 C4.54575549,4.59637445 4.6575439,4.55506969 4.75444583,4.5956591 L8,5.95512754 L8,5.95512754 L11.3308788,4.59508968 C11.429131,4.55497209 11.5416105,4.59858184 11.5871409,4.69444588 L12.2521105,6.09453529 C12.2994986,6.19431058 12.2570304,6.31361006 12.1572551,6.36099813 C12.1543668,6.36236991 12.1514461,6.36367222 12.1484954,6.36490396 Z" id="Path" fill="#64E6DA" fill-rule="nonzero"></path>
        <rect id="Rectangle" x="0" y="0" width="16" height="16"></rect>
    </g>
</svg>