<?xml version="1.0" encoding="UTF-8"?>
<svg width="16px" height="16px" viewBox="0 0 16 16" version="1.1" xmlns="http://www.w3.org/2000/svg" xmlns:xlink="http://www.w3.org/1999/xlink">
    <title>工具栏/创建多边形 copy 2</title>
    <g id="工具栏/创建多边形-copy-2" stroke="none" stroke-width="1" fill="none" fill-rule="evenodd">
        <path d="M11.982084,9.27941527 L13.2692504,9.27941527 C13.3797073,9.27941527 13.4692504,9.36895832 13.4692504,9.47941527 L13.4692504,12.5237735 C13.4692504,12.6028112 13.4227037,12.6744355 13.3504781,12.7065358 L6.00252252,15.9722938 C5.92690064,16.0059035 5.83838964,15.989469 5.77987347,15.9309528 L0.0690471504,10.2201265 C0.0105309889,10.1616104 -0.00590352752,10.0730994 0.027706197,9.99747748 L3.29346423,2.64952192 C3.32556449,2.57729632 3.39718879,2.53074962 3.47622654,2.53074962 L6.52058473,2.53074962 C6.63104168,2.53074962 6.72058473,2.62029267 6.72058473,2.73074962 L6.72058473,4.01791604 C6.72058473,4.12837299 6.63104168,4.21791604 6.52058473,4.21791604 L4.5734865,4.21791604 C4.49414223,4.21791604 4.42230072,4.26482007 4.39038261,4.3374613 L2.05152524,9.66037809 C2.01835953,9.73585867 2.03490991,9.82395632 2.09320777,9.88225419 L6.11774581,13.9067922 C6.17604368,13.9650901 6.26414133,13.9816405 6.33962191,13.9484748 L11.6625387,11.6096174 C11.7351799,11.5776993 11.782084,11.5058578 11.782084,11.4265135 L11.782084,9.47941527 C11.782084,9.36895832 11.871627,9.27941527 11.982084,9.27941527 Z" id="Path" fill="#FFFFFF" fill-rule="nonzero"></path>
        <path d="M16,2.73074962 L16,4.01791604 C16,4.12837299 15.9104569,4.21791604 15.8,4.21791604 L13.6692504,4.21791604 C13.5587934,4.21791604 13.4692504,4.30745909 13.4692504,4.41791604 L13.4692504,6.54866565 C13.4692504,6.65912261 13.3797073,6.74866566 13.2692504,6.74866566 L11.982084,6.74866566 C11.871627,6.74866566 11.782084,6.65912261 11.782084,6.54866565 L11.782084,4.41791604 C11.782084,4.30745909 11.6925409,4.21791604 11.582084,4.21791604 L9.45133435,4.21791604 C9.34087739,4.21791604 9.25133434,4.12837299 9.25133434,4.01791604 L9.25133434,2.73074962 C9.25133434,2.62029267 9.34087739,2.53074962 9.45133435,2.53074962 L11.582084,2.53074962 C11.6925409,2.53074962 11.782084,2.44120656 11.782084,2.33074961 L11.782084,0.200000003 C11.782084,0.0895430514 11.871627,2.72012726e-16 11.982084,0 L13.2692504,0 C13.3797073,-2.02906128e-17 13.4692504,0.0895430514 13.4692504,0.200000003 L13.4692504,2.33074961 C13.4692504,2.44120656 13.5587934,2.53074962 13.6692504,2.53074962 L15.8,2.53074962 C15.9104569,2.53074962 16,2.62029267 16,2.73074962 Z" id="Path" fill="#64E6DA" fill-rule="nonzero"></path>
    </g>
</svg>