<?xml version="1.0" encoding="UTF-8"?>
<svg width="16px" height="16px" viewBox="0 0 16 16" version="1.1" xmlns="http://www.w3.org/2000/svg" xmlns:xlink="http://www.w3.org/1999/xlink">
    <title>工具栏/打开图片 copy 5</title>
    <g id="工具栏/打开图片-copy-5" stroke="none" stroke-width="1" fill="none" fill-rule="evenodd">
        <path d="M13.4806951,2.5 C14.3091222,2.5 14.9806951,3.17157288 14.9806951,4 L14.9806951,8.79235483 C14.9806951,9.0684972 14.7568374,9.29235483 14.4806951,9.29235483 C14.2045527,9.29235483 13.9806951,9.0684972 13.9806951,8.79235483 L13.9806951,4 C13.9806951,3.72385763 13.7568374,3.5 13.4806951,3.5 L2.48069507,3.5 C2.2045527,3.5 1.98069507,3.72385763 1.98069507,4 L1.98069507,13 C1.98069507,13.2761424 2.2045527,13.5 2.48069507,13.5 L8.2958578,13.5 C8.57200018,13.5 8.7958578,13.7238576 8.7958578,14 C8.7958578,14.2761424 8.57200018,14.5 8.2958578,14.5 L2.48069507,14.5 C1.65226795,14.5 0.980695072,13.8284271 0.980695072,13 L0.980695072,4 C0.980695072,3.17157288 1.65226795,2.5 2.48069507,2.5 L13.4806951,2.5 Z" id="Path-36" fill="#8D98AA" fill-rule="nonzero"></path>
        <path d="M5,4.5 C4.17157288,4.5 3.5,5.17157288 3.5,6 C3.5,6.82842712 4.17157288,7.5 5,7.5 C5.82842712,7.5 6.5,6.82842712 6.5,6 C6.5,5.17157288 5.82842712,4.5 5,4.5 Z M5,5.5 C5.27614237,5.5 5.5,5.72385763 5.5,6 C5.5,6.27614237 5.27614237,6.5 5,6.5 C4.72385763,6.5 4.5,6.27614237 4.5,6 C4.5,5.72385763 4.72385763,5.5 5,5.5 Z" id="Oval" fill="#8D98AA" fill-rule="nonzero"></path>
        <path d="M10.6742033,5.64540204 C10.8705637,5.45020026 11.1881695,5.45173763 11.382631,5.64883118 L13.355922,7.64883118 C13.5498672,7.84540146 13.5477391,8.1619768 13.3511688,8.35592199 C13.1545985,8.54986717 12.8380232,8.5477391 12.644078,8.35116882 L11.0226951,6.708 L6.85250572,10.854598 C6.69844669,11.007748 6.46647766,11.0416925 6.27783886,10.9479953 L6.2,10.9 L4.51469507,9.636 L1.79957467,11.8851179 C1.61051268,12.0416622 1.34046645,12.0356242 1.15910095,11.8829675 L1.09557717,11.8188796 C0.919464828,11.6061849 0.949120725,11.2909944 1.16181547,11.1148821 L4.1811204,8.6148821 C4.35917042,8.46745577 4.6150696,8.4613022 4.8,8.6 L6.45369507,9.84 L10.6742033,5.64540204 Z" id="Path-37" fill="#8D98AA" fill-rule="nonzero"></path>
        <path d="M14,11.5 C14.2761424,11.5 14.5,11.7238576 14.5,12 C14.5,12.2761424 14.2761424,12.5 14,12.5 L10,12.5 C9.72385763,12.5 9.5,12.2761424 9.5,12 C9.5,11.7238576 9.72385763,11.5 10,11.5 L14,11.5 Z" id="Path-19" fill="#8D98AA" fill-rule="nonzero"></path>
        <path d="M12,9.5 C12.2761424,9.5 12.5,9.72385763 12.5,10 L12.5,14 C12.5,14.2761424 12.2761424,14.5 12,14.5 C11.7238576,14.5 11.5,14.2761424 11.5,14 L11.5,10 C11.5,9.72385763 11.7238576,9.5 12,9.5 Z" id="Path-19" fill="#8D98AA" fill-rule="nonzero"></path>
    </g>
</svg>