<?xml version="1.0" encoding="UTF-8"?>
<svg width="16px" height="16px" viewBox="0 0 16 16" version="1.1" xmlns="http://www.w3.org/2000/svg" xmlns:xlink="http://www.w3.org/1999/xlink">
    <title>工具栏/复制多边形 copy 3</title>
    <g id="工具栏/复制多边形-copy-3" stroke="none" stroke-width="1" fill="none" fill-rule="evenodd">
        <g id="copy-copy">
            <path d="M13.162,1.278125 L14.8,1.278125 C14.9104569,1.278125 15,1.36766805 15,1.478125 L15,15.3 C15,15.4104569 14.9104569,15.5 14.8,15.5 L3.238,15.5 C3.12754305,15.5 3.038,15.4104569 3.038,15.3 L3.038,13.9225 C3.038,13.8120431 2.94845695,13.7225 2.838,13.7225 L1.2,13.7225 C1.08954305,13.7225 1,13.6329569 1,13.5225 L1,4.75657827 C1,4.69969598 1.024221,4.64550469 1.06660214,4.60756481 L5.59804496,0.55098654 C5.63472114,0.518153768 5.68221748,0.5 5.73144282,0.5 L12.762,0.5 C12.8724569,0.5 12.962,0.589543051 12.962,0.700000003 L12.962,1.078125 C12.962,1.18858195 13.0515431,1.278125 13.162,1.278125 Z M12.962,2.463125 L12.962,13.7225 L4.367,13.7225 L4.367,14.315 L13.671,14.315 L13.671,2.463125 L12.961,2.463125 L12.962,2.463125 Z M2.329,5.1575 L2.329,12.5375 L11.633,12.5375 L11.633,1.685 L6.207,1.685 L2.33,5.1575 L2.329,5.1575 Z" id="Shape" fill="#FFFFFF" fill-rule="nonzero"></path>
            <polyline id="Path-2" stroke="#FFFFFF" points="13.3427289 2.00210482 13.3427289 13.9849181 4.07592064 13.9849181"></polyline>
            <rect id="Rectangle" x="0" y="0" width="16" height="16"></rect>
        </g>
        <polygon id="Path-13" fill="#64E6DA" style="mix-blend-mode: darken;" points="12.9518982 0.804316877 12.9518982 13.7217625 2.72902197 13.7217625 2.72902197 16 16 16 16 0.804316877"></polygon>
    </g>
</svg>