<?xml version="1.0" encoding="UTF-8"?>
<svg width="16px" height="16px" viewBox="0 0 16 16" version="1.1" xmlns="http://www.w3.org/2000/svg" xmlns:xlink="http://www.w3.org/1999/xlink">
    <title>工具栏/创建关键点</title>
    <g id="工具栏/创建关键点" stroke="none" stroke-width="1" fill="none" fill-rule="evenodd">
        <path d="M8,1 C11.8659932,1 15,4.13400675 15,8 C15,11.8659932 11.8659932,15 8,15 C4.13400675,15 1,11.8659932 1,8 C1,4.13400675 4.13400675,1 8,1 Z M8,2 C4.6862915,2 2,4.6862915 2,8 C2,11.3137085 4.6862915,14 8,14 C11.3137085,14 14,11.3137085 14,8 C14,4.6862915 11.3137085,2 8,2 Z" id="Oval" fill="#8D98AA" fill-rule="nonzero"></path>
        <path d="M10,7.5 C10.2761424,7.5 10.5,7.72385763 10.5,8 C10.5,8.27614237 10.2761424,8.5 10,8.5 L6,8.5 C5.72385763,8.5 5.5,8.27614237 5.5,8 C5.5,7.72385763 5.72385763,7.5 6,7.5 L10,7.5 Z" id="Path-19-Copy" fill="#8D98AA" fill-rule="nonzero"></path>
        <path d="M8,5.5 C8.27614237,5.5 8.5,5.72385763 8.5,6 L8.5,10 C8.5,10.2761424 8.27614237,10.5 8,10.5 C7.72385763,10.5 7.5,10.2761424 7.5,10 L7.5,6 C7.5,5.72385763 7.72385763,5.5 8,5.5 Z" id="Path-19-Copy-2" fill="#8D98AA" fill-rule="nonzero"></path>
        <path d="M8,0.1 C8.27614237,0.1 8.5,0.323857625 8.5,0.6 L8.5,2.89304077 C8.5,3.16918314 8.27614237,3.39304077 8,3.39304077 C7.72385763,3.39304077 7.5,3.16918314 7.5,2.89304077 L7.5,0.6 C7.5,0.323857625 7.72385763,0.1 8,0.1 Z" id="Path-23" fill="#8D98AA" fill-rule="nonzero"></path>
        <path d="M14.2534796,6.35347962 C14.529622,6.35347962 14.7534796,6.57733724 14.7534796,6.85347962 L14.7534796,9.14652038 C14.7534796,9.42266276 14.529622,9.64652038 14.2534796,9.64652038 C13.9773372,9.64652038 13.7534796,9.42266276 13.7534796,9.14652038 L13.7534796,6.85347962 C13.7534796,6.57733724 13.9773372,6.35347962 14.2534796,6.35347962 Z" id="Path-23" fill="#8D98AA" fill-rule="nonzero" transform="translate(14.253480, 8.000000) rotate(90.000000) translate(-14.253480, -8.000000) "></path>
        <path d="M8,12.6069592 C8.27614237,12.6069592 8.5,12.8308169 8.5,13.1069592 L8.5,15.4 C8.5,15.6761424 8.27614237,15.9 8,15.9 C7.72385763,15.9 7.5,15.6761424 7.5,15.4 L7.5,13.1069592 C7.5,12.8308169 7.72385763,12.6069592 8,12.6069592 Z" id="Path-23" fill="#8D98AA" fill-rule="nonzero" transform="translate(8.000000, 14.253480) rotate(180.000000) translate(-8.000000, -14.253480) "></path>
        <path d="M1.74652038,6.35347962 C2.02266276,6.35347962 2.24652038,6.57733724 2.24652038,6.85347962 L2.24652038,9.14652038 C2.24652038,9.42266276 2.02266276,9.64652038 1.74652038,9.64652038 C1.47037801,9.64652038 1.24652038,9.42266276 1.24652038,9.14652038 L1.24652038,6.85347962 C1.24652038,6.57733724 1.47037801,6.35347962 1.74652038,6.35347962 Z" id="Path-23" fill="#8D98AA" fill-rule="nonzero" transform="translate(1.746520, 8.000000) rotate(270.000000) translate(-1.746520, -8.000000) "></path>
    </g>
</svg>