<?xml version="1.0" encoding="UTF-8"?>
<svg width="16px" height="16px" viewBox="0 0 16 16" version="1.1" xmlns="http://www.w3.org/2000/svg" xmlns:xlink="http://www.w3.org/1999/xlink">
    <title>工具栏/钢笔工具</title>
    <g id="工具栏/钢笔工具" stroke="none" stroke-width="1" fill="none" fill-rule="evenodd">
        <g id="Group" transform="translate(0.700000, 0.600000)" fill="#8D98AA">
            <path d="M8.81274894,1.84518832 L2.91789954,4.36543121 C2.77181131,4.42788876 2.66227089,4.55304383 2.62026477,4.7054929 L0.0191682905,14.145421 C-0.088675627,14.5368094 0.276318766,14.8945094 0.668544835,14.7818198 L10.0542578,12.0852324 C10.2033835,12.0423874 10.3256391,11.935888 10.3879265,11.7945666 L12.9560543,5.967841 C13.0424401,5.7718435 12.9991008,5.54325218 12.8468687,5.39194619 L9.38897375,1.95508819 C9.23764045,1.80467556 9.00934962,1.76113503 8.81274894,1.84518832 Z M8.90025639,2.93872879 L11.8549584,5.8754552 L9.52758166,11.1534571 L1.27407215,13.5259081 L3.56276386,5.22077097 L8.90025639,2.93872879 Z" id="Path-21" fill-rule="nonzero"></path>
            <polygon id="Path-22" fill-rule="nonzero" points="5.6746474 8.47552544 6.38305519 9.18132881 0.876670801 14.7080317 0.168263015 14.0022283"></polygon>
            <rect id="Rectangle" transform="translate(11.335534, 3.535534) rotate(-315.000000) translate(-11.335534, -3.535534) " x="7.33553391" y="2.53553391" width="8" height="2" rx="1"></rect>
            <path d="M7.0288513,6.32842712 C7.85727842,6.32842712 8.5288513,7 8.5288513,7.82842712 C8.5288513,8.65685425 7.85727842,9.32842712 7.0288513,9.32842712 C6.20042417,9.32842712 5.5288513,8.65685425 5.5288513,7.82842712 C5.5288513,7 6.20042417,6.32842712 7.0288513,6.32842712 Z M7.0288513,7.32842712 C6.75270892,7.32842712 6.5288513,7.55228475 6.5288513,7.82842712 C6.5288513,8.1045695 6.75270892,8.32842712 7.0288513,8.32842712 C7.30499367,8.32842712 7.5288513,8.1045695 7.5288513,7.82842712 C7.5288513,7.55228475 7.30499367,7.32842712 7.0288513,7.32842712 Z" id="Oval" fill-rule="nonzero"></path>
        </g>
    </g>
</svg>