<?xml version="1.0" encoding="UTF-8"?>
<svg width="16px" height="16px" viewBox="0 0 16 16" version="1.1" xmlns="http://www.w3.org/2000/svg" xmlns:xlink="http://www.w3.org/1999/xlink">
    <title>工具栏/创建矩形</title>
    <g id="工具栏/创建矩形" stroke="none" stroke-width="1" fill="none" fill-rule="evenodd">
        <path d="M14,1.5 L2,1.5 C1.17157288,1.5 0.5,2.17157288 0.5,3 L0.5,13 C0.5,13.8284271 1.17157288,14.5 2,14.5 L14,14.5 C14.8284271,14.5 15.5,13.8284271 15.5,13 L15.5,3 C15.5,2.17157288 14.8284271,1.5 14,1.5 Z M14,2.5 C14.2761424,2.5 14.5,2.72385763 14.5,3 L14.5,13 C14.5,13.2761424 14.2761424,13.5 14,13.5 L2,13.5 C1.72385763,13.5 1.5,13.2761424 1.5,13 L1.5,3 C1.5,2.72385763 1.72385763,2.5 2,2.5 L14,2.5 Z" id="Rectangle" fill="#8D98AA" fill-rule="nonzero"></path>
        <path d="M10,7.5 C10.2761424,7.5 10.5,7.72385763 10.5,8 C10.5,8.27614237 10.2761424,8.5 10,8.5 L6,8.5 C5.72385763,8.5 5.5,8.27614237 5.5,8 C5.5,7.72385763 5.72385763,7.5 6,7.5 L10,7.5 Z" id="Path-19" fill="#8D98AA" fill-rule="nonzero"></path>
        <path d="M8,5.5 C8.27614237,5.5 8.5,5.72385763 8.5,6 L8.5,10 C8.5,10.2761424 8.27614237,10.5 8,10.5 C7.72385763,10.5 7.5,10.2761424 7.5,10 L7.5,6 C7.5,5.72385763 7.72385763,5.5 8,5.5 Z" id="Path-19" fill="#8D98AA" fill-rule="nonzero"></path>
    </g>
</svg>