<?xml version="1.0" encoding="UTF-8"?>
<svg width="16px" height="16px" viewBox="0 0 16 16" version="1.1" xmlns="http://www.w3.org/2000/svg" xmlns:xlink="http://www.w3.org/1999/xlink">
    <title>工具栏/保存 copy 4</title>
    <g id="工具栏/保存-copy-4" stroke="none" stroke-width="1" fill="none" fill-rule="evenodd">
        <g id="save-copy" fill="#FFFFFF" fill-rule="nonzero">
            <path d="M15.8,16 L0.200000003,16 C0.0895430514,16 4.12826508e-17,15.9104569 0,15.8 L0,0.200000003 C-1.35270752e-17,0.0895430514 0.0895430514,4.80461885e-17 0.200000003,0 L12.9230769,0 L12.9230769,0 C13.0769231,0 13.2307692,0.0615384615 13.3538462,0.184615385 L15.8153846,2.64615385 C15.9384615,2.76923077 16,2.92307692 16,3.07692308 L16,15.8 C16,15.9104569 15.9104569,16 15.8,16 Z M1.23076923,1.43076923 L1.23076923,14.5692308 C1.23076923,14.6796877 1.32031228,14.7692308 1.43076923,14.7692308 L14.5692308,14.7692308 C14.6796877,14.7692308 14.7692308,14.6796877 14.7692308,14.5692308 L14.7692308,3.32307692 L14.7692308,3.32307692 L12.6769231,1.23076923 L1.43076923,1.23076923 C1.32031228,1.23076923 1.23076923,1.32031228 1.23076923,1.43076923 Z" id="Shape"></path>
            <path d="M4.24610592,14.7692308 L11.7227414,14.7692308 L11.7227414,10.0461538 C11.7227414,9.9356969 11.6331984,9.84615385 11.5227414,9.84615385 L4.44610592,9.84615385 C4.33564897,9.84615385 4.24610592,9.9356969 4.24610592,10.0461538 L4.24610592,14.7692308 L4.24610592,14.7692308 Z M11.8342679,6.15384615 L4.13457944,6.15384615 C4.02412249,6.15384615 3.93457944,6.0643031 3.93457944,5.95384615 L3.93457944,0.615384615 L3.93457944,0.615384615 C3.93457944,0.276923077 4.21495327,0 4.5576324,0 L11.411215,0 C11.7538941,0 12.0342679,0.276923077 12.0342679,0.615384615 L12.0342679,5.95384615 C12.0342679,6.0643031 11.9447249,6.15384615 11.8342679,6.15384615 Z M5.18068536,1.23076923 L5.18068536,4.72307692 C5.18068536,4.83353387 5.27022841,4.92307692 5.38068536,4.92307692 L10.588162,4.92307692 C10.6986189,4.92307692 10.788162,4.83353387 10.788162,4.72307692 L10.788162,1.23076923 L10.788162,1.23076923 L5.18068536,1.23076923 Z" id="Shape"></path>
            <path d="M9,3.8 L9,2.2 C9,2.08954305 9.08954305,2 9.2,2 L9.8,2 C9.91045695,2 10,2.08954305 10,2.2 L10,3.8 C10,3.91045695 9.91045695,4 9.8,4 L9.2,4 C9.08954305,4 9,3.91045695 9,3.8 Z" id="Path"></path>
        </g>
        <path d="M3.5,10.2611557 L3.5,14.8 L3.5,14.8 L12.5,14.8 L12.5,10 C12.5,9.88954305 12.4104569,9.8 12.3,9.8 L3.7,9.8 C3.58954305,9.8 3.5,9.88954305 3.5,10 L3.5,10.2611557 Z" id="Path-5" fill="#64E6DA"></path>
    </g>
</svg>