<?xml version="1.0" encoding="UTF-8"?>
<svg width="16px" height="16px" viewBox="0 0 16 16" version="1.1" xmlns="http://www.w3.org/2000/svg" xmlns:xlink="http://www.w3.org/1999/xlink">
    <title>工具栏/模型训练 copy 2</title>
    <g id="工具栏/模型训练-copy-2" stroke="none" stroke-width="1" fill="none" fill-rule="evenodd">
        <g id="训练任务-copy" transform="translate(1.066667, 0.000000)">
            <path d="M13.8666667,4.63548063 C13.8666667,4.61940382 13.8648517,4.60689963 13.8630366,4.59260913 C13.8630366,4.58903651 13.8630366,4.58546388 13.8612216,4.58189126 C13.8594066,4.56938707 13.8575916,4.55509657 13.8539616,4.54259239 C13.8503316,4.52651557 13.8485166,4.51401139 13.8448866,4.5015072 C13.8430716,4.49793458 13.8430716,4.49436195 13.8412565,4.49078933 C13.8376265,4.47828514 13.8339965,4.46578095 13.8303665,4.45506308 C13.8303665,4.45327677 13.8303665,4.45327677 13.8285515,4.45149045 C13.8231065,4.43898627 13.8194764,4.42648208 13.8140314,4.41397789 L13.8085864,4.40326002 L13.7922513,4.3711064 C13.7831763,4.35324327 13.7777312,4.3425254 13.7704712,4.33002121 C13.7686562,4.32644859 13.7668412,4.32287596 13.7632112,4.31930334 C13.7559511,4.30858546 13.7486911,4.29786759 13.7414311,4.28893603 C13.7414311,4.28714972 13.7396161,4.28714972 13.7396161,4.2853634 L13.7123909,4.25320978 C13.7105759,4.24963716 13.7069459,4.24785084 13.7051309,4.24427822 C13.6960558,4.23356034 13.6851658,4.22284247 13.6760908,4.2121246 L9.58687609,0.1875628 C9.57598604,0.176844926 9.56509599,0.167913364 9.55420593,0.158981802 L9.5469459,0.151836552 L9.51427574,0.125041867 C9.51246073,0.125041867 9.51246073,0.123255554 9.51064572,0.123255554 L9.47797557,0.101819806 C9.47434555,0.100033493 9.47071553,0.098247181 9.46890052,0.0964608686 C9.45619546,0.0893156191 9.44530541,0.0821703695 9.43260035,0.0768114324 C9.43078534,0.0768114324 9.42897033,0.07502512 9.42897033,0.07502512 C9.41808028,0.0696661829 9.40719023,0.0643072457 9.39448517,0.0589483086 L9.38359511,0.0535893714 C9.37089005,0.0482304343 9.35818499,0.0428714972 9.34547993,0.0392988724 C9.34366492,0.0392988724 9.34366492,0.0392988724 9.34184991,0.03751256 C9.32914485,0.0339399352 9.31643979,0.0285809981 9.30373473,0.0250083733 C9.30010471,0.023222061 9.29647469,0.023222061 9.29465969,0.0214357486 C9.28013962,0.0178631238 9.26743455,0.0142904991 9.25291449,0.0125041867 C9.23839442,0.0107178743 9.22568935,0.00714524953 9.21116928,0.00535893714 C9.20753927,0.00535893714 9.20390925,0.00535893714 9.20027923,0.00357262476 C9.18757417,0.00178631238 9.1730541,0 9.16034904,0 L0.200000003,0 C0.0895430514,2.02906128e-17 9.74952272e-17,0.0895430514 0,0.200000003 L0,15.8 C1.35270752e-17,15.9104569 0.0895430514,16 0.200000003,16 L13.6666667,16 C13.7771236,16 13.8666667,15.9104569 13.8666667,15.8 L13.8666667,4.66763425 L13.8666667,4.66763425 L13.8666667,4.63548063 Z M11.6360209,4.0245618 L9.77745201,4.0245618 L9.77745201,2.19537792 L11.6360209,4.0245618 Z M1.30680628,14.7138551 L1.30680628,1.28614491 L8.47064572,1.28614491 L8.47064572,5.11070671 C8.47064572,5.22116366 8.56018878,5.31070671 8.67064573,5.31070671 L12.5598604,5.31070671 L12.5598604,5.31070671 L12.5598604,14.7138551 L1.30680628,14.7138551 Z" id="Shape" fill="#FFFFFF" fill-rule="nonzero"></path>
            <path d="M7.32786794,7.30358967 L9.61820835,10.0911066 L5.3370816,10.2908093 L7.32786794,7.30358967 Z" id="Triangle" stroke="#FFFFFF" stroke-width="1.3" transform="translate(7.433333, 8.500000) rotate(-270.000000) translate(-7.433333, -8.500000) "></path>
        </g>
        <path d="M8.39453461,7.30358967 L10.684875,10.0911066 L6.40374827,10.2908093 L8.39453461,7.30358967 Z" id="Triangle" stroke="#64E6DA" stroke-width="1.3" fill="#64E6DA" transform="translate(8.500000, 8.500000) rotate(-270.000000) translate(-8.500000, -8.500000) "></path>
    </g>
</svg>