<?xml version="1.0" encoding="UTF-8"?>
<svg width="16px" height="16px" viewBox="0 0 16 16" version="1.1" xmlns="http://www.w3.org/2000/svg" xmlns:xlink="http://www.w3.org/1999/xlink">
    <title>工具栏/模版打包 copy 3</title>
    <g id="工具栏/模版打包-copy-3" stroke="none" stroke-width="1" fill="none" fill-rule="evenodd">
        <g id="集成打包-copy">
            <path d="M7.90556165,0.0304066817 L0.60556165,3.94080493 C0.54056729,3.97562052 0.5,4.04337221 0.5,4.1171041 L0.5,11.9795373 C0.5,12.0540096 0.541378221,12.1223143 0.607384336,12.1568008 L7.90738433,15.9708655 C7.965407,16.0011809 8.034593,16.0011809 8.09261567,15.9708655 L15.3926157,12.1568008 C15.4586218,12.1223143 15.5,12.0540096 15.5,11.9795373 L15.5,4.1171041 C15.5,4.04337221 15.4594327,3.97562052 15.3944384,3.94080493 L8.09443835,0.0304066817 C8.03544485,-0.00119442423 7.96455515,-0.00119442423 7.90556165,0.0304066817 Z M5.4095,5.92773277 L11.1495,2.79977948 L13.6245,4.11365217 L7.9435,7.19682591 L5.4095,5.92773277 Z M7.998,1.12716154 L10.076,2.2303668 L4.3055,5.37511243 L2.0415,4.24086679 L7.998,1.12716154 Z M1.5,5.1043997 L3.894,6.30327036 L3.894,8.84002009 C3.894,8.91423663 3.93509721,8.98235068 4.00075384,9.01695272 L4.60075383,9.33316178 C4.69847102,9.38466022 4.81943418,9.34719252 4.87093262,9.24947533 C4.88608253,9.2207287 4.894,9.1887236 4.894,9.15622916 L4.894,6.804496 L4.894,6.804496 L7.5,8.10870037 L7.5,14.5518669 L1.5,11.5073664 L1.5,5.1043997 Z M8.5,14.5518669 L8.5,8.04763735 L14.5,4.79196057 L14.5,11.5073664 L8.5,14.5518669 Z" id="Shape" fill="#FFFFFF" fill-rule="nonzero"></path>
            <rect id="Rectangle" x="0" y="0" width="16" height="16"></rect>
        </g>
        <path d="M3.28742213,5.59914573 L3.28742213,8.60399252 C3.28742213,8.68100877 3.33164471,8.75118253 3.40112205,8.78441507 L4.97026351,9.53497008 C5.06990813,9.5826323 5.18932392,9.54049224 5.23698615,9.44084762 C5.24987405,9.41390363 5.2565636,9.38441518 5.2565636,9.35454753 L5.2565636,6.58018277 C5.2565636,6.506116 5.2974967,6.43811375 5.36294868,6.40344497 L12.7216949,2.50564575 L12.7216949,2.50564575 L10.7728882,1.46662903 L3.3929278,5.42287656 C3.32796458,5.45770203 3.28742213,5.52543663 3.28742213,5.59914573 Z" id="Path-14" fill="#64E6DA"></path>
    </g>
</svg>