<?xml version="1.0" encoding="UTF-8"?>
<svg width="16px" height="16px" viewBox="0 0 16 16" version="1.1" xmlns="http://www.w3.org/2000/svg" xmlns:xlink="http://www.w3.org/1999/xlink">
    <title>工具栏/数据转换 copy 3</title>
    <g id="工具栏/数据转换-copy-3" stroke="none" stroke-width="1" fill="none" fill-rule="evenodd">
        <path d="M16.0769231,1.2 L16.0769231,14.8 C16.0769231,14.9104569 15.98738,15 15.8769231,15 L0.123076926,15 C0.0126199744,15 -0.0769230769,14.9104569 -0.0769230769,14.8 L-0.0769230769,1.2 C-0.0769230769,1.08954305 0.0126199744,1 0.123076926,1 L15.8769231,1 C15.98738,1 16.0769231,1.08954305 16.0769231,1.2 Z M14.6515837,2.5 L1.34841629,2.5 L1.34841629,13.5 L14.6515837,13.5 L14.6515837,2.5 L14.6515837,2.5 Z" id="Shape" fill="#FFFFFF" fill-rule="nonzero"></path>
        <path d="M7.05531895,4.27830912 L7.20193975,5.35914356 C7.2110353,5.42619259 7.1645405,5.48809666 7.09761289,5.49804635 L7.03035303,5.50804544 C6.99533148,5.51325186 6.9623198,5.52766209 6.93469082,5.5498038 L6.44282928,5.94397904 C6.44129505,5.94520856 6.43974277,5.94641539 6.43817296,5.94759914 L6.32652536,6.03178904 L6.32652536,6.03178904 C5.74080404,6.49893199 5.39296188,7.20696764 5.39296186,7.97215631 C5.39296186,9.06892669 6.11153645,10.0315529 7.14922818,10.3451858 L7.60999892,10.4840667 C7.71376318,10.5153423 7.77373795,10.6235739 7.74524645,10.7281369 L7.47929766,11.7041614 C7.45025888,11.810733 7.34032502,11.8735857 7.23375351,11.8445469 C7.23199136,11.8440667 7.23023588,11.8435625 7.22848755,11.8430342 L6.77804692,11.7069381 L6.77804692,11.7069381 C5.17348468,11.222791 4.04647607,9.71319662 4.04647607,7.97215631 C4.04647607,7.20791235 4.2637091,6.48098314 4.65194585,5.86552584 L4.27730906,5.92211238 C4.16809094,5.9386091 4.06617894,5.86344355 4.04968223,5.75422544 C4.04953209,5.75323148 4.04938946,5.7522364 4.04925433,5.75124029 L3.91274493,4.74494345 C3.89804773,4.63660112 3.97307622,4.53653598 4.08119583,4.52028126 L6.82740028,4.10741652 C6.93662972,4.09099495 7.03848999,4.16623059 7.05491156,4.27546003 C7.05505419,4.27640874 7.05518999,4.27735846 7.05531895,4.27830912 Z" id="Path" fill="#64E6DA" fill-rule="nonzero"></path>
        <path d="M11.5690747,4.27830912 L11.7156955,5.35914356 C11.724791,5.42619259 11.6782962,5.48809666 11.6113686,5.49804635 L11.5441088,5.50804544 C11.5090872,5.51325186 11.4760755,5.52766209 11.4484466,5.5498038 L10.956585,5.94397904 C10.9550508,5.94520856 10.9534985,5.94641539 10.9519287,5.94759914 L10.8402811,6.03178904 L10.8402811,6.03178904 C10.2545598,6.49893199 9.90671763,7.20696764 9.9067176,7.97215631 C9.9067176,9.06892669 10.6252922,10.0315529 11.6629839,10.3451858 L12.1237547,10.4840667 C12.2275189,10.5153423 12.2874937,10.6235739 12.2590022,10.7281369 L11.9930534,11.7041614 C11.9640146,11.810733 11.8540808,11.8735857 11.7475092,11.8445469 C11.7457471,11.8440667 11.7439916,11.8435625 11.7422433,11.8430342 L11.2918027,11.7069381 L11.2918027,11.7069381 C9.68724042,11.222791 8.56023181,9.71319662 8.56023181,7.97215631 C8.56023181,7.20791235 8.77746484,6.48098314 9.1657016,5.86552584 L8.7910648,5.92211238 C8.68184669,5.9386091 8.57993468,5.86344355 8.56343797,5.75422544 C8.56328784,5.75323148 8.5631452,5.7522364 8.56301007,5.75124029 L8.42650067,4.74494345 C8.41180347,4.63660112 8.48683196,4.53653598 8.59495158,4.52028126 L11.341156,4.10741652 C11.4503855,4.09099495 11.5522457,4.16623059 11.5686673,4.27546003 C11.5688099,4.27640874 11.5689457,4.27735846 11.5690747,4.27830912 Z" id="Path" fill="#64E6DA" fill-rule="nonzero" transform="translate(10.355097, 7.989869) scale(-1, -1) translate(-10.355097, -7.989869) "></path>
        <rect id="Rectangle" x="0" y="0" width="16" height="16"></rect>
    </g>
</svg>