<?xml version="1.0" encoding="UTF-8"?>
<svg width="16px" height="16px" viewBox="0 0 16 16" version="1.1" xmlns="http://www.w3.org/2000/svg" xmlns:xlink="http://www.w3.org/1999/xlink">
    <title>工具栏/撤销</title>
    <g id="工具栏/撤销" stroke="none" stroke-width="1" fill="none" fill-rule="evenodd">
        <path d="M9.99969635,4.20223413 C13.0382109,4.20223413 14.9999241,6.37839745 14.9999241,9.13972981 C14.9999241,11.9010622 13.0382109,14.0772255 9.99969635,14.0772255 L5.97633537,14.0772255 C5.700193,14.0772255 5.47633537,13.8533679 5.47633537,13.5772255 C5.47633537,13.3010831 5.700193,13.0772255 5.97633537,13.0772255 L9.99969635,13.0772255 C12.4614601,13.0772255 13.9999241,11.3705801 13.9999241,9.13972981 C13.9999241,6.90887954 12.4614601,5.20223413 9.99969635,5.20223413 L3.38118922,5.20223413 C3.10504685,5.20223413 2.88118922,4.97837651 2.88118922,4.70223413 C2.88118922,4.42609176 3.10504685,4.20223413 3.38118922,4.20223413 L9.99969635,4.20223413 Z" id="Path-35" fill="#8D98AA" fill-rule="nonzero"></path>
        <path d="M6.65947837,1.03597687 C6.87063992,0.858029092 7.18607535,0.884954173 7.36402313,1.09611572 C7.54197091,1.30727727 7.51504583,1.6227127 7.30388428,1.80066048 L3.75568132,4.79031868 L7.3050917,7.80036029 C7.49228973,7.95912884 7.53357543,8.22606875 7.41499219,8.43133818 L7.36300236,8.5050917 C7.18438774,8.71568949 6.86886875,8.74161698 6.65827095,8.56300236 L2.65827095,5.17047647 C2.4223298,4.97036736 2.42290562,4.60617566 2.65947837,4.40681363 L6.65947837,1.03597687 Z" id="Path-34" fill="#8D98AA" fill-rule="nonzero"></path>
    </g>
</svg>