<?xml version="1.0" encoding="UTF-8"?>
<svg width="16px" height="16px" viewBox="0 0 16 16" version="1.1" xmlns="http://www.w3.org/2000/svg" xmlns:xlink="http://www.w3.org/1999/xlink">
    <title>1-icon/01公共/02告警/alarm-orange</title>
    <g id="1-icon/01公共/02告警/alarm-orange" stroke="none" stroke-width="1" fill="none" fill-rule="evenodd">
        <path d="M14.881468,12.724535 L11.8196531,7.574845 L8.75783826,2.425155 C8.58956158,2.1421612 8.29405129,2 7.99990912,2 C7.70439883,2 7.41025665,2.1421612 7.24197997,2.425155 L4.1801651,7.574845 L1.11835023,12.724535 C0.781796857,13.2918512 1.20317263,14 1.87627938,14 L14.1235388,14 C14.7980137,14 15.2180214,13.2918512 14.881468,12.724535 Z" id="路径" fill="#F97611" fill-rule="nonzero"></path>
        <path d="M8,12 C7.5859375,12 7.25,11.6640625 7.25,11.25 C7.25,10.8359375 7.5859375,10.5 8,10.5 C8.4140625,10.5 8.75,10.8359375 8.75,11.25 C8.75,11.6640625 8.4140625,12 8,12 Z M8,4.5 C8.27614237,4.5 8.5,4.72385763 8.5,5 L8.5,9 C8.5,9.27614237 8.27614237,9.5 8,9.5 C7.72385763,9.5 7.5,9.27614237 7.5,9 L7.5,5 C7.5,4.72385763 7.72385763,4.5 8,4.5 Z" id="形状" fill="#FFFFFF"></path>
    </g>
</svg>