<?xml version="1.0" encoding="UTF-8"?>
<svg width="16px" height="16px" viewBox="0 0 16 16" version="1.1" xmlns="http://www.w3.org/2000/svg" xmlns:xlink="http://www.w3.org/1999/xlink">
    <title>昇腾</title>
    <g id="昇腾" stroke="none" stroke-width="1" fill="none" fill-rule="evenodd">
        <g id="编组" transform="translate(1.000000, 0.000000)" fill="#FFFFFF" fill-rule="nonzero">
            <g id="路径">
                <path d="M6.18358321,11.0381285 C8.88615671,7.99819714 11.6458759,6.1239433 13.9986062,5.26809426 L13.9818806,0.712365328 C13.9442481,0.0482486978 13.1246951,-0.244907388 12.6717109,0.242759845 L10.6074967,2.46435501 L0.303151255,14.0266533 C-0.404897912,14.8213703 0.212554412,16.0717991 1.27602196,15.9967734 C1.58405122,15.9745435 1.87256732,15.8342176 2.07884936,15.6049723 L6.17800802,11.0409072 C6.17940182,11.0409072 6.18218942,11.0395179 6.18358321,11.0381285 Z"></path>
                <path d="M8.88336911,9.86550415 L12.402708,14.2892434 C13.0159789,14.7991405 13.9456419,14.3420393 13.9121908,13.5459329 L14,8.18715083 C11.9706307,7.97596729 10.3078302,8.74845442 8.88336911,9.86550415 Z"></path>
            </g>
        </g>
    </g>
</svg>