<?xml version="1.0" encoding="UTF-8"?>
<svg width="16px" height="16px" viewBox="0 0 16 16" version="1.1" xmlns="http://www.w3.org/2000/svg" xmlns:xlink="http://www.w3.org/1999/xlink">
    <title>Light/2-控件/05选择控制器/02复选框/部件/已选</title>
    <g id="Light/2-控件/05选择控制器/02复选框/部件/已选" stroke="none" stroke-width="1" fill="none" fill-rule="evenodd">
        <rect id="矩形" fill="#0077FF" x="2" y="2" width="12" height="12" rx="1"></rect>
        <path d="M10.9884319,5.11916436 L11.8674565,6.02325094 C11.9359004,6.09364634 11.9343185,6.20619789 11.8639231,6.27464186 C11.8610696,6.27741621 11.8581238,6.28009397 11.8550906,6.28267059 L6.46155473,10.864353 C6.38672519,10.9279189 6.27453349,10.918788 6.21096755,10.8439584 C6.20468927,10.8365677 6.19902625,10.8286756 6.19403516,10.8203612 L4.09692737,7.32690692 C4.04639381,7.24272588 4.07367047,7.13351811 4.15785151,7.08298454 C4.16077828,7.08122762 4.16375504,7.07955535 4.1667781,7.07796983 L5.31331615,6.47663743 C5.39673852,6.43288434 5.49980765,6.46179827 5.54830066,6.5425575 L6.62522496,8.33604447 C6.6757689,8.42021928 6.78498003,8.44748249 6.86915485,8.39693855 C6.87745669,8.39195359 6.88533735,8.38629867 6.8927182,8.38003023 L10.7458885,5.10758948 C10.81719,5.04703424 10.9232212,5.05209436 10.9884319,5.11916436 Z" id="路径" fill="#FFFFFF" fill-rule="nonzero"></path>
    </g>
</svg>