<?xml version="1.0" encoding="UTF-8"?>
<svg width="16px" height="16px" viewBox="0 0 16 16" version="1.1" xmlns="http://www.w3.org/2000/svg" xmlns:xlink="http://www.w3.org/1999/xlink">
    <title>close</title>
    <defs>
        <path d="M10.1533884,0.212132034 L11.787868,1.84661155 C11.9049914,1.96378368 11.9050023,2.1537144 11.7878923,2.27089997 L8.12974315,5.9298891 C8.09070261,5.96894926 8.09070749,6.03226165 8.12975405,6.07131578 L11.7878596,9.72913275 C11.9050299,9.84627704 11.9050374,10.0362265 11.7878847,10.1533884 C11.7878819,10.1533912 11.7878791,10.153394 11.787868,10.1533884 L10.1533884,11.787868 C10.0362395,11.9050336 9.84629003,11.9050336 9.72913275,11.7878763 C9.72912996,11.7878735 9.72912717,11.7878708 9.72913275,11.7878596 L6.07131578,8.12975405 C6.03226165,8.09070749 5.96894926,8.09070261 5.9298891,8.12974315 L2.27089997,11.7878923 C2.1537144,11.9050023 1.96378368,11.9049914 1.84661155,11.787868 L0.212132034,10.1533884 C0.0949336668,10.0362722 0.0949336668,9.84632275 0.212090954,9.72916546 C0.212104649,9.72915176 0.212118345,9.72913807 0.212173114,9.72916547 L3.87145083,6.07130488 C3.9105273,6.03227649 3.91053956,5.96896 3.8714947,5.92990001 C3.8714892,5.92989451 3.87148371,5.92988902 3.87146173,5.9299 L0.212140399,2.27086726 C0.0949701274,2.15372295 0.094962637,1.96377346 0.212115305,1.84661155 C0.212118093,1.84660876 0.212120881,1.84660598 0.212132034,1.84661155 L1.84661155,0.212132034 C1.96376048,0.0949663819 2.15370997,0.0949663819 2.27086726,0.212123669 C2.27087004,0.212126458 2.27087283,0.212129246 2.27086726,0.212140399 L5.9299,3.87146173 C5.96893441,3.91053218 6.03225091,3.91053468 6.07130488,3.87148379 C6.07131037,3.8714783 6.07131587,3.8714728 6.07130488,3.87145083 L9.72916547,0.212173114 C9.84625897,0.0949520669 10.0362085,0.0949152791 10.1533884,0.212049874 C10.1534021,0.212063566 10.1534158,0.21207726 10.1533884,0.212132034 Z" id="path-1"></path>
    </defs>
    <g id="close" stroke="none" stroke-width="1" fill="none" fill-rule="evenodd">
        <g id="color/2Regular" transform="translate(2.000000, 2.000000)">
            <mask id="mask-2" fill="white">
                <use xlink:href="#path-1"></use>
            </mask>
            <use id="蒙版" fill="#D3DCE9" fill-rule="nonzero" xlink:href="#path-1"></use>
        </g>
    </g>
</svg>