<?xml version="1.0" encoding="UTF-8"?>
<svg width="24px" height="24px" viewBox="0 0 16 16" version="1.1" xmlns="http://www.w3.org/2000/svg" xmlns:xlink="http://www.w3.org/1999/xlink">
    <title>工具栏/删除文件</title>
    <g id="工具栏/删除文件" stroke="none" stroke-width="1" fill="none" fill-rule="evenodd">
        <path d="M12.5,5.10439159 C12.7761424,5.10439159 13,5.32824921 13,5.60439159 L13,13.6043916 C13,14.4328187 12.3284271,15.1043916 11.5,15.1043916 L4.5,15.1043916 C3.67157288,15.1043916 3,14.4328187 3,13.6043916 L3,5.60439159 C3,5.32824921 3.22385763,5.10439159 3.5,5.10439159 C3.77614237,5.10439159 4,5.32824921 4,5.60439159 L4,13.6043916 C4,13.880534 4.22385763,14.1043916 4.5,14.1043916 L11.5,14.1043916 C11.7761424,14.1043916 12,13.880534 12,13.6043916 L12,5.60439159 C12,5.32824921 12.2238576,5.10439159 12.5,5.10439159 Z" id="Path-42" fill="#4E5865" fill-rule="nonzero"></path>
        <path d="M14,3 C14.2761424,3 14.5,3.22385763 14.5,3.5 C14.5,3.77614237 14.2761424,4 14,4 L2,4 C1.72385763,4 1.5,3.77614237 1.5,3.5 C1.5,3.22385763 1.72385763,3 2,3 L14,3 Z" id="Path-43" fill="#4E5865" fill-rule="nonzero"></path>
        <path d="M6,5.5 C6.27614237,5.5 6.5,5.72385763 6.5,6 L6.5,12 C6.5,12.2761424 6.27614237,12.5 6,12.5 C5.72385763,12.5 5.5,12.2761424 5.5,12 L5.5,6 C5.5,5.72385763 5.72385763,5.5 6,5.5 Z" id="Path-44" fill="#4E5865" fill-rule="nonzero"></path>
        <path d="M8,5.5 C8.27614237,5.5 8.5,5.72385763 8.5,6 L8.5,12 C8.5,12.2761424 8.27614237,12.5 8,12.5 C7.72385763,12.5 7.5,12.2761424 7.5,12 L7.5,6 C7.5,5.72385763 7.72385763,5.5 8,5.5 Z" id="Path-45" fill="#4E5865" fill-rule="nonzero"></path>
        <path d="M10,5.5 C10.2761424,5.5 10.5,5.72385763 10.5,6 L10.5,12 C10.5,12.2761424 10.2761424,12.5 10,12.5 C9.72385763,12.5 9.5,12.2761424 9.5,12 L9.5,6 C9.5,5.72385763 9.72385763,5.5 10,5.5 Z" id="Path-45-Copy" fill="#4E5865" fill-rule="nonzero"></path>
        <path d="M10,1.04066505 C10.8284271,1.04066505 11.5,1.71223792 11.5,2.54066505 L11.5,3.26785729 L10.5,3.26785729 L10.5,2.54066505 C10.5,2.26452267 10.2761424,2.04066505 10,2.04066505 L6,2.04066505 C5.72385763,2.04066505 5.5,2.26452267 5.5,2.54066505 L5.5,3.5 L4.5,3.5 L4.5,2.54066505 C4.5,1.71223792 5.17157288,1.04066505 6,1.04066505 L10,1.04066505 Z" id="Path-46" fill="#4E5865" fill-rule="nonzero"></path>
    </g>
</svg>