<?xml version="1.0" encoding="UTF-8"?>
<svg width="16px" height="16px" viewBox="0 0 16 16" version="1.1" xmlns="http://www.w3.org/2000/svg" xmlns:xlink="http://www.w3.org/1999/xlink">
    <title>1-icon/01公共/more</title>
    <g id="1-icon/01公共/more" stroke="none" stroke-width="1" fill="none" fill-rule="evenodd">
        <path d="M3,7 C3.55228475,7 4,7.44771525 4,8 C4,8.51283584 3.61395981,8.93550716 3.11662113,8.99327227 L3,9 C2.44771525,9 2,8.55228475 2,8 C2,7.48716416 2.38604019,7.06449284 2.88337887,7.00672773 L3,7 Z M8,7 C8.55228475,7 9,7.44771525 9,8 C9,8.51283584 8.61395981,8.93550716 8.11662113,8.99327227 L8,9 C7.44771525,9 7,8.55228475 7,8 C7,7.48716416 7.38604019,7.06449284 7.88337887,7.00672773 L8,7 Z M13,7 C13.5522847,7 14,7.44771525 14,8 C14,8.51283584 13.6139598,8.93550716 13.1166211,8.99327227 L13,9 C12.4477153,9 12,8.55228475 12,8 C12,7.48716416 12.3860402,7.06449284 12.8833789,7.00672773 L13,7 Z" id="形状结合" fill="#8D98AA" fill-rule="nonzero"></path>
    </g>
</svg>