<?xml version="1.0" encoding="UTF-8"?>
<svg width="24px" height="24px" viewBox="0 0 16 16" version="1.1" xmlns="http://www.w3.org/2000/svg" xmlns:xlink="http://www.w3.org/1999/xlink">
    <title>工具栏/打开图片列表</title>
    <defs>
        <path d="M1,4.5 C1,3.72030388 1.59488808,3.07955132 2.35553999,3.00686658 L2.5,3 L6.25340182,3 C6.34387386,3 6.43205835,3.02453089 6.50888883,3.07020057 L6.58159884,3.12279089 L8.74,5 L13.5,5 C14.2796961,5 14.9204487,5.59488808 14.9931334,6.35553999 L15,6.5 L15,9.49833951 C15,9.77448189 14.7761424,9.99833951 14.5,9.99833951 C14.2545401,9.99833951 14.0503916,9.82146435 14.0080557,9.58821515 L14,9.49833951 L14,6.5 C14,6.25454011 13.8231248,6.05039163 13.5898756,6.00805567 L13.5,6 L2,6 L2,13.5 C2,13.7454599 2.17687516,13.9496084 2.41012437,13.9919443 L2.5,14 L7.99620056,14 C8.27234294,14 8.49620056,14.2238576 8.49620056,14.5 C8.49620056,14.7454599 8.3193254,14.9496084 8.08607619,14.9919443 L7.99620056,15 L2.5,15 C1.72030388,15 1.07955132,14.4051119 1.00686658,13.64446 L1,13.5 L1,4.5 Z M6.066,4 L2.5,4 C2.25454011,4 2.05039163,4.17687516 2.00805567,4.41012437 L2,4.5 L2,5 L7.215,5 L6.066,4 Z" id="path-1"></path>
    </defs>
    <g id="工具栏/打开图片列表" stroke="none" stroke-width="1" fill="none" fill-rule="evenodd">
        <path d="M6.3009824,1.05148355 L14.028389,3.12203591 C14.8285882,3.33644863 15.3034619,4.15895406 15.0890492,4.95915322 L14,9.021 L14,5.43342595 L13.927,5.433 L14.1231234,4.70033417 C14.186653,4.46323813 14.0686423,4.22026718 13.8542982,4.11900444 L13.76957,4.08796174 L6.04216335,2.01740938 C5.7754303,1.94593847 5.50126182,2.10422972 5.42979092,2.37096277 L5.032,3.853 L4.052,3.65 L4.46386509,2.11214372 C4.67827781,1.31194457 5.50078324,0.837070834 6.3009824,1.05148355 Z M8.38822857,2.98453721 C9.18842772,3.19894993 9.66330146,4.02145536 9.44888874,4.82165452 C9.38594405,5.0565673 9.27059265,5.26344285 9.11878382,5.43307285 L7.391,5.434 L6.62950718,4.18342595 L6.52458594,4.16252727 C6.53181184,4.12341306 6.54063948,4.08427862 6.55111126,4.04519738 C6.76552398,3.24499823 7.58802941,2.77012449 8.38822857,2.98453721 Z M12.1809385,5.36320413 L12.24,5.433 L10.964,5.433 L11.5223414,5.18332018 C11.7550183,5.06074755 12.0428761,5.13937073 12.1809385,5.36320413 Z M7.51703709,4.30401643 C7.44556618,4.57074948 7.60385743,4.84491796 7.87059048,4.91638886 C8.13732353,4.98785977 8.41149201,4.82956852 8.48296291,4.56283547 C8.55443382,4.29610242 8.39614257,4.02193394 8.12940952,3.95046304 C7.86267647,3.87899213 7.58850799,4.03728338 7.51703709,4.30401643 Z" id="Combined-Shape-Copy-3" fill="#8D98AA" fill-rule="nonzero"></path>
        <mask id="mask-2" fill="white">
            <use xlink:href="#path-1"></use>
        </mask>
        <use id="形状结合-copy" fill="#8D98AA" fill-rule="nonzero" xlink:href="#path-1"></use>
        <path d="M14,12.5 C14.2761424,12.5 14.5,12.7238576 14.5,13 C14.5,13.2761424 14.2761424,13.5 14,13.5 L10,13.5 C9.72385763,13.5 9.5,13.2761424 9.5,13 C9.5,12.7238576 9.72385763,12.5 10,12.5 L14,12.5 Z" id="Path-19-Copy" fill="#8D98AA" fill-rule="nonzero"></path>
        <path d="M12,10.5 C12.2761424,10.5 12.5,10.7238576 12.5,11 L12.5,15 C12.5,15.2761424 12.2761424,15.5 12,15.5 C11.7238576,15.5 11.5,15.2761424 11.5,15 L11.5,11 C11.5,10.7238576 11.7238576,10.5 12,10.5 Z" id="Path-19-Copy-2" fill="#8D98AA" fill-rule="nonzero"></path>
    </g>
</svg>