<?xml version="1.0" encoding="UTF-8"?>
<svg width="16px" height="16px" viewBox="0 0 16 16" version="1.1" xmlns="http://www.w3.org/2000/svg" xmlns:xlink="http://www.w3.org/1999/xlink">
    <title>1-icon/01公共/refresh</title>
    <defs>
        <path d="M11.6291651,5.25 C11.3530227,5.25 11.1291651,5.02614237 11.1291651,4.75 C11.1291651,4.50454011 11.3060403,4.30039163 11.5392895,4.25805567 L11.6291651,4.25 L12.6846316,4.24977305 C10.8645197,1.97036607 7.60320334,1.30088743 5,2.80384758 C2.13024426,4.46070183 1.14699333,8.13024426 2.80384758,11 C4.46070183,13.8697557 8.13024426,14.8530067 11,13.1961524 C11.2391463,13.0580812 11.5449415,13.1400188 11.6830127,13.3791651 C11.8210839,13.6183114 11.7391463,13.9241066 11.5,14.0621778 C8.15195164,15.9951745 3.8708188,14.8480484 1.93782217,11.5 C0.0048255492,8.15195164 1.15195164,3.8708188 4.5,1.93782217 C7.38297311,0.273336871 10.957807,0.892692 13.1295112,3.23453656 L13.1291651,2.75 C13.1291651,2.50454011 13.3060403,2.30039163 13.5392895,2.25805567 L13.6291651,2.25 C13.874625,2.25 14.0787735,2.42687516 14.1211095,2.66012437 L14.1291651,2.75 L14.1291651,4.75 C14.1291651,4.88142332 14.0784601,5.00100385 13.9955457,5.09024607 C13.9623466,5.12612337 13.9234515,5.15744396 13.8791651,5.1830127 C13.8375881,5.20701724 13.7939965,5.22437179 13.749622,5.23540637 C13.7397542,5.23784184 13.7294537,5.24005433 13.7190408,5.24194433 C13.6971675,5.24579979 13.6798171,5.24785707 13.6624693,5.24900178 L13.6291651,5.25 L11.6291651,5.25 Z" id="path-1"></path>
    </defs>
    <g id="1-icon/01公共/refresh" stroke="none" stroke-width="1" fill="none" fill-rule="evenodd">
        <mask id="mask-2" fill="white">
            <use xlink:href="#path-1"></use>
        </mask>
        <use id="形状结合" fill="#8D98AA" fill-rule="nonzero" xlink:href="#path-1"></use>
    </g>
</svg>