<?xml version="1.0" encoding="UTF-8"?>
<svg width="24px" height="24px" viewBox="0 0 16 16" version="1.1" xmlns="http://www.w3.org/2000/svg" xmlns:xlink="http://www.w3.org/1999/xlink">
    <title>工具栏/保存文件</title>
    <g id="工具栏/保存文件" stroke="none" stroke-width="1" fill="none" fill-rule="evenodd">
        <path d="M11.4086249,1.5 L3,1.5 C2.17157288,1.5 1.5,2.17157288 1.5,3 L1.5,13 C1.5,13.8284271 2.17157288,14.5 3,14.5 L13,14.5 C13.8284271,14.5 14.5,13.8284271 14.5,13 L14.5,4.57707405 C14.5,4.44398633 14.446941,4.31639021 14.3525738,4.22254374 L11.7611986,1.64546969 C11.6675112,1.55229932 11.5407538,1.5 11.4086249,1.5 Z M11.203,2.5 L13.5,4.785 L13.5,13 C13.5,13.2761424 13.2761424,13.5 13,13.5 L3,13.5 C2.72385763,13.5 2.5,13.2761424 2.5,13 L2.5,3 C2.5,2.72385763 2.72385763,2.5 3,2.5 L11.203,2.5 Z" id="Rectangle" fill="#4E5865" fill-rule="nonzero"></path>
        <path d="M10.5,2 L10.5,5 C10.5,5.27614237 10.2761424,5.5 10,5.5 L6,5.5 C5.72385763,5.5 5.5,5.27614237 5.5,5 L5.5,2.25 L6.5,2.25 L6.5,4.5 L9.5,4.5 L9.5,2 L10.5,2 Z" id="Path-40" fill="#4E5865" fill-rule="nonzero"></path>
        <path d="M11.5,8.5 C11.7761424,8.5 12,8.72385763 12,9 L12,14 L11,14 L11,9.5 L5,9.5 L5,14 L4,14 L4,9 C4,8.72385763 4.22385763,8.5 4.5,8.5 L11.5,8.5 Z" id="Path-41" fill="#4E5865" fill-rule="nonzero"></path>
    </g>
</svg>